STARTFONT 2.1
FONT -Tiny5-Bold-R-Bold--9-9-75-75-c-80-iso10646-1
SIZE 9 75 75
FONTBOUNDINGBOX 13 15 -1 -4
STARTPROPERTIES 10
FAMILY_NAME "Tiny5"
WEIGHT_NAME "Bold"
FONT_VERSION "2.001"
COPYRIGHT "Copyright 2022-2025 The Tiny5 Project Authors (https://github.com/Gissio/font_tiny5)"
FOUNDRY "Stefan Schmidt Art"
FONT_ASCENT 7
FONT_DESCENT 2
POINT_SIZE 9
X_HEIGHT 4
CAP_HEIGHT 5
ENDPROPERTIES
CHARS 1498
STARTCHAR U+0000
ENCODING 0
SWIDTH 461 0
DWIDTH 6 0
BBX 5 5 0 0
BITMAP
F8
A8
D8
A8
F8
ENDCHAR
STARTCHAR U+0020
ENCODING 32
SWIDTH 230 0
DWIDTH 3 0
BBX 0 0 0 0
BITMAP
ENDCHAR
STARTCHAR U+0021
ENCODING 33
SWIDTH 230 0
DWIDTH 3 0
BBX 2 5 0 0
BITMAP
C0
C0
C0
00
C0
ENDCHAR
STARTCHAR U+0022
ENCODING 34
SWIDTH 307 0
DWIDTH 4 0
BBX 3 2 0 3
BITMAP
A0
A0
ENDCHAR
STARTCHAR U+0023
ENCODING 35
SWIDTH 461 0
DWIDTH 6 0
BBX 5 5 0 0
BITMAP
50
F8
50
F8
50
ENDCHAR
STARTCHAR U+0024
ENCODING 36
SWIDTH 384 0
DWIDTH 5 0
BBX 4 6 0 -1
BITMAP
20
70
E0
30
E0
20
ENDCHAR
STARTCHAR U+0025
ENCODING 37
SWIDTH 384 0
DWIDTH 5 0
BBX 4 4 0 1
BITMAP
90
20
40
90
ENDCHAR
STARTCHAR U+0026
ENCODING 38
SWIDTH 384 0
DWIDTH 5 0
BBX 4 5 0 0
BITMAP
40
A0
40
A0
50
ENDCHAR
STARTCHAR U+0027
ENCODING 39
SWIDTH 153 0
DWIDTH 2 0
BBX 1 2 0 3
BITMAP
80
80
ENDCHAR
STARTCHAR U+0028
ENCODING 40
SWIDTH 307 0
DWIDTH 4 0
BBX 3 5 0 0
BITMAP
60
C0
C0
C0
60
ENDCHAR
STARTCHAR U+0029
ENCODING 41
SWIDTH 307 0
DWIDTH 4 0
BBX 3 5 0 0
BITMAP
C0
60
60
60
C0
ENDCHAR
STARTCHAR U+002A
ENCODING 42
SWIDTH 307 0
DWIDTH 4 0
BBX 3 4 0 1
BITMAP
40
E0
40
A0
ENDCHAR
STARTCHAR U+002B
ENCODING 43
SWIDTH 461 0
DWIDTH 6 0
BBX 5 5 0 0
BITMAP
20
20
F8
20
20
ENDCHAR
STARTCHAR U+002C
ENCODING 44
SWIDTH 307 0
DWIDTH 4 0
BBX 3 2 0 -1
BITMAP
60
C0
ENDCHAR
STARTCHAR U+002D
ENCODING 45
SWIDTH 384 0
DWIDTH 5 0
BBX 4 1 0 2
BITMAP
F0
ENDCHAR
STARTCHAR U+002E
ENCODING 46
SWIDTH 230 0
DWIDTH 3 0
BBX 2 1 0 0
BITMAP
C0
ENDCHAR
STARTCHAR U+002F
ENCODING 47
SWIDTH 230 0
DWIDTH 3 0
BBX 2 5 0 0
BITMAP
40
40
80
80
80
ENDCHAR
STARTCHAR U+0030
ENCODING 48
SWIDTH 461 0
DWIDTH 6 0
BBX 5 5 0 0
BITMAP
70
D8
D8
D8
70
ENDCHAR
STARTCHAR U+0031
ENCODING 49
SWIDTH 461 0
DWIDTH 6 0
BBX 3 5 1 0
BITMAP
60
E0
60
60
60
ENDCHAR
STARTCHAR U+0032
ENCODING 50
SWIDTH 461 0
DWIDTH 6 0
BBX 4 5 1 0
BITMAP
E0
30
60
C0
F0
ENDCHAR
STARTCHAR U+0033
ENCODING 51
SWIDTH 461 0
DWIDTH 6 0
BBX 4 5 1 0
BITMAP
E0
30
60
30
E0
ENDCHAR
STARTCHAR U+0034
ENCODING 52
SWIDTH 461 0
DWIDTH 6 0
BBX 5 5 0 0
BITMAP
18
38
58
F8
18
ENDCHAR
STARTCHAR U+0035
ENCODING 53
SWIDTH 461 0
DWIDTH 6 0
BBX 4 5 1 0
BITMAP
F0
C0
E0
30
E0
ENDCHAR
STARTCHAR U+0036
ENCODING 54
SWIDTH 461 0
DWIDTH 6 0
BBX 5 5 0 0
BITMAP
70
C0
F0
D8
70
ENDCHAR
STARTCHAR U+0037
ENCODING 55
SWIDTH 461 0
DWIDTH 6 0
BBX 5 5 0 0
BITMAP
F8
18
30
60
60
ENDCHAR
STARTCHAR U+0038
ENCODING 56
SWIDTH 461 0
DWIDTH 6 0
BBX 5 5 0 0
BITMAP
70
D8
70
D8
70
ENDCHAR
STARTCHAR U+0039
ENCODING 57
SWIDTH 461 0
DWIDTH 6 0
BBX 5 5 0 0
BITMAP
70
D8
78
18
70
ENDCHAR
STARTCHAR U+003A
ENCODING 58
SWIDTH 230 0
DWIDTH 3 0
BBX 2 4 0 0
BITMAP
C0
00
00
C0
ENDCHAR
STARTCHAR U+003B
ENCODING 59
SWIDTH 307 0
DWIDTH 4 0
BBX 3 5 0 -1
BITMAP
60
00
00
60
C0
ENDCHAR
STARTCHAR U+003C
ENCODING 60
SWIDTH 307 0
DWIDTH 4 0
BBX 3 5 0 0
BITMAP
20
40
80
40
20
ENDCHAR
STARTCHAR U+003D
ENCODING 61
SWIDTH 384 0
DWIDTH 5 0
BBX 4 3 0 1
BITMAP
F0
00
F0
ENDCHAR
STARTCHAR U+003E
ENCODING 62
SWIDTH 307 0
DWIDTH 4 0
BBX 3 5 0 0
BITMAP
80
40
20
40
80
ENDCHAR
STARTCHAR U+003F
ENCODING 63
SWIDTH 384 0
DWIDTH 5 0
BBX 4 5 0 0
BITMAP
E0
30
60
00
60
ENDCHAR
STARTCHAR U+0040
ENCODING 64
SWIDTH 461 0
DWIDTH 6 0
BBX 5 5 0 0
BITMAP
70
D8
D8
C0
70
ENDCHAR
STARTCHAR U+0041
ENCODING 65
SWIDTH 461 0
DWIDTH 6 0
BBX 5 5 0 0
BITMAP
70
D8
F8
D8
D8
ENDCHAR
STARTCHAR U+0042
ENCODING 66
SWIDTH 461 0
DWIDTH 6 0
BBX 5 5 0 0
BITMAP
F0
D8
F0
D8
F0
ENDCHAR
STARTCHAR U+0043
ENCODING 67
SWIDTH 461 0
DWIDTH 6 0
BBX 5 5 0 0
BITMAP
70
D8
C0
D8
70
ENDCHAR
STARTCHAR U+0044
ENCODING 68
SWIDTH 461 0
DWIDTH 6 0
BBX 5 5 0 0
BITMAP
F0
D8
D8
D8
F0
ENDCHAR
STARTCHAR U+0045
ENCODING 69
SWIDTH 461 0
DWIDTH 6 0
BBX 5 5 0 0
BITMAP
F8
C0
F0
C0
F8
ENDCHAR
STARTCHAR U+0046
ENCODING 70
SWIDTH 461 0
DWIDTH 6 0
BBX 5 5 0 0
BITMAP
F8
C0
F0
C0
C0
ENDCHAR
STARTCHAR U+0047
ENCODING 71
SWIDTH 461 0
DWIDTH 6 0
BBX 5 5 0 0
BITMAP
78
C0
D8
D8
78
ENDCHAR
STARTCHAR U+0048
ENCODING 72
SWIDTH 461 0
DWIDTH 6 0
BBX 5 5 0 0
BITMAP
D8
D8
F8
D8
D8
ENDCHAR
STARTCHAR U+0049
ENCODING 73
SWIDTH 230 0
DWIDTH 3 0
BBX 2 5 0 0
BITMAP
C0
C0
C0
C0
C0
ENDCHAR
STARTCHAR U+004A
ENCODING 74
SWIDTH 461 0
DWIDTH 6 0
BBX 5 5 0 0
BITMAP
18
18
18
D8
70
ENDCHAR
STARTCHAR U+004B
ENCODING 75
SWIDTH 461 0
DWIDTH 6 0
BBX 5 5 0 0
BITMAP
D8
F0
E0
F0
D8
ENDCHAR
STARTCHAR U+004C
ENCODING 76
SWIDTH 461 0
DWIDTH 6 0
BBX 5 5 0 0
BITMAP
C0
C0
C0
C0
F8
ENDCHAR
STARTCHAR U+004D
ENCODING 77
SWIDTH 615 0
DWIDTH 8 0
BBX 7 5 0 0
BITMAP
C6
EE
D6
C6
C6
ENDCHAR
STARTCHAR U+004E
ENCODING 78
SWIDTH 538 0
DWIDTH 7 0
BBX 6 5 0 0
BITMAP
CC
EC
DC
CC
CC
ENDCHAR
STARTCHAR U+004F
ENCODING 79
SWIDTH 461 0
DWIDTH 6 0
BBX 5 5 0 0
BITMAP
70
D8
D8
D8
70
ENDCHAR
STARTCHAR U+0050
ENCODING 80
SWIDTH 461 0
DWIDTH 6 0
BBX 5 5 0 0
BITMAP
F0
D8
F0
C0
C0
ENDCHAR
STARTCHAR U+0051
ENCODING 81
SWIDTH 461 0
DWIDTH 6 0
BBX 5 5 0 0
BITMAP
70
D8
D8
F0
78
ENDCHAR
STARTCHAR U+0052
ENCODING 82
SWIDTH 461 0
DWIDTH 6 0
BBX 5 5 0 0
BITMAP
F0
D8
F0
D8
D8
ENDCHAR
STARTCHAR U+0053
ENCODING 83
SWIDTH 461 0
DWIDTH 6 0
BBX 5 5 0 0
BITMAP
78
C0
70
18
F0
ENDCHAR
STARTCHAR U+0054
ENCODING 84
SWIDTH 384 0
DWIDTH 5 0
BBX 4 5 0 0
BITMAP
F0
60
60
60
60
ENDCHAR
STARTCHAR U+0055
ENCODING 85
SWIDTH 461 0
DWIDTH 6 0
BBX 5 5 0 0
BITMAP
D8
D8
D8
D8
70
ENDCHAR
STARTCHAR U+0056
ENCODING 86
SWIDTH 461 0
DWIDTH 6 0
BBX 5 5 0 0
BITMAP
D8
D8
D8
70
70
ENDCHAR
STARTCHAR U+0057
ENCODING 87
SWIDTH 615 0
DWIDTH 8 0
BBX 7 5 0 0
BITMAP
C6
D6
D6
7C
6C
ENDCHAR
STARTCHAR U+0058
ENCODING 88
SWIDTH 461 0
DWIDTH 6 0
BBX 5 5 0 0
BITMAP
D8
D8
70
D8
D8
ENDCHAR
STARTCHAR U+0059
ENCODING 89
SWIDTH 538 0
DWIDTH 7 0
BBX 6 5 0 0
BITMAP
CC
78
30
30
30
ENDCHAR
STARTCHAR U+005A
ENCODING 90
SWIDTH 461 0
DWIDTH 6 0
BBX 5 5 0 0
BITMAP
F8
30
60
C0
F8
ENDCHAR
STARTCHAR U+005B
ENCODING 91
SWIDTH 307 0
DWIDTH 4 0
BBX 3 5 0 0
BITMAP
E0
C0
C0
C0
E0
ENDCHAR
STARTCHAR U+005C
ENCODING 92
SWIDTH 230 0
DWIDTH 3 0
BBX 2 5 0 0
BITMAP
80
80
40
40
40
ENDCHAR
STARTCHAR U+005D
ENCODING 93
SWIDTH 307 0
DWIDTH 4 0
BBX 3 5 0 0
BITMAP
E0
60
60
60
E0
ENDCHAR
STARTCHAR U+005E
ENCODING 94
SWIDTH 307 0
DWIDTH 4 0
BBX 3 2 0 3
BITMAP
40
A0
ENDCHAR
STARTCHAR U+005F
ENCODING 95
SWIDTH 384 0
DWIDTH 5 0
BBX 4 1 0 0
BITMAP
F0
ENDCHAR
STARTCHAR U+0060
ENCODING 96
SWIDTH 230 0
DWIDTH 3 0
BBX 2 2 0 3
BITMAP
80
40
ENDCHAR
STARTCHAR U+0061
ENCODING 97
SWIDTH 461 0
DWIDTH 6 0
BBX 5 4 0 0
BITMAP
78
D8
D8
78
ENDCHAR
STARTCHAR U+0062
ENCODING 98
SWIDTH 461 0
DWIDTH 6 0
BBX 5 5 0 0
BITMAP
C0
F0
D8
D8
F0
ENDCHAR
STARTCHAR U+0063
ENCODING 99
SWIDTH 384 0
DWIDTH 5 0
BBX 4 4 0 0
BITMAP
70
C0
C0
70
ENDCHAR
STARTCHAR U+0064
ENCODING 100
SWIDTH 461 0
DWIDTH 6 0
BBX 5 5 0 0
BITMAP
18
78
D8
D8
78
ENDCHAR
STARTCHAR U+0065
ENCODING 101
SWIDTH 461 0
DWIDTH 6 0
BBX 5 4 0 0
BITMAP
70
F8
C0
70
ENDCHAR
STARTCHAR U+0066
ENCODING 102
SWIDTH 307 0
DWIDTH 4 0
BBX 3 5 0 0
BITMAP
60
C0
E0
C0
C0
ENDCHAR
STARTCHAR U+0067
ENCODING 103
SWIDTH 461 0
DWIDTH 6 0
BBX 5 5 0 -1
BITMAP
78
D8
D8
78
F0
ENDCHAR
STARTCHAR U+0068
ENCODING 104
SWIDTH 461 0
DWIDTH 6 0
BBX 5 5 0 0
BITMAP
C0
F0
D8
D8
D8
ENDCHAR
STARTCHAR U+0069
ENCODING 105
SWIDTH 230 0
DWIDTH 3 0
BBX 2 6 0 0
BITMAP
C0
00
C0
C0
C0
C0
ENDCHAR
STARTCHAR U+006A
ENCODING 106
SWIDTH 307 0
DWIDTH 4 0
BBX 3 7 0 -1
BITMAP
60
00
60
60
60
60
C0
ENDCHAR
STARTCHAR U+006B
ENCODING 107
SWIDTH 461 0
DWIDTH 6 0
BBX 5 5 0 0
BITMAP
C0
D8
F0
D8
D8
ENDCHAR
STARTCHAR U+006C
ENCODING 108
SWIDTH 230 0
DWIDTH 3 0
BBX 2 5 0 0
BITMAP
C0
C0
C0
C0
C0
ENDCHAR
STARTCHAR U+006D
ENCODING 109
SWIDTH 692 0
DWIDTH 9 0
BBX 8 4 0 0
BITMAP
FE
DB
DB
DB
ENDCHAR
STARTCHAR U+006E
ENCODING 110
SWIDTH 461 0
DWIDTH 6 0
BBX 5 4 0 0
BITMAP
F0
D8
D8
D8
ENDCHAR
STARTCHAR U+006F
ENCODING 111
SWIDTH 461 0
DWIDTH 6 0
BBX 5 4 0 0
BITMAP
70
D8
D8
70
ENDCHAR
STARTCHAR U+0070
ENCODING 112
SWIDTH 461 0
DWIDTH 6 0
BBX 5 5 0 -1
BITMAP
F0
D8
D8
F0
C0
ENDCHAR
STARTCHAR U+0071
ENCODING 113
SWIDTH 461 0
DWIDTH 6 0
BBX 5 5 0 -1
BITMAP
78
D8
D8
78
18
ENDCHAR
STARTCHAR U+0072
ENCODING 114
SWIDTH 307 0
DWIDTH 4 0
BBX 3 4 0 0
BITMAP
E0
C0
C0
C0
ENDCHAR
STARTCHAR U+0073
ENCODING 115
SWIDTH 384 0
DWIDTH 5 0
BBX 4 4 0 0
BITMAP
70
E0
30
E0
ENDCHAR
STARTCHAR U+0074
ENCODING 116
SWIDTH 307 0
DWIDTH 4 0
BBX 3 5 0 0
BITMAP
C0
E0
C0
C0
60
ENDCHAR
STARTCHAR U+0075
ENCODING 117
SWIDTH 461 0
DWIDTH 6 0
BBX 5 4 0 0
BITMAP
D8
D8
D8
78
ENDCHAR
STARTCHAR U+0076
ENCODING 118
SWIDTH 461 0
DWIDTH 6 0
BBX 5 4 0 0
BITMAP
D8
D8
70
70
ENDCHAR
STARTCHAR U+0077
ENCODING 119
SWIDTH 615 0
DWIDTH 8 0
BBX 7 4 0 0
BITMAP
C6
D6
7C
6C
ENDCHAR
STARTCHAR U+0078
ENCODING 120
SWIDTH 461 0
DWIDTH 6 0
BBX 5 4 0 0
BITMAP
D8
70
70
D8
ENDCHAR
STARTCHAR U+0079
ENCODING 121
SWIDTH 461 0
DWIDTH 6 0
BBX 5 5 0 -1
BITMAP
D8
D8
D8
70
E0
ENDCHAR
STARTCHAR U+007A
ENCODING 122
SWIDTH 384 0
DWIDTH 5 0
BBX 4 4 0 0
BITMAP
F0
60
C0
F0
ENDCHAR
STARTCHAR U+007B
ENCODING 123
SWIDTH 384 0
DWIDTH 5 0
BBX 4 5 0 0
BITMAP
70
60
C0
60
70
ENDCHAR
STARTCHAR U+007C
ENCODING 124
SWIDTH 153 0
DWIDTH 2 0
BBX 1 5 0 0
BITMAP
80
80
80
80
80
ENDCHAR
STARTCHAR U+007D
ENCODING 125
SWIDTH 384 0
DWIDTH 5 0
BBX 4 5 0 0
BITMAP
E0
60
30
60
E0
ENDCHAR
STARTCHAR U+007E
ENCODING 126
SWIDTH 461 0
DWIDTH 6 0
BBX 5 2 0 1
BITMAP
68
B0
ENDCHAR
STARTCHAR U+00A0
ENCODING 160
SWIDTH 230 0
DWIDTH 3 0
BBX 0 0 0 0
BITMAP
ENDCHAR
STARTCHAR U+00A1
ENCODING 161
SWIDTH 230 0
DWIDTH 3 0
BBX 2 5 0 -1
BITMAP
C0
00
C0
C0
C0
ENDCHAR
STARTCHAR U+00A2
ENCODING 162
SWIDTH 384 0
DWIDTH 5 0
BBX 4 5 0 0
BITMAP
20
70
C0
70
20
ENDCHAR
STARTCHAR U+00A3
ENCODING 163
SWIDTH 538 0
DWIDTH 7 0
BBX 6 5 0 0
BITMAP
38
6C
F0
60
FC
ENDCHAR
STARTCHAR U+00A4
ENCODING 164
SWIDTH 461 0
DWIDTH 6 0
BBX 5 4 0 0
BITMAP
D8
70
70
D8
ENDCHAR
STARTCHAR U+00A5
ENCODING 165
SWIDTH 461 0
DWIDTH 6 0
BBX 5 5 0 0
BITMAP
D8
D8
70
F8
70
ENDCHAR
STARTCHAR U+00A6
ENCODING 166
SWIDTH 153 0
DWIDTH 2 0
BBX 1 5 0 0
BITMAP
80
80
00
80
80
ENDCHAR
STARTCHAR U+00A7
ENCODING 167
SWIDTH 461 0
DWIDTH 6 0
BBX 5 5 0 0
BITMAP
78
E0
D8
38
F0
ENDCHAR
STARTCHAR U+00A8
ENCODING 168
SWIDTH 307 0
DWIDTH 4 0
BBX 3 1 0 4
BITMAP
A0
ENDCHAR
STARTCHAR U+00A9
ENCODING 169
SWIDTH 615 0
DWIDTH 8 0
BBX 7 7 0 -1
BITMAP
38
44
92
A2
92
44
38
ENDCHAR
STARTCHAR U+00AA
ENCODING 170
SWIDTH 307 0
DWIDTH 4 0
BBX 3 3 0 2
BITMAP
60
A0
60
ENDCHAR
STARTCHAR U+00AB
ENCODING 171
SWIDTH 538 0
DWIDTH 7 0
BBX 6 3 0 1
BITMAP
6C
D8
6C
ENDCHAR
STARTCHAR U+00AC
ENCODING 172
SWIDTH 307 0
DWIDTH 4 0
BBX 3 2 0 1
BITMAP
E0
20
ENDCHAR
STARTCHAR U+00AD
ENCODING 173
SWIDTH 384 0
DWIDTH 5 0
BBX 4 1 0 2
BITMAP
F0
ENDCHAR
STARTCHAR U+00AE
ENCODING 174
SWIDTH 615 0
DWIDTH 8 0
BBX 7 7 0 -1
BITMAP
38
44
B2
BA
AA
44
38
ENDCHAR
STARTCHAR U+00AF
ENCODING 175
SWIDTH 384 0
DWIDTH 5 0
BBX 4 1 0 4
BITMAP
F0
ENDCHAR
STARTCHAR U+00B0
ENCODING 176
SWIDTH 307 0
DWIDTH 4 0
BBX 3 3 0 2
BITMAP
40
A0
40
ENDCHAR
STARTCHAR U+00B1
ENCODING 177
SWIDTH 307 0
DWIDTH 4 0
BBX 3 5 0 0
BITMAP
40
E0
40
00
E0
ENDCHAR
STARTCHAR U+00B2
ENCODING 178
SWIDTH 307 0
DWIDTH 4 0
BBX 3 4 0 1
BITMAP
C0
20
40
E0
ENDCHAR
STARTCHAR U+00B3
ENCODING 179
SWIDTH 307 0
DWIDTH 4 0
BBX 3 4 0 1
BITMAP
E0
40
20
C0
ENDCHAR
STARTCHAR U+00B4
ENCODING 180
SWIDTH 230 0
DWIDTH 3 0
BBX 2 2 0 3
BITMAP
40
80
ENDCHAR
STARTCHAR U+00B5
ENCODING 181
SWIDTH 461 0
DWIDTH 6 0
BBX 5 5 0 -1
BITMAP
D8
D8
D8
F8
C0
ENDCHAR
STARTCHAR U+00B6
ENCODING 182
SWIDTH 461 0
DWIDTH 6 0
BBX 5 5 0 0
BITMAP
78
E8
68
28
28
ENDCHAR
STARTCHAR U+00B7
ENCODING 183
SWIDTH 153 0
DWIDTH 2 0
BBX 1 1 0 2
BITMAP
80
ENDCHAR
STARTCHAR U+00B8
ENCODING 184
SWIDTH 153 0
DWIDTH 2 0
BBX 1 1 0 -1
BITMAP
80
ENDCHAR
STARTCHAR U+00B9
ENCODING 185
SWIDTH 230 0
DWIDTH 3 0
BBX 2 4 0 1
BITMAP
40
C0
40
40
ENDCHAR
STARTCHAR U+00BA
ENCODING 186
SWIDTH 307 0
DWIDTH 4 0
BBX 3 3 0 2
BITMAP
40
A0
40
ENDCHAR
STARTCHAR U+00BB
ENCODING 187
SWIDTH 538 0
DWIDTH 7 0
BBX 6 3 0 1
BITMAP
D8
6C
D8
ENDCHAR
STARTCHAR U+00BC
ENCODING 188
SWIDTH 692 0
DWIDTH 9 0
BBX 8 5 0 0
BITMAP
48
C9
53
57
01
ENDCHAR
STARTCHAR U+00BD
ENCODING 189
SWIDTH 769 0
DWIDTH 10 0
BBX 9 5 0 0
BITMAP
4800
CB00
5080
5100
0380
ENDCHAR
STARTCHAR U+00BE
ENCODING 190
SWIDTH 769 0
DWIDTH 10 0
BBX 9 5 0 0
BITMAP
E400
4480
2980
CB80
0080
ENDCHAR
STARTCHAR U+00BF
ENCODING 191
SWIDTH 384 0
DWIDTH 5 0
BBX 4 5 0 -1
BITMAP
60
00
60
C0
70
ENDCHAR
STARTCHAR U+00C0
ENCODING 192
SWIDTH 461 0
DWIDTH 6 0
BBX 5 8 0 0
BITMAP
40
20
00
70
D8
F8
D8
D8
ENDCHAR
STARTCHAR U+00C1
ENCODING 193
SWIDTH 461 0
DWIDTH 6 0
BBX 5 8 0 0
BITMAP
10
20
00
70
D8
F8
D8
D8
ENDCHAR
STARTCHAR U+00C2
ENCODING 194
SWIDTH 461 0
DWIDTH 6 0
BBX 5 8 0 0
BITMAP
20
50
00
70
D8
F8
D8
D8
ENDCHAR
STARTCHAR U+00C3
ENCODING 195
SWIDTH 461 0
DWIDTH 6 0
BBX 5 8 0 0
BITMAP
28
50
00
70
D8
F8
D8
D8
ENDCHAR
STARTCHAR U+00C4
ENCODING 196
SWIDTH 461 0
DWIDTH 6 0
BBX 5 7 0 0
BITMAP
50
00
70
D8
F8
D8
D8
ENDCHAR
STARTCHAR U+00C5
ENCODING 197
SWIDTH 461 0
DWIDTH 6 0
BBX 5 8 0 0
BITMAP
20
50
20
70
D8
F8
D8
D8
ENDCHAR
STARTCHAR U+00C6
ENCODING 198
SWIDTH 615 0
DWIDTH 8 0
BBX 7 5 0 0
BITMAP
7E
D8
FE
D8
DE
ENDCHAR
STARTCHAR U+00C7
ENCODING 199
SWIDTH 461 0
DWIDTH 6 0
BBX 5 6 0 -1
BITMAP
70
D8
C0
D8
70
20
ENDCHAR
STARTCHAR U+00C8
ENCODING 200
SWIDTH 461 0
DWIDTH 6 0
BBX 5 8 0 0
BITMAP
40
20
00
F8
C0
F0
C0
F8
ENDCHAR
STARTCHAR U+00C9
ENCODING 201
SWIDTH 461 0
DWIDTH 6 0
BBX 5 8 0 0
BITMAP
10
20
00
F8
C0
F0
C0
F8
ENDCHAR
STARTCHAR U+00CA
ENCODING 202
SWIDTH 461 0
DWIDTH 6 0
BBX 5 8 0 0
BITMAP
20
50
00
F8
C0
F0
C0
F8
ENDCHAR
STARTCHAR U+00CB
ENCODING 203
SWIDTH 461 0
DWIDTH 6 0
BBX 5 7 0 0
BITMAP
50
00
F8
C0
F0
C0
F8
ENDCHAR
STARTCHAR U+00CC
ENCODING 204
SWIDTH 230 0
DWIDTH 3 0
BBX 2 8 0 0
BITMAP
80
40
00
C0
C0
C0
C0
C0
ENDCHAR
STARTCHAR U+00CD
ENCODING 205
SWIDTH 230 0
DWIDTH 3 0
BBX 2 8 0 0
BITMAP
40
80
00
C0
C0
C0
C0
C0
ENDCHAR
STARTCHAR U+00CE
ENCODING 206
SWIDTH 230 0
DWIDTH 3 0
BBX 3 8 0 0
BITMAP
40
A0
00
C0
C0
C0
C0
C0
ENDCHAR
STARTCHAR U+00CF
ENCODING 207
SWIDTH 230 0
DWIDTH 3 0
BBX 3 7 0 0
BITMAP
A0
00
C0
C0
C0
C0
C0
ENDCHAR
STARTCHAR U+00D0
ENCODING 208
SWIDTH 538 0
DWIDTH 7 0
BBX 6 5 0 0
BITMAP
F8
CC
EC
CC
F8
ENDCHAR
STARTCHAR U+00D1
ENCODING 209
SWIDTH 538 0
DWIDTH 7 0
BBX 6 8 0 0
BITMAP
28
50
00
CC
EC
DC
CC
CC
ENDCHAR
STARTCHAR U+00D2
ENCODING 210
SWIDTH 461 0
DWIDTH 6 0
BBX 5 8 0 0
BITMAP
40
20
00
70
D8
D8
D8
70
ENDCHAR
STARTCHAR U+00D3
ENCODING 211
SWIDTH 461 0
DWIDTH 6 0
BBX 5 8 0 0
BITMAP
10
20
00
70
D8
D8
D8
70
ENDCHAR
STARTCHAR U+00D4
ENCODING 212
SWIDTH 461 0
DWIDTH 6 0
BBX 5 8 0 0
BITMAP
20
50
00
70
D8
D8
D8
70
ENDCHAR
STARTCHAR U+00D5
ENCODING 213
SWIDTH 461 0
DWIDTH 6 0
BBX 5 8 0 0
BITMAP
28
50
00
70
D8
D8
D8
70
ENDCHAR
STARTCHAR U+00D6
ENCODING 214
SWIDTH 461 0
DWIDTH 6 0
BBX 5 7 0 0
BITMAP
50
00
70
D8
D8
D8
70
ENDCHAR
STARTCHAR U+00D7
ENCODING 215
SWIDTH 307 0
DWIDTH 4 0
BBX 3 3 0 1
BITMAP
A0
40
A0
ENDCHAR
STARTCHAR U+00D8
ENCODING 216
SWIDTH 538 0
DWIDTH 7 0
BBX 6 5 0 0
BITMAP
78
DC
EC
CC
78
ENDCHAR
STARTCHAR U+00D9
ENCODING 217
SWIDTH 461 0
DWIDTH 6 0
BBX 5 8 0 0
BITMAP
40
20
00
D8
D8
D8
D8
70
ENDCHAR
STARTCHAR U+00DA
ENCODING 218
SWIDTH 461 0
DWIDTH 6 0
BBX 5 8 0 0
BITMAP
10
20
00
D8
D8
D8
D8
70
ENDCHAR
STARTCHAR U+00DB
ENCODING 219
SWIDTH 461 0
DWIDTH 6 0
BBX 5 8 0 0
BITMAP
20
50
00
D8
D8
D8
D8
70
ENDCHAR
STARTCHAR U+00DC
ENCODING 220
SWIDTH 461 0
DWIDTH 6 0
BBX 5 7 0 0
BITMAP
50
00
D8
D8
D8
D8
70
ENDCHAR
STARTCHAR U+00DD
ENCODING 221
SWIDTH 538 0
DWIDTH 7 0
BBX 6 8 0 0
BITMAP
10
20
00
CC
78
30
30
30
ENDCHAR
STARTCHAR U+00DE
ENCODING 222
SWIDTH 461 0
DWIDTH 6 0
BBX 5 5 0 0
BITMAP
C0
F0
D8
F0
C0
ENDCHAR
STARTCHAR U+00DF
ENCODING 223
SWIDTH 538 0
DWIDTH 7 0
BBX 6 5 0 0
BITMAP
78
CC
D8
CC
D8
ENDCHAR
STARTCHAR U+00E0
ENCODING 224
SWIDTH 461 0
DWIDTH 6 0
BBX 5 7 0 0
BITMAP
40
20
00
78
D8
D8
78
ENDCHAR
STARTCHAR U+00E1
ENCODING 225
SWIDTH 461 0
DWIDTH 6 0
BBX 5 7 0 0
BITMAP
10
20
00
78
D8
D8
78
ENDCHAR
STARTCHAR U+00E2
ENCODING 226
SWIDTH 461 0
DWIDTH 6 0
BBX 5 7 0 0
BITMAP
20
50
00
78
D8
D8
78
ENDCHAR
STARTCHAR U+00E3
ENCODING 227
SWIDTH 461 0
DWIDTH 6 0
BBX 5 7 0 0
BITMAP
28
50
00
78
D8
D8
78
ENDCHAR
STARTCHAR U+00E4
ENCODING 228
SWIDTH 461 0
DWIDTH 6 0
BBX 5 6 0 0
BITMAP
50
00
78
D8
D8
78
ENDCHAR
STARTCHAR U+00E5
ENCODING 229
SWIDTH 461 0
DWIDTH 6 0
BBX 5 7 0 0
BITMAP
20
50
20
78
D8
D8
78
ENDCHAR
STARTCHAR U+00E6
ENCODING 230
SWIDTH 692 0
DWIDTH 9 0
BBX 8 4 0 0
BITMAP
7E
DF
D8
7E
ENDCHAR
STARTCHAR U+00E7
ENCODING 231
SWIDTH 384 0
DWIDTH 5 0
BBX 4 5 0 -1
BITMAP
70
C0
C0
70
20
ENDCHAR
STARTCHAR U+00E8
ENCODING 232
SWIDTH 461 0
DWIDTH 6 0
BBX 5 7 0 0
BITMAP
40
20
00
70
F8
C0
70
ENDCHAR
STARTCHAR U+00E9
ENCODING 233
SWIDTH 461 0
DWIDTH 6 0
BBX 5 7 0 0
BITMAP
10
20
00
70
F8
C0
70
ENDCHAR
STARTCHAR U+00EA
ENCODING 234
SWIDTH 461 0
DWIDTH 6 0
BBX 5 7 0 0
BITMAP
20
50
00
70
F8
C0
70
ENDCHAR
STARTCHAR U+00EB
ENCODING 235
SWIDTH 461 0
DWIDTH 6 0
BBX 5 6 0 0
BITMAP
50
00
70
F8
C0
70
ENDCHAR
STARTCHAR U+00EC
ENCODING 236
SWIDTH 230 0
DWIDTH 3 0
BBX 2 7 0 0
BITMAP
80
40
00
C0
C0
C0
C0
ENDCHAR
STARTCHAR U+00ED
ENCODING 237
SWIDTH 230 0
DWIDTH 3 0
BBX 2 7 0 0
BITMAP
40
80
00
C0
C0
C0
C0
ENDCHAR
STARTCHAR U+00EE
ENCODING 238
SWIDTH 230 0
DWIDTH 3 0
BBX 3 7 0 0
BITMAP
40
A0
00
C0
C0
C0
C0
ENDCHAR
STARTCHAR U+00EF
ENCODING 239
SWIDTH 230 0
DWIDTH 3 0
BBX 3 6 0 0
BITMAP
A0
00
C0
C0
C0
C0
ENDCHAR
STARTCHAR U+00F0
ENCODING 240
SWIDTH 461 0
DWIDTH 6 0
BBX 5 5 0 0
BITMAP
70
18
78
D8
70
ENDCHAR
STARTCHAR U+00F1
ENCODING 241
SWIDTH 461 0
DWIDTH 6 0
BBX 5 7 0 0
BITMAP
28
50
00
F0
D8
D8
D8
ENDCHAR
STARTCHAR U+00F2
ENCODING 242
SWIDTH 461 0
DWIDTH 6 0
BBX 5 7 0 0
BITMAP
40
20
00
70
D8
D8
70
ENDCHAR
STARTCHAR U+00F3
ENCODING 243
SWIDTH 461 0
DWIDTH 6 0
BBX 5 7 0 0
BITMAP
10
20
00
70
D8
D8
70
ENDCHAR
STARTCHAR U+00F4
ENCODING 244
SWIDTH 461 0
DWIDTH 6 0
BBX 5 7 0 0
BITMAP
20
50
00
70
D8
D8
70
ENDCHAR
STARTCHAR U+00F5
ENCODING 245
SWIDTH 461 0
DWIDTH 6 0
BBX 5 7 0 0
BITMAP
28
50
00
70
D8
D8
70
ENDCHAR
STARTCHAR U+00F6
ENCODING 246
SWIDTH 461 0
DWIDTH 6 0
BBX 5 6 0 0
BITMAP
50
00
70
D8
D8
70
ENDCHAR
STARTCHAR U+00F7
ENCODING 247
SWIDTH 461 0
DWIDTH 6 0
BBX 5 5 0 0
BITMAP
20
00
F8
00
20
ENDCHAR
STARTCHAR U+00F8
ENCODING 248
SWIDTH 461 0
DWIDTH 6 0
BBX 5 4 0 0
BITMAP
70
F8
D8
70
ENDCHAR
STARTCHAR U+00F9
ENCODING 249
SWIDTH 461 0
DWIDTH 6 0
BBX 5 7 0 0
BITMAP
40
20
00
D8
D8
D8
78
ENDCHAR
STARTCHAR U+00FA
ENCODING 250
SWIDTH 461 0
DWIDTH 6 0
BBX 5 7 0 0
BITMAP
10
20
00
D8
D8
D8
78
ENDCHAR
STARTCHAR U+00FB
ENCODING 251
SWIDTH 461 0
DWIDTH 6 0
BBX 5 7 0 0
BITMAP
20
50
00
D8
D8
D8
78
ENDCHAR
STARTCHAR U+00FC
ENCODING 252
SWIDTH 461 0
DWIDTH 6 0
BBX 5 6 0 0
BITMAP
50
00
D8
D8
D8
78
ENDCHAR
STARTCHAR U+00FD
ENCODING 253
SWIDTH 461 0
DWIDTH 6 0
BBX 5 8 0 -1
BITMAP
10
20
00
D8
D8
D8
70
E0
ENDCHAR
STARTCHAR U+00FE
ENCODING 254
SWIDTH 461 0
DWIDTH 6 0
BBX 5 6 0 -1
BITMAP
C0
F0
D8
D8
F0
C0
ENDCHAR
STARTCHAR U+00FF
ENCODING 255
SWIDTH 461 0
DWIDTH 6 0
BBX 5 7 0 -1
BITMAP
50
00
D8
D8
D8
70
E0
ENDCHAR
STARTCHAR U+0100
ENCODING 256
SWIDTH 461 0
DWIDTH 6 0
BBX 5 7 0 0
BITMAP
70
00
70
D8
F8
D8
D8
ENDCHAR
STARTCHAR U+0101
ENCODING 257
SWIDTH 461 0
DWIDTH 6 0
BBX 5 6 0 0
BITMAP
70
00
78
D8
D8
78
ENDCHAR
STARTCHAR U+0102
ENCODING 258
SWIDTH 461 0
DWIDTH 6 0
BBX 5 8 0 0
BITMAP
50
20
00
70
D8
F8
D8
D8
ENDCHAR
STARTCHAR U+0103
ENCODING 259
SWIDTH 461 0
DWIDTH 6 0
BBX 5 7 0 0
BITMAP
50
20
00
78
D8
D8
78
ENDCHAR
STARTCHAR U+0104
ENCODING 260
SWIDTH 461 0
DWIDTH 6 0
BBX 5 6 0 -1
BITMAP
70
D8
F8
D8
D8
10
ENDCHAR
STARTCHAR U+0105
ENCODING 261
SWIDTH 461 0
DWIDTH 6 0
BBX 5 5 0 -1
BITMAP
78
D8
D8
78
10
ENDCHAR
STARTCHAR U+0106
ENCODING 262
SWIDTH 461 0
DWIDTH 6 0
BBX 5 8 0 0
BITMAP
10
20
00
70
D8
C0
D8
70
ENDCHAR
STARTCHAR U+0107
ENCODING 263
SWIDTH 384 0
DWIDTH 5 0
BBX 4 7 0 0
BITMAP
20
40
00
70
C0
C0
70
ENDCHAR
STARTCHAR U+0108
ENCODING 264
SWIDTH 461 0
DWIDTH 6 0
BBX 5 8 0 0
BITMAP
20
50
00
70
D8
C0
D8
70
ENDCHAR
STARTCHAR U+0109
ENCODING 265
SWIDTH 384 0
DWIDTH 5 0
BBX 4 7 0 0
BITMAP
20
50
00
70
C0
C0
70
ENDCHAR
STARTCHAR U+010A
ENCODING 266
SWIDTH 461 0
DWIDTH 6 0
BBX 5 7 0 0
BITMAP
20
00
70
D8
C0
D8
70
ENDCHAR
STARTCHAR U+010B
ENCODING 267
SWIDTH 384 0
DWIDTH 5 0
BBX 4 6 0 0
BITMAP
20
00
70
C0
C0
70
ENDCHAR
STARTCHAR U+010C
ENCODING 268
SWIDTH 461 0
DWIDTH 6 0
BBX 5 8 0 0
BITMAP
50
20
00
70
D8
C0
D8
70
ENDCHAR
STARTCHAR U+010D
ENCODING 269
SWIDTH 384 0
DWIDTH 5 0
BBX 4 7 0 0
BITMAP
50
20
00
70
C0
C0
70
ENDCHAR
STARTCHAR U+010E
ENCODING 270
SWIDTH 461 0
DWIDTH 6 0
BBX 5 8 0 0
BITMAP
50
20
00
F0
D8
D8
D8
F0
ENDCHAR
STARTCHAR U+010F
ENCODING 271
SWIDTH 615 0
DWIDTH 8 0
BBX 7 5 0 0
BITMAP
1A
7A
D8
D8
78
ENDCHAR
STARTCHAR U+0110
ENCODING 272
SWIDTH 538 0
DWIDTH 7 0
BBX 6 5 0 0
BITMAP
F8
CC
EC
CC
F8
ENDCHAR
STARTCHAR U+0111
ENCODING 273
SWIDTH 538 0
DWIDTH 7 0
BBX 6 5 0 0
BITMAP
18
7C
D8
D8
78
ENDCHAR
STARTCHAR U+0112
ENCODING 274
SWIDTH 461 0
DWIDTH 6 0
BBX 5 7 0 0
BITMAP
70
00
F8
C0
F0
C0
F8
ENDCHAR
STARTCHAR U+0113
ENCODING 275
SWIDTH 461 0
DWIDTH 6 0
BBX 5 6 0 0
BITMAP
70
00
70
F8
C0
70
ENDCHAR
STARTCHAR U+0114
ENCODING 276
SWIDTH 461 0
DWIDTH 6 0
BBX 5 8 0 0
BITMAP
50
20
00
F8
C0
F0
C0
F8
ENDCHAR
STARTCHAR U+0115
ENCODING 277
SWIDTH 461 0
DWIDTH 6 0
BBX 5 7 0 0
BITMAP
50
20
00
70
F8
C0
70
ENDCHAR
STARTCHAR U+0116
ENCODING 278
SWIDTH 461 0
DWIDTH 6 0
BBX 5 7 0 0
BITMAP
20
00
F8
C0
F0
C0
F8
ENDCHAR
STARTCHAR U+0117
ENCODING 279
SWIDTH 461 0
DWIDTH 6 0
BBX 5 6 0 0
BITMAP
20
00
70
F8
C0
70
ENDCHAR
STARTCHAR U+0118
ENCODING 280
SWIDTH 461 0
DWIDTH 6 0
BBX 5 6 0 -1
BITMAP
F8
C0
F0
C0
F8
10
ENDCHAR
STARTCHAR U+0119
ENCODING 281
SWIDTH 461 0
DWIDTH 6 0
BBX 5 5 0 -1
BITMAP
70
F8
C0
70
20
ENDCHAR
STARTCHAR U+011A
ENCODING 282
SWIDTH 461 0
DWIDTH 6 0
BBX 5 8 0 0
BITMAP
50
20
00
F8
C0
F0
C0
F8
ENDCHAR
STARTCHAR U+011B
ENCODING 283
SWIDTH 461 0
DWIDTH 6 0
BBX 5 7 0 0
BITMAP
50
20
00
70
F8
C0
70
ENDCHAR
STARTCHAR U+011C
ENCODING 284
SWIDTH 461 0
DWIDTH 6 0
BBX 5 8 0 0
BITMAP
20
50
00
78
C0
D8
D8
78
ENDCHAR
STARTCHAR U+011D
ENCODING 285
SWIDTH 461 0
DWIDTH 6 0
BBX 5 8 0 -1
BITMAP
20
50
00
78
D8
D8
78
F0
ENDCHAR
STARTCHAR U+011E
ENCODING 286
SWIDTH 461 0
DWIDTH 6 0
BBX 5 8 0 0
BITMAP
50
20
00
78
C0
D8
D8
78
ENDCHAR
STARTCHAR U+011F
ENCODING 287
SWIDTH 461 0
DWIDTH 6 0
BBX 5 8 0 -1
BITMAP
50
20
00
78
D8
D8
78
F0
ENDCHAR
STARTCHAR U+0120
ENCODING 288
SWIDTH 461 0
DWIDTH 6 0
BBX 5 7 0 0
BITMAP
20
00
78
C0
D8
D8
78
ENDCHAR
STARTCHAR U+0121
ENCODING 289
SWIDTH 461 0
DWIDTH 6 0
BBX 5 7 0 -1
BITMAP
20
00
78
D8
D8
78
F0
ENDCHAR
STARTCHAR U+0122
ENCODING 290
SWIDTH 461 0
DWIDTH 6 0
BBX 5 8 0 -3
BITMAP
78
C0
D8
D8
78
00
20
40
ENDCHAR
STARTCHAR U+0123
ENCODING 291
SWIDTH 461 0
DWIDTH 6 0
BBX 5 8 0 -1
BITMAP
10
20
00
78
D8
D8
78
F0
ENDCHAR
STARTCHAR U+0124
ENCODING 292
SWIDTH 461 0
DWIDTH 6 0
BBX 5 8 0 0
BITMAP
20
50
00
D8
D8
F8
D8
D8
ENDCHAR
STARTCHAR U+0125
ENCODING 293
SWIDTH 461 0
DWIDTH 6 0
BBX 5 8 0 0
BITMAP
20
50
00
C0
F0
D8
D8
D8
ENDCHAR
STARTCHAR U+0126
ENCODING 294
SWIDTH 615 0
DWIDTH 8 0
BBX 7 5 0 0
BITMAP
6C
FE
7C
6C
6C
ENDCHAR
STARTCHAR U+0127
ENCODING 295
SWIDTH 538 0
DWIDTH 7 0
BBX 6 5 0 0
BITMAP
60
F8
6C
6C
6C
ENDCHAR
STARTCHAR U+0128
ENCODING 296
SWIDTH 230 0
DWIDTH 3 0
BBX 4 8 -1 0
BITMAP
50
A0
00
60
60
60
60
60
ENDCHAR
STARTCHAR U+0129
ENCODING 297
SWIDTH 230 0
DWIDTH 3 0
BBX 4 7 -1 0
BITMAP
50
A0
00
60
60
60
60
ENDCHAR
STARTCHAR U+012A
ENCODING 298
SWIDTH 230 0
DWIDTH 3 0
BBX 3 7 0 0
BITMAP
E0
00
C0
C0
C0
C0
C0
ENDCHAR
STARTCHAR U+012B
ENCODING 299
SWIDTH 230 0
DWIDTH 3 0
BBX 3 6 0 0
BITMAP
E0
00
C0
C0
C0
C0
ENDCHAR
STARTCHAR U+012C
ENCODING 300
SWIDTH 230 0
DWIDTH 3 0
BBX 3 8 0 0
BITMAP
A0
40
00
C0
C0
C0
C0
C0
ENDCHAR
STARTCHAR U+012D
ENCODING 301
SWIDTH 230 0
DWIDTH 3 0
BBX 3 7 0 0
BITMAP
A0
40
00
C0
C0
C0
C0
ENDCHAR
STARTCHAR U+012E
ENCODING 302
SWIDTH 230 0
DWIDTH 3 0
BBX 2 6 0 -1
BITMAP
C0
C0
C0
C0
C0
80
ENDCHAR
STARTCHAR U+012F
ENCODING 303
SWIDTH 230 0
DWIDTH 3 0
BBX 2 7 0 -1
BITMAP
C0
00
C0
C0
C0
C0
80
ENDCHAR
STARTCHAR U+0130
ENCODING 304
SWIDTH 230 0
DWIDTH 3 0
BBX 2 7 0 0
BITMAP
C0
00
C0
C0
C0
C0
C0
ENDCHAR
STARTCHAR U+0131
ENCODING 305
SWIDTH 230 0
DWIDTH 3 0
BBX 2 4 0 0
BITMAP
C0
C0
C0
C0
ENDCHAR
STARTCHAR U+0132
ENCODING 306
SWIDTH 692 0
DWIDTH 9 0
BBX 8 5 0 0
BITMAP
C3
C3
C3
DB
CE
ENDCHAR
STARTCHAR U+0133
ENCODING 307
SWIDTH 538 0
DWIDTH 7 0
BBX 6 7 0 -1
BITMAP
CC
00
CC
CC
CC
CC
18
ENDCHAR
STARTCHAR U+0134
ENCODING 308
SWIDTH 461 0
DWIDTH 6 0
BBX 5 8 0 0
BITMAP
20
50
00
18
18
18
D8
70
ENDCHAR
STARTCHAR U+0135
ENCODING 309
SWIDTH 307 0
DWIDTH 4 0
BBX 3 8 0 -1
BITMAP
40
A0
00
60
60
60
60
C0
ENDCHAR
STARTCHAR U+0136
ENCODING 310
SWIDTH 461 0
DWIDTH 6 0
BBX 5 8 0 -3
BITMAP
D8
F0
E0
F0
D8
00
20
40
ENDCHAR
STARTCHAR U+0137
ENCODING 311
SWIDTH 461 0
DWIDTH 6 0
BBX 5 8 0 -3
BITMAP
C0
D8
F0
D8
D8
00
20
40
ENDCHAR
STARTCHAR U+0138
ENCODING 312
SWIDTH 461 0
DWIDTH 6 0
BBX 5 4 0 0
BITMAP
D8
F0
D8
D8
ENDCHAR
STARTCHAR U+0139
ENCODING 313
SWIDTH 461 0
DWIDTH 6 0
BBX 5 8 0 0
BITMAP
20
40
00
C0
C0
C0
C0
F8
ENDCHAR
STARTCHAR U+013A
ENCODING 314
SWIDTH 230 0
DWIDTH 3 0
BBX 2 8 0 0
BITMAP
40
80
00
C0
C0
C0
C0
C0
ENDCHAR
STARTCHAR U+013B
ENCODING 315
SWIDTH 461 0
DWIDTH 6 0
BBX 5 8 0 -3
BITMAP
C0
C0
C0
C0
F8
00
20
40
ENDCHAR
STARTCHAR U+013C
ENCODING 316
SWIDTH 230 0
DWIDTH 3 0
BBX 2 8 0 -3
BITMAP
C0
C0
C0
C0
C0
00
40
80
ENDCHAR
STARTCHAR U+013D
ENCODING 317
SWIDTH 461 0
DWIDTH 6 0
BBX 5 5 0 0
BITMAP
C8
C8
C0
C0
F8
ENDCHAR
STARTCHAR U+013E
ENCODING 318
SWIDTH 384 0
DWIDTH 5 0
BBX 4 5 0 0
BITMAP
D0
D0
C0
C0
C0
ENDCHAR
STARTCHAR U+0141
ENCODING 321
SWIDTH 538 0
DWIDTH 7 0
BBX 6 5 0 0
BITMAP
60
70
E0
60
7C
ENDCHAR
STARTCHAR U+0142
ENCODING 322
SWIDTH 384 0
DWIDTH 5 0
BBX 4 5 0 0
BITMAP
60
70
E0
60
60
ENDCHAR
STARTCHAR U+0143
ENCODING 323
SWIDTH 538 0
DWIDTH 7 0
BBX 6 8 0 0
BITMAP
10
20
00
CC
EC
DC
CC
CC
ENDCHAR
STARTCHAR U+0144
ENCODING 324
SWIDTH 461 0
DWIDTH 6 0
BBX 5 7 0 0
BITMAP
10
20
00
F0
D8
D8
D8
ENDCHAR
STARTCHAR U+0145
ENCODING 325
SWIDTH 538 0
DWIDTH 7 0
BBX 6 8 0 -3
BITMAP
CC
EC
DC
CC
CC
00
10
20
ENDCHAR
STARTCHAR U+0146
ENCODING 326
SWIDTH 461 0
DWIDTH 6 0
BBX 5 7 0 -3
BITMAP
F0
D8
D8
D8
00
20
40
ENDCHAR
STARTCHAR U+0147
ENCODING 327
SWIDTH 538 0
DWIDTH 7 0
BBX 6 8 0 0
BITMAP
28
10
00
CC
EC
DC
CC
CC
ENDCHAR
STARTCHAR U+0148
ENCODING 328
SWIDTH 461 0
DWIDTH 6 0
BBX 5 7 0 0
BITMAP
50
20
00
F0
D8
D8
D8
ENDCHAR
STARTCHAR U+014A
ENCODING 330
SWIDTH 538 0
DWIDTH 7 0
BBX 6 7 0 -2
BITMAP
CC
EC
DC
CC
CC
0C
18
ENDCHAR
STARTCHAR U+014B
ENCODING 331
SWIDTH 461 0
DWIDTH 6 0
BBX 5 6 0 -2
BITMAP
F0
D8
D8
D8
18
30
ENDCHAR
STARTCHAR U+014C
ENCODING 332
SWIDTH 461 0
DWIDTH 6 0
BBX 5 7 0 0
BITMAP
70
00
70
D8
D8
D8
70
ENDCHAR
STARTCHAR U+014D
ENCODING 333
SWIDTH 461 0
DWIDTH 6 0
BBX 5 6 0 0
BITMAP
70
00
70
D8
D8
70
ENDCHAR
STARTCHAR U+014E
ENCODING 334
SWIDTH 461 0
DWIDTH 6 0
BBX 5 8 0 0
BITMAP
50
20
00
70
D8
D8
D8
70
ENDCHAR
STARTCHAR U+014F
ENCODING 335
SWIDTH 461 0
DWIDTH 6 0
BBX 5 7 0 0
BITMAP
50
20
00
70
D8
D8
70
ENDCHAR
STARTCHAR U+0150
ENCODING 336
SWIDTH 461 0
DWIDTH 6 0
BBX 5 8 0 0
BITMAP
28
50
00
70
D8
D8
D8
70
ENDCHAR
STARTCHAR U+0151
ENCODING 337
SWIDTH 461 0
DWIDTH 6 0
BBX 5 7 0 0
BITMAP
28
50
00
70
D8
D8
70
ENDCHAR
STARTCHAR U+0152
ENCODING 338
SWIDTH 615 0
DWIDTH 8 0
BBX 7 5 0 0
BITMAP
7E
D8
DE
D8
7E
ENDCHAR
STARTCHAR U+0153
ENCODING 339
SWIDTH 692 0
DWIDTH 9 0
BBX 8 4 0 0
BITMAP
76
DF
DC
76
ENDCHAR
STARTCHAR U+0154
ENCODING 340
SWIDTH 461 0
DWIDTH 6 0
BBX 5 8 0 0
BITMAP
10
20
00
F0
D8
F0
D8
D8
ENDCHAR
STARTCHAR U+0155
ENCODING 341
SWIDTH 307 0
DWIDTH 4 0
BBX 3 7 0 0
BITMAP
20
40
00
E0
C0
C0
C0
ENDCHAR
STARTCHAR U+0156
ENCODING 342
SWIDTH 461 0
DWIDTH 6 0
BBX 5 8 0 -3
BITMAP
F0
D8
F0
D8
D8
00
20
40
ENDCHAR
STARTCHAR U+0157
ENCODING 343
SWIDTH 307 0
DWIDTH 4 0
BBX 3 7 0 -3
BITMAP
E0
C0
C0
C0
00
40
80
ENDCHAR
STARTCHAR U+0158
ENCODING 344
SWIDTH 461 0
DWIDTH 6 0
BBX 5 8 0 0
BITMAP
50
20
00
F0
D8
F0
D8
D8
ENDCHAR
STARTCHAR U+0159
ENCODING 345
SWIDTH 307 0
DWIDTH 4 0
BBX 3 7 0 0
BITMAP
A0
40
00
E0
C0
C0
C0
ENDCHAR
STARTCHAR U+015A
ENCODING 346
SWIDTH 461 0
DWIDTH 6 0
BBX 5 8 0 0
BITMAP
10
20
00
78
C0
70
18
F0
ENDCHAR
STARTCHAR U+015B
ENCODING 347
SWIDTH 384 0
DWIDTH 5 0
BBX 4 7 0 0
BITMAP
10
20
00
70
E0
30
E0
ENDCHAR
STARTCHAR U+015C
ENCODING 348
SWIDTH 461 0
DWIDTH 6 0
BBX 5 8 0 0
BITMAP
20
50
00
78
C0
70
18
F0
ENDCHAR
STARTCHAR U+015D
ENCODING 349
SWIDTH 384 0
DWIDTH 5 0
BBX 4 7 0 0
BITMAP
20
50
00
70
E0
30
E0
ENDCHAR
STARTCHAR U+015E
ENCODING 350
SWIDTH 461 0
DWIDTH 6 0
BBX 5 6 0 -1
BITMAP
78
C0
70
18
F0
20
ENDCHAR
STARTCHAR U+015F
ENCODING 351
SWIDTH 384 0
DWIDTH 5 0
BBX 4 5 0 -1
BITMAP
70
E0
30
E0
40
ENDCHAR
STARTCHAR U+0160
ENCODING 352
SWIDTH 461 0
DWIDTH 6 0
BBX 5 8 0 0
BITMAP
50
20
00
78
C0
70
18
F0
ENDCHAR
STARTCHAR U+0161
ENCODING 353
SWIDTH 384 0
DWIDTH 5 0
BBX 4 7 0 0
BITMAP
50
20
00
70
E0
30
E0
ENDCHAR
STARTCHAR U+0162
ENCODING 354
SWIDTH 384 0
DWIDTH 5 0
BBX 4 6 0 -1
BITMAP
F0
60
60
60
60
40
ENDCHAR
STARTCHAR U+0163
ENCODING 355
SWIDTH 307 0
DWIDTH 4 0
BBX 3 6 0 -1
BITMAP
C0
E0
C0
C0
60
40
ENDCHAR
STARTCHAR U+0164
ENCODING 356
SWIDTH 384 0
DWIDTH 5 0
BBX 4 8 0 0
BITMAP
50
20
00
F0
60
60
60
60
ENDCHAR
STARTCHAR U+0165
ENCODING 357
SWIDTH 461 0
DWIDTH 6 0
BBX 5 5 0 0
BITMAP
C8
E8
C0
C0
60
ENDCHAR
STARTCHAR U+0166
ENCODING 358
SWIDTH 384 0
DWIDTH 5 0
BBX 4 5 0 0
BITMAP
F0
60
F0
60
60
ENDCHAR
STARTCHAR U+0167
ENCODING 359
SWIDTH 307 0
DWIDTH 4 0
BBX 3 5 0 0
BITMAP
C0
E0
E0
C0
60
ENDCHAR
STARTCHAR U+0168
ENCODING 360
SWIDTH 461 0
DWIDTH 6 0
BBX 5 8 0 0
BITMAP
28
50
00
D8
D8
D8
D8
70
ENDCHAR
STARTCHAR U+0169
ENCODING 361
SWIDTH 461 0
DWIDTH 6 0
BBX 5 7 0 0
BITMAP
28
50
00
D8
D8
D8
78
ENDCHAR
STARTCHAR U+016A
ENCODING 362
SWIDTH 461 0
DWIDTH 6 0
BBX 5 7 0 0
BITMAP
70
00
D8
D8
D8
D8
70
ENDCHAR
STARTCHAR U+016B
ENCODING 363
SWIDTH 461 0
DWIDTH 6 0
BBX 5 6 0 0
BITMAP
70
00
D8
D8
D8
78
ENDCHAR
STARTCHAR U+016C
ENCODING 364
SWIDTH 461 0
DWIDTH 6 0
BBX 5 8 0 0
BITMAP
50
20
00
D8
D8
D8
D8
70
ENDCHAR
STARTCHAR U+016D
ENCODING 365
SWIDTH 461 0
DWIDTH 6 0
BBX 5 7 0 0
BITMAP
50
20
00
D8
D8
D8
78
ENDCHAR
STARTCHAR U+016E
ENCODING 366
SWIDTH 461 0
DWIDTH 6 0
BBX 5 9 0 0
BITMAP
20
50
20
00
D8
D8
D8
D8
70
ENDCHAR
STARTCHAR U+016F
ENCODING 367
SWIDTH 461 0
DWIDTH 6 0
BBX 5 8 0 0
BITMAP
20
50
20
00
D8
D8
D8
78
ENDCHAR
STARTCHAR U+0170
ENCODING 368
SWIDTH 461 0
DWIDTH 6 0
BBX 5 8 0 0
BITMAP
28
50
00
D8
D8
D8
D8
70
ENDCHAR
STARTCHAR U+0171
ENCODING 369
SWIDTH 461 0
DWIDTH 6 0
BBX 5 7 0 0
BITMAP
28
50
00
D8
D8
D8
78
ENDCHAR
STARTCHAR U+0172
ENCODING 370
SWIDTH 461 0
DWIDTH 6 0
BBX 5 6 0 -1
BITMAP
D8
D8
D8
D8
70
20
ENDCHAR
STARTCHAR U+0173
ENCODING 371
SWIDTH 461 0
DWIDTH 6 0
BBX 5 5 0 -1
BITMAP
D8
D8
D8
78
10
ENDCHAR
STARTCHAR U+0174
ENCODING 372
SWIDTH 615 0
DWIDTH 8 0
BBX 7 8 0 0
BITMAP
10
28
00
C6
D6
D6
7C
6C
ENDCHAR
STARTCHAR U+0175
ENCODING 373
SWIDTH 615 0
DWIDTH 8 0
BBX 7 7 0 0
BITMAP
10
28
00
C6
D6
7C
6C
ENDCHAR
STARTCHAR U+0176
ENCODING 374
SWIDTH 538 0
DWIDTH 7 0
BBX 6 8 0 0
BITMAP
10
28
00
CC
78
30
30
30
ENDCHAR
STARTCHAR U+0177
ENCODING 375
SWIDTH 461 0
DWIDTH 6 0
BBX 5 8 0 -1
BITMAP
20
50
00
D8
D8
D8
70
E0
ENDCHAR
STARTCHAR U+0178
ENCODING 376
SWIDTH 538 0
DWIDTH 7 0
BBX 6 7 0 0
BITMAP
28
00
CC
78
30
30
30
ENDCHAR
STARTCHAR U+0179
ENCODING 377
SWIDTH 461 0
DWIDTH 6 0
BBX 5 8 0 0
BITMAP
10
20
00
F8
30
60
C0
F8
ENDCHAR
STARTCHAR U+017A
ENCODING 378
SWIDTH 384 0
DWIDTH 5 0
BBX 4 7 0 0
BITMAP
20
40
00
F0
60
C0
F0
ENDCHAR
STARTCHAR U+017B
ENCODING 379
SWIDTH 461 0
DWIDTH 6 0
BBX 5 7 0 0
BITMAP
20
00
F8
30
60
C0
F8
ENDCHAR
STARTCHAR U+017C
ENCODING 380
SWIDTH 384 0
DWIDTH 5 0
BBX 4 6 0 0
BITMAP
20
00
F0
60
C0
F0
ENDCHAR
STARTCHAR U+017D
ENCODING 381
SWIDTH 461 0
DWIDTH 6 0
BBX 5 8 0 0
BITMAP
50
20
00
F8
30
60
C0
F8
ENDCHAR
STARTCHAR U+017E
ENCODING 382
SWIDTH 384 0
DWIDTH 5 0
BBX 4 7 0 0
BITMAP
50
20
00
F0
60
C0
F0
ENDCHAR
STARTCHAR U+0181
ENCODING 385
SWIDTH 538 0
DWIDTH 7 0
BBX 6 5 0 0
BITMAP
F8
6C
78
6C
78
ENDCHAR
STARTCHAR U+0182
ENCODING 386
SWIDTH 461 0
DWIDTH 6 0
BBX 5 5 0 0
BITMAP
F8
C0
F0
D8
F0
ENDCHAR
STARTCHAR U+0183
ENCODING 387
SWIDTH 461 0
DWIDTH 6 0
BBX 5 5 0 0
BITMAP
F0
C0
F0
D8
F0
ENDCHAR
STARTCHAR U+0186
ENCODING 390
SWIDTH 461 0
DWIDTH 6 0
BBX 5 5 0 0
BITMAP
70
D8
18
D8
70
ENDCHAR
STARTCHAR U+0187
ENCODING 391
SWIDTH 538 0
DWIDTH 7 0
BBX 6 6 0 0
BITMAP
0C
78
D8
C0
D8
70
ENDCHAR
STARTCHAR U+0188
ENCODING 392
SWIDTH 461 0
DWIDTH 6 0
BBX 5 5 0 0
BITMAP
18
70
C0
C0
70
ENDCHAR
STARTCHAR U+0189
ENCODING 393
SWIDTH 538 0
DWIDTH 7 0
BBX 6 5 0 0
BITMAP
F8
CC
EC
CC
F8
ENDCHAR
STARTCHAR U+018A
ENCODING 394
SWIDTH 538 0
DWIDTH 7 0
BBX 6 5 0 0
BITMAP
F8
6C
6C
6C
78
ENDCHAR
STARTCHAR U+018E
ENCODING 398
SWIDTH 461 0
DWIDTH 6 0
BBX 5 5 0 0
BITMAP
F8
18
78
18
F8
ENDCHAR
STARTCHAR U+018F
ENCODING 399
SWIDTH 461 0
DWIDTH 6 0
BBX 5 5 0 0
BITMAP
70
18
F8
D8
70
ENDCHAR
STARTCHAR U+0190
ENCODING 400
SWIDTH 461 0
DWIDTH 6 0
BBX 5 5 0 0
BITMAP
78
C0
70
C0
78
ENDCHAR
STARTCHAR U+0191
ENCODING 401
SWIDTH 461 0
DWIDTH 6 0
BBX 6 7 -1 -2
BITMAP
7C
60
78
60
60
60
C0
ENDCHAR
STARTCHAR U+0192
ENCODING 402
SWIDTH 307 0
DWIDTH 4 0
BBX 4 7 -1 -2
BITMAP
30
60
70
60
60
60
C0
ENDCHAR
STARTCHAR U+0193
ENCODING 403
SWIDTH 538 0
DWIDTH 7 0
BBX 6 6 0 0
BITMAP
0C
78
C0
D8
D8
78
ENDCHAR
STARTCHAR U+0194
ENCODING 404
SWIDTH 461 0
DWIDTH 6 0
BBX 5 6 0 -1
BITMAP
D8
D8
70
70
D8
70
ENDCHAR
STARTCHAR U+0196
ENCODING 406
SWIDTH 307 0
DWIDTH 4 0
BBX 3 5 0 0
BITMAP
C0
C0
C0
C0
60
ENDCHAR
STARTCHAR U+0197
ENCODING 407
SWIDTH 384 0
DWIDTH 5 0
BBX 4 5 0 0
BITMAP
60
60
F0
60
60
ENDCHAR
STARTCHAR U+0198
ENCODING 408
SWIDTH 461 0
DWIDTH 6 0
BBX 5 5 0 0
BITMAP
58
F0
E0
F0
D8
ENDCHAR
STARTCHAR U+0199
ENCODING 409
SWIDTH 461 0
DWIDTH 6 0
BBX 5 5 0 0
BITMAP
60
C0
D8
F0
D8
ENDCHAR
STARTCHAR U+019A
ENCODING 410
SWIDTH 384 0
DWIDTH 5 0
BBX 4 5 0 0
BITMAP
60
60
F0
60
60
ENDCHAR
STARTCHAR U+019B
ENCODING 411
SWIDTH 461 0
DWIDTH 6 0
BBX 5 5 0 0
BITMAP
60
38
70
D8
D8
ENDCHAR
STARTCHAR U+019C
ENCODING 412
SWIDTH 692 0
DWIDTH 9 0
BBX 8 5 0 0
BITMAP
DB
DB
DB
DB
7F
ENDCHAR
STARTCHAR U+019D
ENCODING 413
SWIDTH 538 0
DWIDTH 7 0
BBX 7 7 -1 -2
BITMAP
66
76
6E
66
66
60
C0
ENDCHAR
STARTCHAR U+019F
ENCODING 415
SWIDTH 461 0
DWIDTH 6 0
BBX 5 5 0 0
BITMAP
70
D8
F8
D8
70
ENDCHAR
STARTCHAR U+01A0
ENCODING 416
SWIDTH 538 0
DWIDTH 7 0
BBX 6 5 0 0
BITMAP
74
DC
D8
D8
70
ENDCHAR
STARTCHAR U+01A1
ENCODING 417
SWIDTH 538 0
DWIDTH 7 0
BBX 6 4 0 0
BITMAP
74
DC
D8
70
ENDCHAR
STARTCHAR U+01A4
ENCODING 420
SWIDTH 538 0
DWIDTH 7 0
BBX 6 5 0 0
BITMAP
F8
6C
78
60
60
ENDCHAR
STARTCHAR U+01A5
ENCODING 421
SWIDTH 461 0
DWIDTH 6 0
BBX 5 6 0 -1
BITMAP
60
F0
D8
D8
F0
C0
ENDCHAR
STARTCHAR U+01A9
ENCODING 425
SWIDTH 461 0
DWIDTH 6 0
BBX 5 5 0 0
BITMAP
F8
60
30
60
F8
ENDCHAR
STARTCHAR U+01AC
ENCODING 428
SWIDTH 461 0
DWIDTH 6 0
BBX 5 5 0 0
BITMAP
78
F0
30
30
30
ENDCHAR
STARTCHAR U+01AD
ENCODING 429
SWIDTH 307 0
DWIDTH 4 0
BBX 3 5 0 0
BITMAP
E0
E0
C0
C0
60
ENDCHAR
STARTCHAR U+01AE
ENCODING 430
SWIDTH 384 0
DWIDTH 5 0
BBX 4 7 0 -2
BITMAP
F0
60
60
60
60
60
30
ENDCHAR
STARTCHAR U+01AF
ENCODING 431
SWIDTH 538 0
DWIDTH 7 0
BBX 6 6 0 0
BITMAP
04
DC
D8
D8
D8
70
ENDCHAR
STARTCHAR U+01B0
ENCODING 432
SWIDTH 538 0
DWIDTH 7 0
BBX 6 5 0 0
BITMAP
04
DC
D8
D8
78
ENDCHAR
STARTCHAR U+01B1
ENCODING 433
SWIDTH 461 0
DWIDTH 6 0
BBX 5 5 0 0
BITMAP
D8
50
D8
D8
70
ENDCHAR
STARTCHAR U+01B2
ENCODING 434
SWIDTH 461 0
DWIDTH 6 0
BBX 5 5 0 0
BITMAP
D0
D8
D8
D8
70
ENDCHAR
STARTCHAR U+01B3
ENCODING 435
SWIDTH 615 0
DWIDTH 8 0
BBX 7 5 0 0
BITMAP
CE
78
30
30
30
ENDCHAR
STARTCHAR U+01B4
ENCODING 436
SWIDTH 538 0
DWIDTH 7 0
BBX 6 5 0 -1
BITMAP
DC
D8
D8
70
E0
ENDCHAR
STARTCHAR U+01B7
ENCODING 439
SWIDTH 384 0
DWIDTH 5 0
BBX 4 5 0 0
BITMAP
F0
30
60
30
E0
ENDCHAR
STARTCHAR U+01B8
ENCODING 440
SWIDTH 384 0
DWIDTH 5 0
BBX 4 5 0 0
BITMAP
F0
C0
60
C0
70
ENDCHAR
STARTCHAR U+01B9
ENCODING 441
SWIDTH 384 0
DWIDTH 5 0
BBX 4 5 0 -1
BITMAP
F0
C0
60
C0
70
ENDCHAR
STARTCHAR U+01C0
ENCODING 448
SWIDTH 230 0
DWIDTH 3 0
BBX 2 5 0 0
BITMAP
C0
C0
C0
C0
C0
ENDCHAR
STARTCHAR U+01C1
ENCODING 449
SWIDTH 461 0
DWIDTH 6 0
BBX 5 5 0 0
BITMAP
D8
D8
D8
D8
D8
ENDCHAR
STARTCHAR U+01C2
ENCODING 450
SWIDTH 384 0
DWIDTH 5 0
BBX 4 5 0 0
BITMAP
60
F0
60
F0
60
ENDCHAR
STARTCHAR U+01C3
ENCODING 451
SWIDTH 230 0
DWIDTH 3 0
BBX 2 5 0 0
BITMAP
C0
C0
C0
00
C0
ENDCHAR
STARTCHAR U+01CD
ENCODING 461
SWIDTH 461 0
DWIDTH 6 0
BBX 5 8 0 0
BITMAP
50
20
00
70
D8
F8
D8
D8
ENDCHAR
STARTCHAR U+01CE
ENCODING 462
SWIDTH 461 0
DWIDTH 6 0
BBX 5 7 0 0
BITMAP
50
20
00
78
D8
D8
78
ENDCHAR
STARTCHAR U+01CF
ENCODING 463
SWIDTH 230 0
DWIDTH 3 0
BBX 3 8 0 0
BITMAP
A0
40
00
C0
C0
C0
C0
C0
ENDCHAR
STARTCHAR U+01D0
ENCODING 464
SWIDTH 230 0
DWIDTH 3 0
BBX 3 7 0 0
BITMAP
A0
40
00
C0
C0
C0
C0
ENDCHAR
STARTCHAR U+01D1
ENCODING 465
SWIDTH 461 0
DWIDTH 6 0
BBX 5 8 0 0
BITMAP
50
20
00
70
D8
D8
D8
70
ENDCHAR
STARTCHAR U+01D2
ENCODING 466
SWIDTH 461 0
DWIDTH 6 0
BBX 5 7 0 0
BITMAP
50
20
00
70
D8
D8
70
ENDCHAR
STARTCHAR U+01D3
ENCODING 467
SWIDTH 461 0
DWIDTH 6 0
BBX 5 8 0 0
BITMAP
50
20
00
D8
D8
D8
D8
70
ENDCHAR
STARTCHAR U+01D4
ENCODING 468
SWIDTH 461 0
DWIDTH 6 0
BBX 5 7 0 0
BITMAP
50
20
00
D8
D8
D8
78
ENDCHAR
STARTCHAR U+01D7
ENCODING 471
SWIDTH 461 0
DWIDTH 6 0
BBX 5 10 0 0
BITMAP
10
20
00
50
00
D8
D8
D8
D8
70
ENDCHAR
STARTCHAR U+01D8
ENCODING 472
SWIDTH 461 0
DWIDTH 6 0
BBX 5 9 0 0
BITMAP
10
20
00
50
00
D8
D8
D8
78
ENDCHAR
STARTCHAR U+01DD
ENCODING 477
SWIDTH 461 0
DWIDTH 6 0
BBX 5 4 0 0
BITMAP
70
18
F8
70
ENDCHAR
STARTCHAR U+01E2
ENCODING 482
SWIDTH 615 0
DWIDTH 8 0
BBX 7 7 0 0
BITMAP
38
00
7E
D8
FE
D8
DE
ENDCHAR
STARTCHAR U+01E3
ENCODING 483
SWIDTH 692 0
DWIDTH 9 0
BBX 8 6 0 0
BITMAP
3C
00
7E
DF
D8
7E
ENDCHAR
STARTCHAR U+01E4
ENCODING 484
SWIDTH 538 0
DWIDTH 7 0
BBX 6 5 0 0
BITMAP
78
C0
D8
DC
78
ENDCHAR
STARTCHAR U+01E5
ENCODING 485
SWIDTH 538 0
DWIDTH 7 0
BBX 6 5 0 -1
BITMAP
78
D8
D8
7C
F0
ENDCHAR
STARTCHAR U+01E6
ENCODING 486
SWIDTH 461 0
DWIDTH 6 0
BBX 5 8 0 0
BITMAP
50
20
00
78
C0
D8
D8
78
ENDCHAR
STARTCHAR U+01E7
ENCODING 487
SWIDTH 461 0
DWIDTH 6 0
BBX 5 8 0 -1
BITMAP
50
20
00
78
D8
D8
78
F0
ENDCHAR
STARTCHAR U+01E8
ENCODING 488
SWIDTH 461 0
DWIDTH 6 0
BBX 5 8 0 0
BITMAP
50
20
00
D8
F0
E0
F0
D8
ENDCHAR
STARTCHAR U+01E9
ENCODING 489
SWIDTH 461 0
DWIDTH 6 0
BBX 5 8 0 0
BITMAP
50
20
00
C0
D8
F0
D8
D8
ENDCHAR
STARTCHAR U+01EA
ENCODING 490
SWIDTH 461 0
DWIDTH 6 0
BBX 5 6 0 -1
BITMAP
70
D8
D8
D8
70
20
ENDCHAR
STARTCHAR U+01EB
ENCODING 491
SWIDTH 461 0
DWIDTH 6 0
BBX 5 5 0 -1
BITMAP
70
D8
D8
70
20
ENDCHAR
STARTCHAR U+01EC
ENCODING 492
SWIDTH 461 0
DWIDTH 6 0
BBX 5 8 0 -1
BITMAP
70
00
70
D8
D8
D8
70
20
ENDCHAR
STARTCHAR U+01ED
ENCODING 493
SWIDTH 461 0
DWIDTH 6 0
BBX 5 7 0 -1
BITMAP
70
00
70
D8
D8
70
20
ENDCHAR
STARTCHAR U+01EE
ENCODING 494
SWIDTH 384 0
DWIDTH 5 0
BBX 4 8 0 0
BITMAP
50
20
00
F0
30
60
30
E0
ENDCHAR
STARTCHAR U+01EF
ENCODING 495
SWIDTH 384 0
DWIDTH 5 0
BBX 4 8 0 -1
BITMAP
50
20
00
F0
30
60
30
E0
ENDCHAR
STARTCHAR U+01F0
ENCODING 496
SWIDTH 307 0
DWIDTH 4 0
BBX 3 8 0 -1
BITMAP
A0
40
00
60
60
60
60
C0
ENDCHAR
STARTCHAR U+01F4
ENCODING 500
SWIDTH 461 0
DWIDTH 6 0
BBX 5 8 0 0
BITMAP
10
20
00
78
C0
D8
D8
78
ENDCHAR
STARTCHAR U+01F5
ENCODING 501
SWIDTH 461 0
DWIDTH 6 0
BBX 5 8 0 -1
BITMAP
10
20
00
78
D8
D8
78
F0
ENDCHAR
STARTCHAR U+01F8
ENCODING 504
SWIDTH 538 0
DWIDTH 7 0
BBX 6 8 0 0
BITMAP
20
10
00
CC
EC
DC
CC
CC
ENDCHAR
STARTCHAR U+01F9
ENCODING 505
SWIDTH 461 0
DWIDTH 6 0
BBX 5 7 0 0
BITMAP
40
20
00
F0
D8
D8
D8
ENDCHAR
STARTCHAR U+01FC
ENCODING 508
SWIDTH 615 0
DWIDTH 8 0
BBX 7 8 0 0
BITMAP
08
10
00
7E
D8
FE
D8
DE
ENDCHAR
STARTCHAR U+01FD
ENCODING 509
SWIDTH 692 0
DWIDTH 9 0
BBX 8 7 0 0
BITMAP
08
10
00
7E
DF
D8
7E
ENDCHAR
STARTCHAR U+01FE
ENCODING 510
SWIDTH 538 0
DWIDTH 7 0
BBX 6 8 0 0
BITMAP
10
20
00
78
DC
EC
CC
78
ENDCHAR
STARTCHAR U+01FF
ENCODING 511
SWIDTH 461 0
DWIDTH 6 0
BBX 5 7 0 0
BITMAP
10
20
00
70
F8
D8
70
ENDCHAR
STARTCHAR U+0200
ENCODING 512
SWIDTH 461 0
DWIDTH 6 0
BBX 5 8 0 0
BITMAP
A0
50
00
70
D8
F8
D8
D8
ENDCHAR
STARTCHAR U+0201
ENCODING 513
SWIDTH 461 0
DWIDTH 6 0
BBX 5 7 0 0
BITMAP
A0
50
00
78
D8
D8
78
ENDCHAR
STARTCHAR U+0204
ENCODING 516
SWIDTH 461 0
DWIDTH 6 0
BBX 5 8 0 0
BITMAP
A0
50
00
F8
C0
F0
C0
F8
ENDCHAR
STARTCHAR U+0205
ENCODING 517
SWIDTH 461 0
DWIDTH 6 0
BBX 5 7 0 0
BITMAP
A0
50
00
70
F8
C0
70
ENDCHAR
STARTCHAR U+0208
ENCODING 520
SWIDTH 230 0
DWIDTH 3 0
BBX 4 8 -1 0
BITMAP
A0
50
00
60
60
60
60
60
ENDCHAR
STARTCHAR U+0209
ENCODING 521
SWIDTH 230 0
DWIDTH 3 0
BBX 4 7 -1 0
BITMAP
A0
50
00
60
60
60
60
ENDCHAR
STARTCHAR U+020C
ENCODING 524
SWIDTH 461 0
DWIDTH 6 0
BBX 5 8 0 0
BITMAP
A0
50
00
70
D8
D8
D8
70
ENDCHAR
STARTCHAR U+020D
ENCODING 525
SWIDTH 461 0
DWIDTH 6 0
BBX 5 7 0 0
BITMAP
A0
50
00
70
D8
D8
70
ENDCHAR
STARTCHAR U+0212
ENCODING 530
SWIDTH 461 0
DWIDTH 6 0
BBX 5 8 0 0
BITMAP
20
50
00
F0
D8
F0
D8
D8
ENDCHAR
STARTCHAR U+0213
ENCODING 531
SWIDTH 307 0
DWIDTH 4 0
BBX 3 7 0 0
BITMAP
40
A0
00
E0
C0
C0
C0
ENDCHAR
STARTCHAR U+0214
ENCODING 532
SWIDTH 461 0
DWIDTH 6 0
BBX 5 8 0 0
BITMAP
A0
50
00
D8
D8
D8
D8
70
ENDCHAR
STARTCHAR U+0215
ENCODING 533
SWIDTH 461 0
DWIDTH 6 0
BBX 5 7 0 0
BITMAP
A0
50
00
D8
D8
D8
78
ENDCHAR
STARTCHAR U+0218
ENCODING 536
SWIDTH 461 0
DWIDTH 6 0
BBX 5 8 0 -3
BITMAP
78
C0
70
18
F0
00
20
40
ENDCHAR
STARTCHAR U+0219
ENCODING 537
SWIDTH 384 0
DWIDTH 5 0
BBX 4 7 0 -3
BITMAP
70
E0
30
E0
00
20
40
ENDCHAR
STARTCHAR U+021A
ENCODING 538
SWIDTH 384 0
DWIDTH 5 0
BBX 4 8 0 -3
BITMAP
F0
60
60
60
60
00
20
40
ENDCHAR
STARTCHAR U+021B
ENCODING 539
SWIDTH 307 0
DWIDTH 4 0
BBX 3 8 0 -3
BITMAP
C0
E0
C0
C0
60
00
40
80
ENDCHAR
STARTCHAR U+021E
ENCODING 542
SWIDTH 461 0
DWIDTH 6 0
BBX 5 8 0 0
BITMAP
50
20
00
D8
D8
F8
D8
D8
ENDCHAR
STARTCHAR U+021F
ENCODING 543
SWIDTH 461 0
DWIDTH 6 0
BBX 5 8 0 0
BITMAP
50
20
00
C0
F0
D8
D8
D8
ENDCHAR
STARTCHAR U+0226
ENCODING 550
SWIDTH 461 0
DWIDTH 6 0
BBX 5 7 0 0
BITMAP
20
00
70
D8
F8
D8
D8
ENDCHAR
STARTCHAR U+0227
ENCODING 551
SWIDTH 461 0
DWIDTH 6 0
BBX 5 6 0 0
BITMAP
20
00
78
D8
D8
78
ENDCHAR
STARTCHAR U+0228
ENCODING 552
SWIDTH 461 0
DWIDTH 6 0
BBX 5 6 0 -1
BITMAP
F8
C0
F0
C0
F8
20
ENDCHAR
STARTCHAR U+0229
ENCODING 553
SWIDTH 461 0
DWIDTH 6 0
BBX 5 5 0 -1
BITMAP
70
F8
C0
70
20
ENDCHAR
STARTCHAR U+0232
ENCODING 562
SWIDTH 538 0
DWIDTH 7 0
BBX 6 7 0 0
BITMAP
78
00
CC
78
30
30
30
ENDCHAR
STARTCHAR U+0233
ENCODING 563
SWIDTH 461 0
DWIDTH 6 0
BBX 5 7 0 -1
BITMAP
70
00
D8
D8
D8
70
E0
ENDCHAR
STARTCHAR U+0237
ENCODING 567
SWIDTH 307 0
DWIDTH 4 0
BBX 3 5 0 -1
BITMAP
60
60
60
60
C0
ENDCHAR
STARTCHAR U+023A
ENCODING 570
SWIDTH 461 0
DWIDTH 6 0
BBX 5 7 0 -1
BITMAP
08
70
D8
F8
D8
D8
40
ENDCHAR
STARTCHAR U+023B
ENCODING 571
SWIDTH 461 0
DWIDTH 6 0
BBX 5 7 0 -1
BITMAP
08
70
D8
C0
D8
70
80
ENDCHAR
STARTCHAR U+023C
ENCODING 572
SWIDTH 384 0
DWIDTH 5 0
BBX 4 6 0 -1
BITMAP
10
70
C0
C0
70
80
ENDCHAR
STARTCHAR U+023D
ENCODING 573
SWIDTH 538 0
DWIDTH 7 0
BBX 6 5 0 0
BITMAP
60
60
F0
60
7C
ENDCHAR
STARTCHAR U+023E
ENCODING 574
SWIDTH 384 0
DWIDTH 5 0
BBX 4 7 0 -1
BITMAP
10
F0
60
60
60
60
80
ENDCHAR
STARTCHAR U+0241
ENCODING 577
SWIDTH 384 0
DWIDTH 5 0
BBX 4 5 0 0
BITMAP
E0
30
30
60
60
ENDCHAR
STARTCHAR U+0242
ENCODING 578
SWIDTH 384 0
DWIDTH 5 0
BBX 4 4 0 0
BITMAP
E0
30
60
60
ENDCHAR
STARTCHAR U+0244
ENCODING 580
SWIDTH 615 0
DWIDTH 8 0
BBX 7 5 0 0
BITMAP
6C
6C
FE
6C
38
ENDCHAR
STARTCHAR U+0245
ENCODING 581
SWIDTH 461 0
DWIDTH 6 0
BBX 5 5 0 0
BITMAP
70
70
D8
D8
D8
ENDCHAR
STARTCHAR U+0246
ENCODING 582
SWIDTH 461 0
DWIDTH 6 0
BBX 5 7 0 -1
BITMAP
10
F8
C0
F0
C0
F8
40
ENDCHAR
STARTCHAR U+0247
ENCODING 583
SWIDTH 461 0
DWIDTH 6 0
BBX 5 6 0 -1
BITMAP
10
70
F8
C0
70
40
ENDCHAR
STARTCHAR U+0248
ENCODING 584
SWIDTH 538 0
DWIDTH 7 0
BBX 6 5 0 0
BITMAP
18
3C
18
D8
70
ENDCHAR
STARTCHAR U+0249
ENCODING 585
SWIDTH 384 0
DWIDTH 5 0
BBX 4 7 0 -1
BITMAP
60
00
60
F0
60
60
C0
ENDCHAR
STARTCHAR U+024C
ENCODING 588
SWIDTH 538 0
DWIDTH 7 0
BBX 6 5 0 0
BITMAP
78
6C
F8
6C
6C
ENDCHAR
STARTCHAR U+024D
ENCODING 589
SWIDTH 384 0
DWIDTH 5 0
BBX 4 4 0 0
BITMAP
70
60
F0
60
ENDCHAR
STARTCHAR U+0250
ENCODING 592
SWIDTH 461 0
DWIDTH 6 0
BBX 5 4 0 0
BITMAP
F0
D8
D8
F0
ENDCHAR
STARTCHAR U+0251
ENCODING 593
SWIDTH 461 0
DWIDTH 6 0
BBX 5 4 0 0
BITMAP
78
D8
D8
78
ENDCHAR
STARTCHAR U+0253
ENCODING 595
SWIDTH 461 0
DWIDTH 6 0
BBX 5 5 0 0
BITMAP
E0
F0
D8
D8
F0
ENDCHAR
STARTCHAR U+0254
ENCODING 596
SWIDTH 384 0
DWIDTH 5 0
BBX 4 4 0 0
BITMAP
E0
30
30
E0
ENDCHAR
STARTCHAR U+0256
ENCODING 598
SWIDTH 461 0
DWIDTH 6 0
BBX 6 7 0 -2
BITMAP
18
78
D8
D8
78
18
0C
ENDCHAR
STARTCHAR U+0257
ENCODING 599
SWIDTH 538 0
DWIDTH 7 0
BBX 6 5 0 0
BITMAP
1C
78
D8
D8
78
ENDCHAR
STARTCHAR U+0259
ENCODING 601
SWIDTH 461 0
DWIDTH 6 0
BBX 5 4 0 0
BITMAP
70
18
F8
70
ENDCHAR
STARTCHAR U+025B
ENCODING 603
SWIDTH 384 0
DWIDTH 5 0
BBX 4 4 0 0
BITMAP
70
60
C0
70
ENDCHAR
STARTCHAR U+0260
ENCODING 608
SWIDTH 538 0
DWIDTH 7 0
BBX 6 6 0 -1
BITMAP
0C
78
D8
D8
78
F0
ENDCHAR
STARTCHAR U+0263
ENCODING 611
SWIDTH 461 0
DWIDTH 6 0
BBX 5 5 0 -1
BITMAP
D8
D8
70
D8
70
ENDCHAR
STARTCHAR U+0264
ENCODING 612
SWIDTH 461 0
DWIDTH 6 0
BBX 5 4 0 0
BITMAP
D8
70
D8
70
ENDCHAR
STARTCHAR U+0265
ENCODING 613
SWIDTH 461 0
DWIDTH 6 0
BBX 5 5 0 -1
BITMAP
D8
D8
D8
78
18
ENDCHAR
STARTCHAR U+0266
ENCODING 614
SWIDTH 461 0
DWIDTH 6 0
BBX 5 6 0 0
BITMAP
60
C0
F0
D8
D8
D8
ENDCHAR
STARTCHAR U+0268
ENCODING 616
SWIDTH 384 0
DWIDTH 5 0
BBX 4 6 0 0
BITMAP
60
00
60
F0
60
60
ENDCHAR
STARTCHAR U+0269
ENCODING 617
SWIDTH 307 0
DWIDTH 4 0
BBX 3 4 0 0
BITMAP
C0
C0
C0
60
ENDCHAR
STARTCHAR U+026A
ENCODING 618
SWIDTH 230 0
DWIDTH 3 0
BBX 2 4 0 0
BITMAP
C0
C0
C0
C0
ENDCHAR
STARTCHAR U+026B
ENCODING 619
SWIDTH 384 0
DWIDTH 5 0
BBX 4 5 0 0
BITMAP
60
60
F0
60
60
ENDCHAR
STARTCHAR U+026C
ENCODING 620
SWIDTH 384 0
DWIDTH 5 0
BBX 4 5 0 0
BITMAP
60
E0
F0
60
60
ENDCHAR
STARTCHAR U+026F
ENCODING 623
SWIDTH 692 0
DWIDTH 9 0
BBX 8 4 0 0
BITMAP
DB
DB
DB
7F
ENDCHAR
STARTCHAR U+0272
ENCODING 626
SWIDTH 461 0
DWIDTH 6 0
BBX 6 6 -1 -2
BITMAP
78
6C
6C
6C
60
C0
ENDCHAR
STARTCHAR U+0275
ENCODING 629
SWIDTH 461 0
DWIDTH 6 0
BBX 5 4 0 0
BITMAP
70
F8
D8
70
ENDCHAR
STARTCHAR U+027D
ENCODING 637
SWIDTH 307 0
DWIDTH 4 0
BBX 3 6 0 -2
BITMAP
E0
C0
C0
C0
C0
60
ENDCHAR
STARTCHAR U+0280
ENCODING 640
SWIDTH 461 0
DWIDTH 6 0
BBX 5 4 0 0
BITMAP
F0
D8
F0
D8
ENDCHAR
STARTCHAR U+0283
ENCODING 643
SWIDTH 384 0
DWIDTH 5 0
BBX 4 6 0 -1
BITMAP
30
60
60
60
60
C0
ENDCHAR
STARTCHAR U+0288
ENCODING 648
SWIDTH 307 0
DWIDTH 4 0
BBX 3 7 0 -2
BITMAP
C0
E0
C0
C0
C0
C0
60
ENDCHAR
STARTCHAR U+0289
ENCODING 649
SWIDTH 615 0
DWIDTH 8 0
BBX 7 4 0 0
BITMAP
6C
FE
6C
3C
ENDCHAR
STARTCHAR U+028A
ENCODING 650
SWIDTH 615 0
DWIDTH 8 0
BBX 7 4 0 0
BITMAP
EE
6C
C6
7C
ENDCHAR
STARTCHAR U+028B
ENCODING 651
SWIDTH 461 0
DWIDTH 6 0
BBX 5 4 0 0
BITMAP
D8
D8
D8
70
ENDCHAR
STARTCHAR U+028C
ENCODING 652
SWIDTH 461 0
DWIDTH 6 0
BBX 5 4 0 0
BITMAP
70
70
D8
D8
ENDCHAR
STARTCHAR U+0292
ENCODING 658
SWIDTH 384 0
DWIDTH 5 0
BBX 4 5 0 -1
BITMAP
F0
30
60
30
E0
ENDCHAR
STARTCHAR U+0294
ENCODING 660
SWIDTH 384 0
DWIDTH 5 0
BBX 4 5 0 0
BITMAP
E0
30
30
60
60
ENDCHAR
STARTCHAR U+0295
ENCODING 661
SWIDTH 384 0
DWIDTH 5 0
BBX 4 5 0 0
BITMAP
70
C0
C0
60
60
ENDCHAR
STARTCHAR U+0298
ENCODING 664
SWIDTH 461 0
DWIDTH 6 0
BBX 5 5 0 0
BITMAP
70
D8
F8
D8
70
ENDCHAR
STARTCHAR U+029D
ENCODING 669
SWIDTH 307 0
DWIDTH 4 0
BBX 3 7 0 -1
BITMAP
60
00
60
60
60
E0
C0
ENDCHAR
STARTCHAR U+02B0
ENCODING 688
SWIDTH 307 0
DWIDTH 4 0
BBX 3 4 0 2
BITMAP
80
C0
A0
A0
ENDCHAR
STARTCHAR U+02B7
ENCODING 695
SWIDTH 461 0
DWIDTH 6 0
BBX 5 3 0 2
BITMAP
A8
A8
50
ENDCHAR
STARTCHAR U+02B8
ENCODING 696
SWIDTH 307 0
DWIDTH 4 0
BBX 3 3 0 2
BITMAP
A0
60
C0
ENDCHAR
STARTCHAR U+02B9
ENCODING 697
SWIDTH 230 0
DWIDTH 3 0
BBX 2 2 0 3
BITMAP
40
80
ENDCHAR
STARTCHAR U+02BB
ENCODING 699
SWIDTH 230 0
DWIDTH 3 0
BBX 2 2 0 3
BITMAP
40
80
ENDCHAR
STARTCHAR U+02BC
ENCODING 700
SWIDTH 153 0
DWIDTH 2 0
BBX 1 2 0 3
BITMAP
80
80
ENDCHAR
STARTCHAR U+02C0
ENCODING 704
SWIDTH 230 0
DWIDTH 3 0
BBX 2 3 0 2
BITMAP
80
40
80
ENDCHAR
STARTCHAR U+02C6
ENCODING 710
SWIDTH 384 0
DWIDTH 5 0
BBX 4 2 0 3
BITMAP
60
90
ENDCHAR
STARTCHAR U+02C7
ENCODING 711
SWIDTH 384 0
DWIDTH 5 0
BBX 4 2 0 3
BITMAP
90
60
ENDCHAR
STARTCHAR U+02C8
ENCODING 712
SWIDTH 153 0
DWIDTH 2 0
BBX 1 2 0 3
BITMAP
80
80
ENDCHAR
STARTCHAR U+02C9
ENCODING 713
SWIDTH 384 0
DWIDTH 5 0
BBX 4 1 0 4
BITMAP
F0
ENDCHAR
STARTCHAR U+02CA
ENCODING 714
SWIDTH 230 0
DWIDTH 3 0
BBX 2 2 0 3
BITMAP
40
80
ENDCHAR
STARTCHAR U+02CB
ENCODING 715
SWIDTH 230 0
DWIDTH 3 0
BBX 2 2 0 3
BITMAP
80
40
ENDCHAR
STARTCHAR U+02D7
ENCODING 727
SWIDTH 307 0
DWIDTH 4 0
BBX 3 1 0 2
BITMAP
E0
ENDCHAR
STARTCHAR U+02D8
ENCODING 728
SWIDTH 384 0
DWIDTH 5 0
BBX 4 2 0 3
BITMAP
90
60
ENDCHAR
STARTCHAR U+02D9
ENCODING 729
SWIDTH 230 0
DWIDTH 3 0
BBX 2 1 0 4
BITMAP
C0
ENDCHAR
STARTCHAR U+02DA
ENCODING 730
SWIDTH 384 0
DWIDTH 5 0
BBX 4 3 0 2
BITMAP
60
90
60
ENDCHAR
STARTCHAR U+02DB
ENCODING 731
SWIDTH 153 0
DWIDTH 2 0
BBX 1 1 0 -1
BITMAP
80
ENDCHAR
STARTCHAR U+02DC
ENCODING 732
SWIDTH 384 0
DWIDTH 5 0
BBX 4 2 0 3
BITMAP
50
A0
ENDCHAR
STARTCHAR U+02DD
ENCODING 733
SWIDTH 384 0
DWIDTH 5 0
BBX 4 2 0 3
BITMAP
50
A0
ENDCHAR
STARTCHAR U+02ED
ENCODING 749
SWIDTH 384 0
DWIDTH 5 0
BBX 4 3 0 2
BITMAP
F0
00
F0
ENDCHAR
STARTCHAR U+02EE
ENCODING 750
SWIDTH 307 0
DWIDTH 4 0
BBX 3 2 0 3
BITMAP
A0
A0
ENDCHAR
STARTCHAR U+02F5
ENCODING 757
SWIDTH 384 0
DWIDTH 5 0
BBX 4 2 0 1
BITMAP
A0
50
ENDCHAR
STARTCHAR U+0300
ENCODING 768
SWIDTH 230 0
DWIDTH 3 0
BBX 2 2 0 3
BITMAP
80
40
ENDCHAR
STARTCHAR U+0301
ENCODING 769
SWIDTH 230 0
DWIDTH 3 0
BBX 2 2 0 3
BITMAP
40
80
ENDCHAR
STARTCHAR U+0302
ENCODING 770
SWIDTH 307 0
DWIDTH 4 0
BBX 3 2 0 3
BITMAP
40
A0
ENDCHAR
STARTCHAR U+0303
ENCODING 771
SWIDTH 384 0
DWIDTH 5 0
BBX 4 2 0 3
BITMAP
50
A0
ENDCHAR
STARTCHAR U+0304
ENCODING 772
SWIDTH 307 0
DWIDTH 4 0
BBX 3 1 0 4
BITMAP
E0
ENDCHAR
STARTCHAR U+0306
ENCODING 774
SWIDTH 307 0
DWIDTH 4 0
BBX 3 2 0 3
BITMAP
A0
40
ENDCHAR
STARTCHAR U+0307
ENCODING 775
SWIDTH 153 0
DWIDTH 2 0
BBX 1 1 0 4
BITMAP
80
ENDCHAR
STARTCHAR U+0308
ENCODING 776
SWIDTH 307 0
DWIDTH 4 0
BBX 3 1 0 4
BITMAP
A0
ENDCHAR
STARTCHAR U+0309
ENCODING 777
SWIDTH 230 0
DWIDTH 3 0
BBX 2 2 0 3
BITMAP
C0
40
ENDCHAR
STARTCHAR U+030A
ENCODING 778
SWIDTH 307 0
DWIDTH 4 0
BBX 3 3 0 2
BITMAP
40
A0
40
ENDCHAR
STARTCHAR U+030B
ENCODING 779
SWIDTH 384 0
DWIDTH 5 0
BBX 4 2 0 3
BITMAP
50
A0
ENDCHAR
STARTCHAR U+030C
ENCODING 780
SWIDTH 307 0
DWIDTH 4 0
BBX 3 2 0 3
BITMAP
A0
40
ENDCHAR
STARTCHAR U+030D
ENCODING 781
SWIDTH 153 0
DWIDTH 2 0
BBX 1 2 0 3
BITMAP
80
80
ENDCHAR
STARTCHAR U+030F
ENCODING 783
SWIDTH 384 0
DWIDTH 5 0
BBX 4 2 0 3
BITMAP
A0
50
ENDCHAR
STARTCHAR U+0311
ENCODING 785
SWIDTH 307 0
DWIDTH 4 0
BBX 3 2 0 3
BITMAP
40
A0
ENDCHAR
STARTCHAR U+0313
ENCODING 787
SWIDTH 153 0
DWIDTH 2 0
BBX 1 2 0 3
BITMAP
80
80
ENDCHAR
STARTCHAR U+0314
ENCODING 788
SWIDTH 153 0
DWIDTH 2 0
BBX 1 2 0 3
BITMAP
80
80
ENDCHAR
STARTCHAR U+0315
ENCODING 789
SWIDTH 153 0
DWIDTH 2 0
BBX 1 2 0 3
BITMAP
80
80
ENDCHAR
STARTCHAR U+031B
ENCODING 795
SWIDTH 153 0
DWIDTH 2 0
BBX 1 2 0 3
BITMAP
80
80
ENDCHAR
STARTCHAR U+0323
ENCODING 803
SWIDTH 153 0
DWIDTH 2 0
BBX 1 1 0 0
BITMAP
80
ENDCHAR
STARTCHAR U+0324
ENCODING 804
SWIDTH 307 0
DWIDTH 4 0
BBX 3 1 0 0
BITMAP
A0
ENDCHAR
STARTCHAR U+0325
ENCODING 805
SWIDTH 307 0
DWIDTH 4 0
BBX 3 3 0 0
BITMAP
40
A0
40
ENDCHAR
STARTCHAR U+0326
ENCODING 806
SWIDTH 230 0
DWIDTH 3 0
BBX 2 2 0 0
BITMAP
40
80
ENDCHAR
STARTCHAR U+0327
ENCODING 807
SWIDTH 153 0
DWIDTH 2 0
BBX 1 1 0 0
BITMAP
80
ENDCHAR
STARTCHAR U+0328
ENCODING 808
SWIDTH 153 0
DWIDTH 2 0
BBX 1 1 0 0
BITMAP
80
ENDCHAR
STARTCHAR U+032D
ENCODING 813
SWIDTH 307 0
DWIDTH 4 0
BBX 3 2 0 0
BITMAP
40
A0
ENDCHAR
STARTCHAR U+032E
ENCODING 814
SWIDTH 307 0
DWIDTH 4 0
BBX 3 2 0 0
BITMAP
A0
40
ENDCHAR
STARTCHAR U+032F
ENCODING 815
SWIDTH 307 0
DWIDTH 4 0
BBX 3 2 0 0
BITMAP
40
A0
ENDCHAR
STARTCHAR U+0330
ENCODING 816
SWIDTH 384 0
DWIDTH 5 0
BBX 4 2 0 0
BITMAP
50
A0
ENDCHAR
STARTCHAR U+0331
ENCODING 817
SWIDTH 307 0
DWIDTH 4 0
BBX 3 1 0 0
BITMAP
E0
ENDCHAR
STARTCHAR U+0332
ENCODING 818
SWIDTH 384 0
DWIDTH 5 0
BBX 4 1 0 0
BITMAP
F0
ENDCHAR
STARTCHAR U+0335
ENCODING 821
SWIDTH 230 0
DWIDTH 3 0
BBX 2 1 0 2
BITMAP
C0
ENDCHAR
STARTCHAR U+0342
ENCODING 834
SWIDTH 384 0
DWIDTH 5 0
BBX 4 2 0 3
BITMAP
50
A0
ENDCHAR
STARTCHAR U+0343
ENCODING 835
SWIDTH 153 0
DWIDTH 2 0
BBX 1 2 0 3
BITMAP
80
80
ENDCHAR
STARTCHAR U+0344
ENCODING 836
SWIDTH 307 0
DWIDTH 4 0
BBX 3 4 0 1
BITMAP
A0
00
20
40
ENDCHAR
STARTCHAR U+0345
ENCODING 837
SWIDTH 153 0
DWIDTH 2 0
BBX 1 2 0 0
BITMAP
80
80
ENDCHAR
STARTCHAR U+0359
ENCODING 857
SWIDTH 230 0
DWIDTH 3 0
BBX 2 2 0 0
BITMAP
C0
C0
ENDCHAR
STARTCHAR U+035C
ENCODING 860
SWIDTH 307 0
DWIDTH 4 0
BBX 3 4 0 0
BITMAP
A0
40
A0
40
ENDCHAR
STARTCHAR U+035F
ENCODING 863
SWIDTH 307 0
DWIDTH 4 0
BBX 3 3 0 0
BITMAP
E0
00
E0
ENDCHAR
STARTCHAR U+0374
ENCODING 884
SWIDTH 230 0
DWIDTH 3 0
BBX 2 2 0 3
BITMAP
40
80
ENDCHAR
STARTCHAR U+0375
ENCODING 885
SWIDTH 230 0
DWIDTH 3 0
BBX 2 2 0 -2
BITMAP
40
80
ENDCHAR
STARTCHAR U+037A
ENCODING 890
SWIDTH 153 0
DWIDTH 2 0
BBX 1 2 0 0
BITMAP
80
80
ENDCHAR
STARTCHAR U+037E
ENCODING 894
SWIDTH 307 0
DWIDTH 4 0
BBX 3 5 0 -1
BITMAP
60
00
00
60
C0
ENDCHAR
STARTCHAR U+0384
ENCODING 900
SWIDTH 230 0
DWIDTH 3 0
BBX 2 2 0 3
BITMAP
40
80
ENDCHAR
STARTCHAR U+0385
ENCODING 901
SWIDTH 307 0
DWIDTH 4 0
BBX 3 4 0 1
BITMAP
A0
00
20
40
ENDCHAR
STARTCHAR U+0386
ENCODING 902
SWIDTH 692 0
DWIDTH 9 0
BBX 8 5 0 0
BITMAP
4E
9B
1F
1B
1B
ENDCHAR
STARTCHAR U+0387
ENCODING 903
SWIDTH 153 0
DWIDTH 2 0
BBX 1 1 0 2
BITMAP
80
ENDCHAR
STARTCHAR U+0388
ENCODING 904
SWIDTH 692 0
DWIDTH 9 0
BBX 8 5 0 0
BITMAP
5F
98
1E
18
1F
ENDCHAR
STARTCHAR U+0389
ENCODING 905
SWIDTH 692 0
DWIDTH 9 0
BBX 8 5 0 0
BITMAP
5B
9B
1F
1B
1B
ENDCHAR
STARTCHAR U+038A
ENCODING 906
SWIDTH 461 0
DWIDTH 6 0
BBX 5 5 0 0
BITMAP
58
98
18
18
18
ENDCHAR
STARTCHAR U+038C
ENCODING 908
SWIDTH 692 0
DWIDTH 9 0
BBX 8 5 0 0
BITMAP
4E
9B
1B
1B
0E
ENDCHAR
STARTCHAR U+038E
ENCODING 910
SWIDTH 769 0
DWIDTH 10 0
BBX 9 5 0 0
BITMAP
5980
8F00
0600
0600
0600
ENDCHAR
STARTCHAR U+038F
ENCODING 911
SWIDTH 692 0
DWIDTH 9 0
BBX 8 5 0 0
BITMAP
4E
9B
1B
0A
1B
ENDCHAR
STARTCHAR U+0390
ENCODING 912
SWIDTH 307 0
DWIDTH 4 0
BBX 3 9 0 0
BITMAP
20
40
00
A0
00
C0
C0
C0
60
ENDCHAR
STARTCHAR U+0391
ENCODING 913
SWIDTH 461 0
DWIDTH 6 0
BBX 5 5 0 0
BITMAP
70
D8
F8
D8
D8
ENDCHAR
STARTCHAR U+0392
ENCODING 914
SWIDTH 461 0
DWIDTH 6 0
BBX 5 5 0 0
BITMAP
F0
D8
F0
D8
F0
ENDCHAR
STARTCHAR U+0393
ENCODING 915
SWIDTH 461 0
DWIDTH 6 0
BBX 5 5 0 0
BITMAP
F8
C0
C0
C0
C0
ENDCHAR
STARTCHAR U+0394
ENCODING 916
SWIDTH 538 0
DWIDTH 7 0
BBX 6 5 0 0
BITMAP
30
30
78
48
FC
ENDCHAR
STARTCHAR U+0395
ENCODING 917
SWIDTH 461 0
DWIDTH 6 0
BBX 5 5 0 0
BITMAP
F8
C0
F0
C0
F8
ENDCHAR
STARTCHAR U+0396
ENCODING 918
SWIDTH 461 0
DWIDTH 6 0
BBX 5 5 0 0
BITMAP
F8
30
60
C0
F8
ENDCHAR
STARTCHAR U+0397
ENCODING 919
SWIDTH 461 0
DWIDTH 6 0
BBX 5 5 0 0
BITMAP
D8
D8
F8
D8
D8
ENDCHAR
STARTCHAR U+0398
ENCODING 920
SWIDTH 461 0
DWIDTH 6 0
BBX 5 5 0 0
BITMAP
70
D8
F8
D8
70
ENDCHAR
STARTCHAR U+0399
ENCODING 921
SWIDTH 230 0
DWIDTH 3 0
BBX 2 5 0 0
BITMAP
C0
C0
C0
C0
C0
ENDCHAR
STARTCHAR U+039A
ENCODING 922
SWIDTH 461 0
DWIDTH 6 0
BBX 5 5 0 0
BITMAP
D8
F0
E0
F0
D8
ENDCHAR
STARTCHAR U+039B
ENCODING 923
SWIDTH 461 0
DWIDTH 6 0
BBX 5 5 0 0
BITMAP
70
70
D8
D8
D8
ENDCHAR
STARTCHAR U+039C
ENCODING 924
SWIDTH 615 0
DWIDTH 8 0
BBX 7 5 0 0
BITMAP
C6
EE
D6
C6
C6
ENDCHAR
STARTCHAR U+039D
ENCODING 925
SWIDTH 538 0
DWIDTH 7 0
BBX 6 5 0 0
BITMAP
CC
EC
DC
CC
CC
ENDCHAR
STARTCHAR U+039E
ENCODING 926
SWIDTH 384 0
DWIDTH 5 0
BBX 4 5 0 0
BITMAP
F0
00
60
00
F0
ENDCHAR
STARTCHAR U+039F
ENCODING 927
SWIDTH 461 0
DWIDTH 6 0
BBX 5 5 0 0
BITMAP
70
D8
D8
D8
70
ENDCHAR
STARTCHAR U+03A0
ENCODING 928
SWIDTH 461 0
DWIDTH 6 0
BBX 5 5 0 0
BITMAP
F8
D8
D8
D8
D8
ENDCHAR
STARTCHAR U+03A1
ENCODING 929
SWIDTH 461 0
DWIDTH 6 0
BBX 5 5 0 0
BITMAP
F0
D8
F0
C0
C0
ENDCHAR
STARTCHAR U+03A3
ENCODING 931
SWIDTH 461 0
DWIDTH 6 0
BBX 5 5 0 0
BITMAP
F8
60
30
60
F8
ENDCHAR
STARTCHAR U+03A4
ENCODING 932
SWIDTH 384 0
DWIDTH 5 0
BBX 4 5 0 0
BITMAP
F0
60
60
60
60
ENDCHAR
STARTCHAR U+03A5
ENCODING 933
SWIDTH 538 0
DWIDTH 7 0
BBX 6 5 0 0
BITMAP
CC
78
30
30
30
ENDCHAR
STARTCHAR U+03A6
ENCODING 934
SWIDTH 615 0
DWIDTH 8 0
BBX 7 5 0 0
BITMAP
7C
D6
D6
D6
7C
ENDCHAR
STARTCHAR U+03A7
ENCODING 935
SWIDTH 461 0
DWIDTH 6 0
BBX 5 5 0 0
BITMAP
D8
D8
70
D8
D8
ENDCHAR
STARTCHAR U+03A8
ENCODING 936
SWIDTH 615 0
DWIDTH 8 0
BBX 7 5 0 0
BITMAP
D6
D6
7C
10
10
ENDCHAR
STARTCHAR U+03A9
ENCODING 937
SWIDTH 461 0
DWIDTH 6 0
BBX 5 5 0 0
BITMAP
70
D8
D8
50
D8
ENDCHAR
STARTCHAR U+03AA
ENCODING 938
SWIDTH 230 0
DWIDTH 3 0
BBX 3 7 0 0
BITMAP
A0
00
C0
C0
C0
C0
C0
ENDCHAR
STARTCHAR U+03AB
ENCODING 939
SWIDTH 538 0
DWIDTH 7 0
BBX 6 7 0 0
BITMAP
28
00
CC
78
30
30
30
ENDCHAR
STARTCHAR U+03AC
ENCODING 940
SWIDTH 461 0
DWIDTH 6 0
BBX 5 7 0 0
BITMAP
10
20
00
78
D8
D8
78
ENDCHAR
STARTCHAR U+03AD
ENCODING 941
SWIDTH 384 0
DWIDTH 5 0
BBX 4 7 0 0
BITMAP
20
40
00
70
60
C0
70
ENDCHAR
STARTCHAR U+03AE
ENCODING 942
SWIDTH 461 0
DWIDTH 6 0
BBX 5 8 0 -1
BITMAP
10
20
00
F0
D8
D8
D8
10
ENDCHAR
STARTCHAR U+03AF
ENCODING 943
SWIDTH 307 0
DWIDTH 4 0
BBX 3 7 0 0
BITMAP
40
80
00
C0
C0
C0
60
ENDCHAR
STARTCHAR U+03B0
ENCODING 944
SWIDTH 461 0
DWIDTH 6 0
BBX 5 9 0 0
BITMAP
10
20
00
50
00
D8
D8
D8
70
ENDCHAR
STARTCHAR U+03B1
ENCODING 945
SWIDTH 461 0
DWIDTH 6 0
BBX 5 4 0 0
BITMAP
78
D8
D8
78
ENDCHAR
STARTCHAR U+03B2
ENCODING 946
SWIDTH 461 0
DWIDTH 6 0
BBX 5 6 0 -1
BITMAP
70
D8
F0
D8
F0
C0
ENDCHAR
STARTCHAR U+03B3
ENCODING 947
SWIDTH 461 0
DWIDTH 6 0
BBX 5 5 0 -1
BITMAP
D8
D8
70
70
70
ENDCHAR
STARTCHAR U+03B4
ENCODING 948
SWIDTH 461 0
DWIDTH 6 0
BBX 5 5 0 0
BITMAP
78
70
D8
D8
70
ENDCHAR
STARTCHAR U+03B5
ENCODING 949
SWIDTH 384 0
DWIDTH 5 0
BBX 4 4 0 0
BITMAP
70
60
C0
70
ENDCHAR
STARTCHAR U+03B6
ENCODING 950
SWIDTH 384 0
DWIDTH 5 0
BBX 4 7 0 -2
BITMAP
F0
60
C0
C0
70
10
20
ENDCHAR
STARTCHAR U+03B7
ENCODING 951
SWIDTH 461 0
DWIDTH 6 0
BBX 5 5 0 -1
BITMAP
F0
D8
D8
D8
18
ENDCHAR
STARTCHAR U+03B8
ENCODING 952
SWIDTH 461 0
DWIDTH 6 0
BBX 5 5 0 0
BITMAP
70
D8
F8
D8
70
ENDCHAR
STARTCHAR U+03B9
ENCODING 953
SWIDTH 307 0
DWIDTH 4 0
BBX 3 4 0 0
BITMAP
C0
C0
C0
60
ENDCHAR
STARTCHAR U+03BA
ENCODING 954
SWIDTH 461 0
DWIDTH 6 0
BBX 5 4 0 0
BITMAP
D8
F0
D8
D8
ENDCHAR
STARTCHAR U+03BB
ENCODING 955
SWIDTH 461 0
DWIDTH 6 0
BBX 5 5 0 0
BITMAP
60
30
70
D8
D8
ENDCHAR
STARTCHAR U+03BC
ENCODING 956
SWIDTH 461 0
DWIDTH 6 0
BBX 5 5 0 -1
BITMAP
D8
D8
D8
F8
C0
ENDCHAR
STARTCHAR U+03BD
ENCODING 957
SWIDTH 461 0
DWIDTH 6 0
BBX 5 4 0 0
BITMAP
D8
D8
70
70
ENDCHAR
STARTCHAR U+03BE
ENCODING 958
SWIDTH 384 0
DWIDTH 5 0
BBX 4 7 0 -2
BITMAP
70
C0
70
C0
70
10
20
ENDCHAR
STARTCHAR U+03BF
ENCODING 959
SWIDTH 461 0
DWIDTH 6 0
BBX 5 4 0 0
BITMAP
70
D8
D8
70
ENDCHAR
STARTCHAR U+03C0
ENCODING 960
SWIDTH 461 0
DWIDTH 6 0
BBX 5 4 0 0
BITMAP
F8
D8
D8
D8
ENDCHAR
STARTCHAR U+03C1
ENCODING 961
SWIDTH 461 0
DWIDTH 6 0
BBX 5 5 0 -1
BITMAP
70
D8
D8
F0
C0
ENDCHAR
STARTCHAR U+03C2
ENCODING 962
SWIDTH 384 0
DWIDTH 5 0
BBX 4 6 0 -2
BITMAP
70
C0
C0
70
10
20
ENDCHAR
STARTCHAR U+03C3
ENCODING 963
SWIDTH 538 0
DWIDTH 7 0
BBX 6 4 0 0
BITMAP
7C
D8
D8
70
ENDCHAR
STARTCHAR U+03C4
ENCODING 964
SWIDTH 384 0
DWIDTH 5 0
BBX 4 4 0 0
BITMAP
F0
60
60
30
ENDCHAR
STARTCHAR U+03C5
ENCODING 965
SWIDTH 461 0
DWIDTH 6 0
BBX 5 4 0 0
BITMAP
D8
D8
D8
70
ENDCHAR
STARTCHAR U+03C6
ENCODING 966
SWIDTH 692 0
DWIDTH 9 0
BBX 8 6 0 -1
BITMAP
18
7E
DB
DB
7E
18
ENDCHAR
STARTCHAR U+03C7
ENCODING 967
SWIDTH 461 0
DWIDTH 6 0
BBX 5 5 0 -1
BITMAP
D8
D8
70
D8
D8
ENDCHAR
STARTCHAR U+03C8
ENCODING 968
SWIDTH 615 0
DWIDTH 8 0
BBX 7 6 0 -1
BITMAP
10
D6
D6
D6
7C
10
ENDCHAR
STARTCHAR U+03C9
ENCODING 969
SWIDTH 615 0
DWIDTH 8 0
BBX 7 4 0 0
BITMAP
44
D6
D6
6C
ENDCHAR
STARTCHAR U+03CA
ENCODING 970
SWIDTH 307 0
DWIDTH 4 0
BBX 3 6 0 0
BITMAP
A0
00
C0
C0
C0
60
ENDCHAR
STARTCHAR U+03CB
ENCODING 971
SWIDTH 461 0
DWIDTH 6 0
BBX 5 6 0 0
BITMAP
50
00
D8
D8
D8
70
ENDCHAR
STARTCHAR U+03CC
ENCODING 972
SWIDTH 461 0
DWIDTH 6 0
BBX 5 7 0 0
BITMAP
10
20
00
70
D8
D8
70
ENDCHAR
STARTCHAR U+03CD
ENCODING 973
SWIDTH 461 0
DWIDTH 6 0
BBX 5 7 0 0
BITMAP
10
20
00
D8
D8
D8
70
ENDCHAR
STARTCHAR U+03CE
ENCODING 974
SWIDTH 615 0
DWIDTH 8 0
BBX 7 7 0 0
BITMAP
08
10
00
44
D6
D6
6C
ENDCHAR
STARTCHAR U+03CF
ENCODING 975
SWIDTH 461 0
DWIDTH 6 0
BBX 5 7 0 -2
BITMAP
D8
F0
E0
F0
D8
18
70
ENDCHAR
STARTCHAR U+03D7
ENCODING 983
SWIDTH 461 0
DWIDTH 6 0
BBX 5 6 0 -2
BITMAP
D8
F0
D8
D8
18
70
ENDCHAR
STARTCHAR U+03DA
ENCODING 986
SWIDTH 461 0
DWIDTH 6 0
BBX 5 5 0 0
BITMAP
78
C0
C0
70
30
ENDCHAR
STARTCHAR U+03DB
ENCODING 987
SWIDTH 384 0
DWIDTH 5 0
BBX 4 6 0 -2
BITMAP
70
C0
C0
70
10
60
ENDCHAR
STARTCHAR U+03DC
ENCODING 988
SWIDTH 461 0
DWIDTH 6 0
BBX 5 5 0 0
BITMAP
F8
C0
F0
D0
C0
ENDCHAR
STARTCHAR U+03DD
ENCODING 989
SWIDTH 461 0
DWIDTH 6 0
BBX 5 5 0 -1
BITMAP
F8
C0
F0
D0
C0
ENDCHAR
STARTCHAR U+03DE
ENCODING 990
SWIDTH 384 0
DWIDTH 5 0
BBX 4 5 0 0
BITMAP
C0
C0
F0
30
30
ENDCHAR
STARTCHAR U+03DF
ENCODING 991
SWIDTH 384 0
DWIDTH 5 0
BBX 4 6 0 -1
BITMAP
C0
C0
F0
30
30
30
ENDCHAR
STARTCHAR U+03E0
ENCODING 992
SWIDTH 461 0
DWIDTH 6 0
BBX 5 5 0 0
BITMAP
E0
30
78
58
18
ENDCHAR
STARTCHAR U+03E1
ENCODING 993
SWIDTH 461 0
DWIDTH 6 0
BBX 5 6 0 -1
BITMAP
E0
30
70
58
18
18
ENDCHAR
STARTCHAR U+0400
ENCODING 1024
SWIDTH 461 0
DWIDTH 6 0
BBX 5 8 0 0
BITMAP
40
20
00
F8
C0
F0
C0
F8
ENDCHAR
STARTCHAR U+0401
ENCODING 1025
SWIDTH 461 0
DWIDTH 6 0
BBX 5 7 0 0
BITMAP
50
00
F8
C0
F0
C0
F8
ENDCHAR
STARTCHAR U+0402
ENCODING 1026
SWIDTH 615 0
DWIDTH 8 0
BBX 7 5 0 0
BITMAP
F8
60
7C
66
6C
ENDCHAR
STARTCHAR U+0403
ENCODING 1027
SWIDTH 461 0
DWIDTH 6 0
BBX 5 8 0 0
BITMAP
10
20
00
F8
C0
C0
C0
C0
ENDCHAR
STARTCHAR U+0404
ENCODING 1028
SWIDTH 461 0
DWIDTH 6 0
BBX 5 5 0 0
BITMAP
78
C0
F0
C0
78
ENDCHAR
STARTCHAR U+0405
ENCODING 1029
SWIDTH 461 0
DWIDTH 6 0
BBX 5 5 0 0
BITMAP
78
C0
70
18
F0
ENDCHAR
STARTCHAR U+0406
ENCODING 1030
SWIDTH 230 0
DWIDTH 3 0
BBX 2 5 0 0
BITMAP
C0
C0
C0
C0
C0
ENDCHAR
STARTCHAR U+0407
ENCODING 1031
SWIDTH 230 0
DWIDTH 3 0
BBX 3 7 0 0
BITMAP
A0
00
C0
C0
C0
C0
C0
ENDCHAR
STARTCHAR U+0408
ENCODING 1032
SWIDTH 461 0
DWIDTH 6 0
BBX 5 5 0 0
BITMAP
18
18
18
D8
70
ENDCHAR
STARTCHAR U+0409
ENCODING 1033
SWIDTH 769 0
DWIDTH 10 0
BBX 9 5 0 0
BITMAP
7C00
6C00
6F00
6D80
CF00
ENDCHAR
STARTCHAR U+040A
ENCODING 1034
SWIDTH 692 0
DWIDTH 9 0
BBX 8 5 0 0
BITMAP
D8
D8
FE
DB
DE
ENDCHAR
STARTCHAR U+040B
ENCODING 1035
SWIDTH 538 0
DWIDTH 7 0
BBX 6 5 0 0
BITMAP
F8
60
78
6C
6C
ENDCHAR
STARTCHAR U+040C
ENCODING 1036
SWIDTH 461 0
DWIDTH 6 0
BBX 5 8 0 0
BITMAP
10
20
00
D8
F0
E0
F0
D8
ENDCHAR
STARTCHAR U+040D
ENCODING 1037
SWIDTH 538 0
DWIDTH 7 0
BBX 6 8 0 0
BITMAP
20
10
00
CC
DC
EC
CC
CC
ENDCHAR
STARTCHAR U+040E
ENCODING 1038
SWIDTH 461 0
DWIDTH 6 0
BBX 5 8 0 0
BITMAP
50
20
00
D8
D8
78
30
E0
ENDCHAR
STARTCHAR U+040F
ENCODING 1039
SWIDTH 461 0
DWIDTH 6 0
BBX 5 6 0 -1
BITMAP
D8
D8
D8
D8
F8
20
ENDCHAR
STARTCHAR U+0410
ENCODING 1040
SWIDTH 461 0
DWIDTH 6 0
BBX 5 5 0 0
BITMAP
70
D8
F8
D8
D8
ENDCHAR
STARTCHAR U+0411
ENCODING 1041
SWIDTH 461 0
DWIDTH 6 0
BBX 5 5 0 0
BITMAP
F8
C0
F0
D8
F0
ENDCHAR
STARTCHAR U+0412
ENCODING 1042
SWIDTH 461 0
DWIDTH 6 0
BBX 5 5 0 0
BITMAP
F0
D8
F0
D8
F0
ENDCHAR
STARTCHAR U+0413
ENCODING 1043
SWIDTH 461 0
DWIDTH 6 0
BBX 5 5 0 0
BITMAP
F8
C0
C0
C0
C0
ENDCHAR
STARTCHAR U+0414
ENCODING 1044
SWIDTH 615 0
DWIDTH 8 0
BBX 7 6 0 -1
BITMAP
7C
6C
6C
6C
FE
C6
ENDCHAR
STARTCHAR U+0415
ENCODING 1045
SWIDTH 461 0
DWIDTH 6 0
BBX 5 5 0 0
BITMAP
F8
C0
F0
C0
F8
ENDCHAR
STARTCHAR U+0416
ENCODING 1046
SWIDTH 692 0
DWIDTH 9 0
BBX 8 5 0 0
BITMAP
DB
7E
3C
7E
DB
ENDCHAR
STARTCHAR U+0417
ENCODING 1047
SWIDTH 384 0
DWIDTH 5 0
BBX 4 5 0 0
BITMAP
E0
30
60
30
E0
ENDCHAR
STARTCHAR U+0418
ENCODING 1048
SWIDTH 538 0
DWIDTH 7 0
BBX 6 5 0 0
BITMAP
CC
DC
EC
CC
CC
ENDCHAR
STARTCHAR U+0419
ENCODING 1049
SWIDTH 538 0
DWIDTH 7 0
BBX 6 8 0 0
BITMAP
28
10
00
CC
DC
EC
CC
CC
ENDCHAR
STARTCHAR U+041A
ENCODING 1050
SWIDTH 461 0
DWIDTH 6 0
BBX 5 5 0 0
BITMAP
D8
F0
E0
F0
D8
ENDCHAR
STARTCHAR U+041B
ENCODING 1051
SWIDTH 538 0
DWIDTH 7 0
BBX 6 5 0 0
BITMAP
7C
6C
6C
6C
CC
ENDCHAR
STARTCHAR U+041C
ENCODING 1052
SWIDTH 615 0
DWIDTH 8 0
BBX 7 5 0 0
BITMAP
C6
EE
D6
C6
C6
ENDCHAR
STARTCHAR U+041D
ENCODING 1053
SWIDTH 461 0
DWIDTH 6 0
BBX 5 5 0 0
BITMAP
D8
D8
F8
D8
D8
ENDCHAR
STARTCHAR U+041E
ENCODING 1054
SWIDTH 461 0
DWIDTH 6 0
BBX 5 5 0 0
BITMAP
70
D8
D8
D8
70
ENDCHAR
STARTCHAR U+041F
ENCODING 1055
SWIDTH 461 0
DWIDTH 6 0
BBX 5 5 0 0
BITMAP
F8
D8
D8
D8
D8
ENDCHAR
STARTCHAR U+0420
ENCODING 1056
SWIDTH 461 0
DWIDTH 6 0
BBX 5 5 0 0
BITMAP
F0
D8
F0
C0
C0
ENDCHAR
STARTCHAR U+0421
ENCODING 1057
SWIDTH 461 0
DWIDTH 6 0
BBX 5 5 0 0
BITMAP
70
D8
C0
D8
70
ENDCHAR
STARTCHAR U+0422
ENCODING 1058
SWIDTH 384 0
DWIDTH 5 0
BBX 4 5 0 0
BITMAP
F0
60
60
60
60
ENDCHAR
STARTCHAR U+0423
ENCODING 1059
SWIDTH 461 0
DWIDTH 6 0
BBX 5 5 0 0
BITMAP
D8
D8
78
30
E0
ENDCHAR
STARTCHAR U+0424
ENCODING 1060
SWIDTH 615 0
DWIDTH 8 0
BBX 7 5 0 0
BITMAP
7C
D6
D6
D6
7C
ENDCHAR
STARTCHAR U+0425
ENCODING 1061
SWIDTH 461 0
DWIDTH 6 0
BBX 5 5 0 0
BITMAP
D8
D8
70
D8
D8
ENDCHAR
STARTCHAR U+0426
ENCODING 1062
SWIDTH 538 0
DWIDTH 7 0
BBX 6 6 0 -1
BITMAP
D8
D8
D8
D8
FC
04
ENDCHAR
STARTCHAR U+0427
ENCODING 1063
SWIDTH 461 0
DWIDTH 6 0
BBX 5 5 0 0
BITMAP
D8
D8
78
18
18
ENDCHAR
STARTCHAR U+0428
ENCODING 1064
SWIDTH 692 0
DWIDTH 9 0
BBX 8 5 0 0
BITMAP
DB
DB
DB
DB
FF
ENDCHAR
STARTCHAR U+0429
ENCODING 1065
SWIDTH 769 0
DWIDTH 10 0
BBX 9 6 0 -1
BITMAP
DB00
DB00
DB00
DB00
FF80
0080
ENDCHAR
STARTCHAR U+042A
ENCODING 1066
SWIDTH 538 0
DWIDTH 7 0
BBX 6 5 0 0
BITMAP
E0
60
78
6C
78
ENDCHAR
STARTCHAR U+042B
ENCODING 1067
SWIDTH 692 0
DWIDTH 9 0
BBX 8 5 0 0
BITMAP
C3
C3
F3
DB
F3
ENDCHAR
STARTCHAR U+042C
ENCODING 1068
SWIDTH 461 0
DWIDTH 6 0
BBX 5 5 0 0
BITMAP
C0
C0
F0
D8
F0
ENDCHAR
STARTCHAR U+042D
ENCODING 1069
SWIDTH 461 0
DWIDTH 6 0
BBX 5 5 0 0
BITMAP
F0
18
78
18
F0
ENDCHAR
STARTCHAR U+042E
ENCODING 1070
SWIDTH 692 0
DWIDTH 9 0
BBX 8 5 0 0
BITMAP
CE
DB
FB
DB
CE
ENDCHAR
STARTCHAR U+042F
ENCODING 1071
SWIDTH 461 0
DWIDTH 6 0
BBX 5 5 0 0
BITMAP
78
D8
78
D8
D8
ENDCHAR
STARTCHAR U+0430
ENCODING 1072
SWIDTH 461 0
DWIDTH 6 0
BBX 5 4 0 0
BITMAP
78
D8
D8
78
ENDCHAR
STARTCHAR U+0431
ENCODING 1073
SWIDTH 461 0
DWIDTH 6 0
BBX 5 5 0 0
BITMAP
78
C0
F0
D8
70
ENDCHAR
STARTCHAR U+0432
ENCODING 1074
SWIDTH 461 0
DWIDTH 6 0
BBX 5 4 0 0
BITMAP
F0
F8
D8
F0
ENDCHAR
STARTCHAR U+0433
ENCODING 1075
SWIDTH 384 0
DWIDTH 5 0
BBX 4 4 0 0
BITMAP
F0
C0
C0
C0
ENDCHAR
STARTCHAR U+0434
ENCODING 1076
SWIDTH 615 0
DWIDTH 8 0
BBX 7 5 0 -1
BITMAP
7C
6C
6C
FE
C6
ENDCHAR
STARTCHAR U+0435
ENCODING 1077
SWIDTH 461 0
DWIDTH 6 0
BBX 5 4 0 0
BITMAP
70
F8
C0
70
ENDCHAR
STARTCHAR U+0436
ENCODING 1078
SWIDTH 692 0
DWIDTH 9 0
BBX 8 4 0 0
BITMAP
DB
7E
7E
DB
ENDCHAR
STARTCHAR U+0437
ENCODING 1079
SWIDTH 384 0
DWIDTH 5 0
BBX 4 4 0 0
BITMAP
E0
60
30
E0
ENDCHAR
STARTCHAR U+0438
ENCODING 1080
SWIDTH 538 0
DWIDTH 7 0
BBX 6 4 0 0
BITMAP
CC
DC
EC
CC
ENDCHAR
STARTCHAR U+0439
ENCODING 1081
SWIDTH 538 0
DWIDTH 7 0
BBX 6 7 0 0
BITMAP
28
10
00
CC
DC
EC
CC
ENDCHAR
STARTCHAR U+043A
ENCODING 1082
SWIDTH 461 0
DWIDTH 6 0
BBX 5 4 0 0
BITMAP
D8
F0
D8
D8
ENDCHAR
STARTCHAR U+043B
ENCODING 1083
SWIDTH 538 0
DWIDTH 7 0
BBX 6 4 0 0
BITMAP
7C
6C
6C
CC
ENDCHAR
STARTCHAR U+043C
ENCODING 1084
SWIDTH 615 0
DWIDTH 8 0
BBX 7 4 0 0
BITMAP
C6
EE
D6
C6
ENDCHAR
STARTCHAR U+043D
ENCODING 1085
SWIDTH 461 0
DWIDTH 6 0
BBX 5 4 0 0
BITMAP
D8
D8
F8
D8
ENDCHAR
STARTCHAR U+043E
ENCODING 1086
SWIDTH 461 0
DWIDTH 6 0
BBX 5 4 0 0
BITMAP
70
D8
D8
70
ENDCHAR
STARTCHAR U+043F
ENCODING 1087
SWIDTH 461 0
DWIDTH 6 0
BBX 5 4 0 0
BITMAP
F8
D8
D8
D8
ENDCHAR
STARTCHAR U+0440
ENCODING 1088
SWIDTH 461 0
DWIDTH 6 0
BBX 5 5 0 -1
BITMAP
F0
D8
D8
F0
C0
ENDCHAR
STARTCHAR U+0441
ENCODING 1089
SWIDTH 384 0
DWIDTH 5 0
BBX 4 4 0 0
BITMAP
70
C0
C0
70
ENDCHAR
STARTCHAR U+0442
ENCODING 1090
SWIDTH 384 0
DWIDTH 5 0
BBX 4 4 0 0
BITMAP
F0
60
60
60
ENDCHAR
STARTCHAR U+0443
ENCODING 1091
SWIDTH 461 0
DWIDTH 6 0
BBX 5 5 0 -1
BITMAP
D8
D8
D8
70
E0
ENDCHAR
STARTCHAR U+0444
ENCODING 1092
SWIDTH 692 0
DWIDTH 9 0
BBX 8 6 0 -1
BITMAP
18
7E
DB
DB
7E
18
ENDCHAR
STARTCHAR U+0445
ENCODING 1093
SWIDTH 461 0
DWIDTH 6 0
BBX 5 4 0 0
BITMAP
D8
70
70
D8
ENDCHAR
STARTCHAR U+0446
ENCODING 1094
SWIDTH 538 0
DWIDTH 7 0
BBX 6 5 0 -1
BITMAP
D8
D8
D8
FC
04
ENDCHAR
STARTCHAR U+0447
ENCODING 1095
SWIDTH 461 0
DWIDTH 6 0
BBX 5 4 0 0
BITMAP
D8
D8
78
18
ENDCHAR
STARTCHAR U+0448
ENCODING 1096
SWIDTH 692 0
DWIDTH 9 0
BBX 8 4 0 0
BITMAP
DB
DB
DB
FF
ENDCHAR
STARTCHAR U+0449
ENCODING 1097
SWIDTH 769 0
DWIDTH 10 0
BBX 9 5 0 -1
BITMAP
DB00
DB00
DB00
FF80
0080
ENDCHAR
STARTCHAR U+044A
ENCODING 1098
SWIDTH 538 0
DWIDTH 7 0
BBX 6 4 0 0
BITMAP
E0
78
6C
78
ENDCHAR
STARTCHAR U+044B
ENCODING 1099
SWIDTH 692 0
DWIDTH 9 0
BBX 8 4 0 0
BITMAP
C3
F3
DB
F3
ENDCHAR
STARTCHAR U+044C
ENCODING 1100
SWIDTH 461 0
DWIDTH 6 0
BBX 5 4 0 0
BITMAP
C0
F0
D8
F0
ENDCHAR
STARTCHAR U+044D
ENCODING 1101
SWIDTH 384 0
DWIDTH 5 0
BBX 4 4 0 0
BITMAP
E0
70
30
E0
ENDCHAR
STARTCHAR U+044E
ENCODING 1102
SWIDTH 692 0
DWIDTH 9 0
BBX 8 4 0 0
BITMAP
CE
FB
DB
CE
ENDCHAR
STARTCHAR U+044F
ENCODING 1103
SWIDTH 461 0
DWIDTH 6 0
BBX 5 4 0 0
BITMAP
78
D8
78
D8
ENDCHAR
STARTCHAR U+0450
ENCODING 1104
SWIDTH 461 0
DWIDTH 6 0
BBX 5 7 0 0
BITMAP
40
20
00
70
F8
C0
70
ENDCHAR
STARTCHAR U+0451
ENCODING 1105
SWIDTH 461 0
DWIDTH 6 0
BBX 5 6 0 0
BITMAP
50
00
70
F8
C0
70
ENDCHAR
STARTCHAR U+0452
ENCODING 1106
SWIDTH 538 0
DWIDTH 7 0
BBX 6 7 0 -2
BITMAP
60
F8
6C
6C
6C
0C
18
ENDCHAR
STARTCHAR U+0453
ENCODING 1107
SWIDTH 384 0
DWIDTH 5 0
BBX 4 7 0 0
BITMAP
20
40
00
F0
C0
C0
C0
ENDCHAR
STARTCHAR U+0454
ENCODING 1108
SWIDTH 384 0
DWIDTH 5 0
BBX 4 4 0 0
BITMAP
70
E0
C0
70
ENDCHAR
STARTCHAR U+0455
ENCODING 1109
SWIDTH 384 0
DWIDTH 5 0
BBX 4 4 0 0
BITMAP
70
E0
30
E0
ENDCHAR
STARTCHAR U+0456
ENCODING 1110
SWIDTH 230 0
DWIDTH 3 0
BBX 2 6 0 0
BITMAP
C0
00
C0
C0
C0
C0
ENDCHAR
STARTCHAR U+0457
ENCODING 1111
SWIDTH 230 0
DWIDTH 3 0
BBX 3 6 0 0
BITMAP
A0
00
C0
C0
C0
C0
ENDCHAR
STARTCHAR U+0458
ENCODING 1112
SWIDTH 307 0
DWIDTH 4 0
BBX 3 7 0 -1
BITMAP
60
00
60
60
60
60
C0
ENDCHAR
STARTCHAR U+0459
ENCODING 1113
SWIDTH 769 0
DWIDTH 10 0
BBX 9 4 0 0
BITMAP
7C00
6F00
6D80
CF00
ENDCHAR
STARTCHAR U+045A
ENCODING 1114
SWIDTH 692 0
DWIDTH 9 0
BBX 8 4 0 0
BITMAP
D8
DE
FB
DE
ENDCHAR
STARTCHAR U+045B
ENCODING 1115
SWIDTH 538 0
DWIDTH 7 0
BBX 6 5 0 0
BITMAP
60
F8
6C
6C
6C
ENDCHAR
STARTCHAR U+045C
ENCODING 1116
SWIDTH 461 0
DWIDTH 6 0
BBX 5 7 0 0
BITMAP
10
20
00
D8
F0
D8
D8
ENDCHAR
STARTCHAR U+045D
ENCODING 1117
SWIDTH 538 0
DWIDTH 7 0
BBX 6 7 0 0
BITMAP
20
10
00
CC
DC
EC
CC
ENDCHAR
STARTCHAR U+045E
ENCODING 1118
SWIDTH 461 0
DWIDTH 6 0
BBX 5 8 0 -1
BITMAP
50
20
00
D8
D8
D8
70
E0
ENDCHAR
STARTCHAR U+045F
ENCODING 1119
SWIDTH 461 0
DWIDTH 6 0
BBX 5 5 0 -1
BITMAP
D8
D8
D8
F8
20
ENDCHAR
STARTCHAR U+048A
ENCODING 1162
SWIDTH 615 0
DWIDTH 8 0
BBX 7 9 0 -1
BITMAP
28
10
00
CC
DC
EC
CC
CE
02
ENDCHAR
STARTCHAR U+048B
ENCODING 1163
SWIDTH 615 0
DWIDTH 8 0
BBX 7 8 0 -1
BITMAP
28
10
00
CC
DC
EC
CE
02
ENDCHAR
STARTCHAR U+048C
ENCODING 1164
SWIDTH 615 0
DWIDTH 8 0
BBX 7 5 0 0
BITMAP
60
E0
7C
6E
7C
ENDCHAR
STARTCHAR U+048D
ENCODING 1165
SWIDTH 538 0
DWIDTH 7 0
BBX 6 5 0 0
BITMAP
60
F0
78
6C
78
ENDCHAR
STARTCHAR U+048E
ENCODING 1166
SWIDTH 461 0
DWIDTH 6 0
BBX 5 5 0 0
BITMAP
F0
D8
F0
D8
C0
ENDCHAR
STARTCHAR U+048F
ENCODING 1167
SWIDTH 538 0
DWIDTH 7 0
BBX 6 5 0 -1
BITMAP
F0
D8
D8
F4
C0
ENDCHAR
STARTCHAR U+0490
ENCODING 1168
SWIDTH 461 0
DWIDTH 6 0
BBX 5 6 0 0
BITMAP
08
F8
C0
C0
C0
C0
ENDCHAR
STARTCHAR U+0491
ENCODING 1169
SWIDTH 384 0
DWIDTH 5 0
BBX 4 5 0 0
BITMAP
10
F0
C0
C0
C0
ENDCHAR
STARTCHAR U+0492
ENCODING 1170
SWIDTH 538 0
DWIDTH 7 0
BBX 6 5 0 0
BITMAP
7C
60
F8
60
60
ENDCHAR
STARTCHAR U+0493
ENCODING 1171
SWIDTH 461 0
DWIDTH 6 0
BBX 5 4 0 0
BITMAP
78
60
F0
60
ENDCHAR
STARTCHAR U+0494
ENCODING 1172
SWIDTH 461 0
DWIDTH 6 0
BBX 5 7 0 -2
BITMAP
F0
C0
F0
D8
D8
18
70
ENDCHAR
STARTCHAR U+0495
ENCODING 1173
SWIDTH 461 0
DWIDTH 6 0
BBX 5 6 0 -2
BITMAP
F0
C0
F0
D8
18
70
ENDCHAR
STARTCHAR U+0496
ENCODING 1174
SWIDTH 769 0
DWIDTH 10 0
BBX 9 6 0 -1
BITMAP
DB00
7E00
3C00
7E00
DB80
0080
ENDCHAR
STARTCHAR U+0497
ENCODING 1175
SWIDTH 769 0
DWIDTH 10 0
BBX 9 5 0 -1
BITMAP
DB00
7E00
7E00
DB80
0080
ENDCHAR
STARTCHAR U+0498
ENCODING 1176
SWIDTH 384 0
DWIDTH 5 0
BBX 4 6 0 -1
BITMAP
E0
30
60
30
E0
40
ENDCHAR
STARTCHAR U+0499
ENCODING 1177
SWIDTH 384 0
DWIDTH 5 0
BBX 4 5 0 -1
BITMAP
E0
60
30
E0
40
ENDCHAR
STARTCHAR U+049A
ENCODING 1178
SWIDTH 538 0
DWIDTH 7 0
BBX 6 6 0 -1
BITMAP
D8
F0
E0
F0
DC
04
ENDCHAR
STARTCHAR U+049B
ENCODING 1179
SWIDTH 538 0
DWIDTH 7 0
BBX 6 5 0 -1
BITMAP
D8
F0
D8
DC
04
ENDCHAR
STARTCHAR U+049C
ENCODING 1180
SWIDTH 461 0
DWIDTH 6 0
BBX 5 5 0 0
BITMAP
D8
F0
E0
F0
F8
ENDCHAR
STARTCHAR U+049D
ENCODING 1181
SWIDTH 461 0
DWIDTH 6 0
BBX 5 4 0 0
BITMAP
D8
F0
F8
D8
ENDCHAR
STARTCHAR U+049E
ENCODING 1182
SWIDTH 538 0
DWIDTH 7 0
BBX 6 5 0 0
BITMAP
6C
F8
70
78
6C
ENDCHAR
STARTCHAR U+049F
ENCODING 1183
SWIDTH 538 0
DWIDTH 7 0
BBX 6 5 0 0
BITMAP
60
EC
78
6C
6C
ENDCHAR
STARTCHAR U+04A0
ENCODING 1184
SWIDTH 538 0
DWIDTH 7 0
BBX 6 5 0 0
BITMAP
EC
78
70
78
6C
ENDCHAR
STARTCHAR U+04A1
ENCODING 1185
SWIDTH 538 0
DWIDTH 7 0
BBX 6 4 0 0
BITMAP
EC
78
6C
6C
ENDCHAR
STARTCHAR U+04A2
ENCODING 1186
SWIDTH 538 0
DWIDTH 7 0
BBX 6 6 0 -1
BITMAP
D8
D8
F8
D8
DC
04
ENDCHAR
STARTCHAR U+04A3
ENCODING 1187
SWIDTH 538 0
DWIDTH 7 0
BBX 6 5 0 -1
BITMAP
D8
D8
F8
DC
04
ENDCHAR
STARTCHAR U+04A4
ENCODING 1188
SWIDTH 538 0
DWIDTH 7 0
BBX 6 5 0 0
BITMAP
DC
D8
F8
D8
D8
ENDCHAR
STARTCHAR U+04A5
ENCODING 1189
SWIDTH 538 0
DWIDTH 7 0
BBX 6 4 0 0
BITMAP
DC
D8
F8
D8
ENDCHAR
STARTCHAR U+04A8
ENCODING 1192
SWIDTH 769 0
DWIDTH 10 0
BBX 9 5 0 0
BITMAP
6000
CE00
DB00
CF00
7B80
ENDCHAR
STARTCHAR U+04A9
ENCODING 1193
SWIDTH 769 0
DWIDTH 10 0
BBX 9 4 0 0
BITMAP
6000
CE00
DB00
7F80
ENDCHAR
STARTCHAR U+04AA
ENCODING 1194
SWIDTH 461 0
DWIDTH 6 0
BBX 5 6 0 -1
BITMAP
70
D8
C0
D8
70
20
ENDCHAR
STARTCHAR U+04AB
ENCODING 1195
SWIDTH 384 0
DWIDTH 5 0
BBX 4 5 0 -1
BITMAP
70
C0
C0
70
20
ENDCHAR
STARTCHAR U+04AC
ENCODING 1196
SWIDTH 384 0
DWIDTH 5 0
BBX 4 6 0 -1
BITMAP
F0
60
60
60
70
10
ENDCHAR
STARTCHAR U+04AD
ENCODING 1197
SWIDTH 384 0
DWIDTH 5 0
BBX 4 5 0 -1
BITMAP
F0
60
60
70
10
ENDCHAR
STARTCHAR U+04AE
ENCODING 1198
SWIDTH 538 0
DWIDTH 7 0
BBX 6 5 0 0
BITMAP
CC
78
30
30
30
ENDCHAR
STARTCHAR U+04AF
ENCODING 1199
SWIDTH 538 0
DWIDTH 7 0
BBX 6 5 0 -1
BITMAP
CC
78
30
30
30
ENDCHAR
STARTCHAR U+04B0
ENCODING 1200
SWIDTH 538 0
DWIDTH 7 0
BBX 6 5 0 0
BITMAP
CC
78
30
78
30
ENDCHAR
STARTCHAR U+04B1
ENCODING 1201
SWIDTH 538 0
DWIDTH 7 0
BBX 6 5 0 -1
BITMAP
CC
78
30
78
30
ENDCHAR
STARTCHAR U+04B2
ENCODING 1202
SWIDTH 538 0
DWIDTH 7 0
BBX 6 6 0 -1
BITMAP
D8
D8
70
D8
DC
04
ENDCHAR
STARTCHAR U+04B3
ENCODING 1203
SWIDTH 538 0
DWIDTH 7 0
BBX 6 5 0 -1
BITMAP
D8
70
70
DC
04
ENDCHAR
STARTCHAR U+04B4
ENCODING 1204
SWIDTH 615 0
DWIDTH 8 0
BBX 7 6 0 -1
BITMAP
EC
6C
6C
6C
7E
02
ENDCHAR
STARTCHAR U+04B5
ENCODING 1205
SWIDTH 615 0
DWIDTH 8 0
BBX 7 5 0 -1
BITMAP
EC
6C
6C
7E
02
ENDCHAR
STARTCHAR U+04B6
ENCODING 1206
SWIDTH 538 0
DWIDTH 7 0
BBX 6 6 0 -1
BITMAP
D8
D8
78
18
1C
04
ENDCHAR
STARTCHAR U+04B7
ENCODING 1207
SWIDTH 538 0
DWIDTH 7 0
BBX 6 5 0 -1
BITMAP
D8
D8
78
1C
04
ENDCHAR
STARTCHAR U+04B8
ENCODING 1208
SWIDTH 461 0
DWIDTH 6 0
BBX 5 5 0 0
BITMAP
D8
D8
78
58
18
ENDCHAR
STARTCHAR U+04B9
ENCODING 1209
SWIDTH 461 0
DWIDTH 6 0
BBX 5 4 0 0
BITMAP
D8
F8
78
18
ENDCHAR
STARTCHAR U+04BA
ENCODING 1210
SWIDTH 461 0
DWIDTH 6 0
BBX 5 5 0 0
BITMAP
C0
C0
F0
D8
D8
ENDCHAR
STARTCHAR U+04BB
ENCODING 1211
SWIDTH 461 0
DWIDTH 6 0
BBX 5 5 0 0
BITMAP
C0
F0
D8
D8
D8
ENDCHAR
STARTCHAR U+04BC
ENCODING 1212
SWIDTH 538 0
DWIDTH 7 0
BBX 6 5 0 0
BITMAP
38
EC
FC
60
38
ENDCHAR
STARTCHAR U+04BD
ENCODING 1213
SWIDTH 538 0
DWIDTH 7 0
BBX 6 4 0 0
BITMAP
B8
FC
60
38
ENDCHAR
STARTCHAR U+04BE
ENCODING 1214
SWIDTH 538 0
DWIDTH 7 0
BBX 6 6 0 -1
BITMAP
38
EC
FC
60
38
10
ENDCHAR
STARTCHAR U+04BF
ENCODING 1215
SWIDTH 538 0
DWIDTH 7 0
BBX 6 5 0 -1
BITMAP
B8
FC
60
38
10
ENDCHAR
STARTCHAR U+04C0
ENCODING 1216
SWIDTH 230 0
DWIDTH 3 0
BBX 2 5 0 0
BITMAP
C0
C0
C0
C0
C0
ENDCHAR
STARTCHAR U+04C3
ENCODING 1219
SWIDTH 461 0
DWIDTH 6 0
BBX 5 7 0 -2
BITMAP
D8
F0
F0
D8
D8
18
70
ENDCHAR
STARTCHAR U+04C4
ENCODING 1220
SWIDTH 461 0
DWIDTH 6 0
BBX 5 6 0 -2
BITMAP
D8
F0
D8
D8
18
70
ENDCHAR
STARTCHAR U+04C5
ENCODING 1221
SWIDTH 615 0
DWIDTH 8 0
BBX 7 6 0 -1
BITMAP
7C
6C
6C
6C
CE
02
ENDCHAR
STARTCHAR U+04C6
ENCODING 1222
SWIDTH 615 0
DWIDTH 8 0
BBX 7 5 0 -1
BITMAP
7C
6C
6C
CE
02
ENDCHAR
STARTCHAR U+04C7
ENCODING 1223
SWIDTH 461 0
DWIDTH 6 0
BBX 5 7 0 -2
BITMAP
D8
D8
F8
D8
D8
18
70
ENDCHAR
STARTCHAR U+04C8
ENCODING 1224
SWIDTH 461 0
DWIDTH 6 0
BBX 5 6 0 -2
BITMAP
D8
D8
F8
D8
18
70
ENDCHAR
STARTCHAR U+04C9
ENCODING 1225
SWIDTH 538 0
DWIDTH 7 0
BBX 6 6 0 -1
BITMAP
D8
D8
F8
D8
DC
04
ENDCHAR
STARTCHAR U+04CA
ENCODING 1226
SWIDTH 538 0
DWIDTH 7 0
BBX 6 5 0 -1
BITMAP
D8
D8
F8
DC
04
ENDCHAR
STARTCHAR U+04CB
ENCODING 1227
SWIDTH 461 0
DWIDTH 6 0
BBX 5 6 0 -1
BITMAP
D8
D8
78
18
38
20
ENDCHAR
STARTCHAR U+04CC
ENCODING 1228
SWIDTH 461 0
DWIDTH 6 0
BBX 5 5 0 -1
BITMAP
D8
D8
78
18
20
ENDCHAR
STARTCHAR U+04CD
ENCODING 1229
SWIDTH 692 0
DWIDTH 9 0
BBX 8 6 0 -1
BITMAP
C6
EE
D6
C6
C7
01
ENDCHAR
STARTCHAR U+04CE
ENCODING 1230
SWIDTH 692 0
DWIDTH 9 0
BBX 8 5 0 -1
BITMAP
C6
EE
D6
C7
01
ENDCHAR
STARTCHAR U+04CF
ENCODING 1231
SWIDTH 230 0
DWIDTH 3 0
BBX 2 5 0 0
BITMAP
C0
C0
C0
C0
C0
ENDCHAR
STARTCHAR U+04D0
ENCODING 1232
SWIDTH 461 0
DWIDTH 6 0
BBX 5 8 0 0
BITMAP
50
20
00
70
D8
F8
D8
D8
ENDCHAR
STARTCHAR U+04D1
ENCODING 1233
SWIDTH 461 0
DWIDTH 6 0
BBX 5 7 0 0
BITMAP
50
20
00
78
D8
D8
78
ENDCHAR
STARTCHAR U+04D2
ENCODING 1234
SWIDTH 461 0
DWIDTH 6 0
BBX 5 7 0 0
BITMAP
50
00
70
D8
F8
D8
D8
ENDCHAR
STARTCHAR U+04D3
ENCODING 1235
SWIDTH 461 0
DWIDTH 6 0
BBX 5 6 0 0
BITMAP
50
00
78
D8
D8
78
ENDCHAR
STARTCHAR U+04D4
ENCODING 1236
SWIDTH 615 0
DWIDTH 8 0
BBX 7 5 0 0
BITMAP
7E
D8
FE
D8
DE
ENDCHAR
STARTCHAR U+04D5
ENCODING 1237
SWIDTH 615 0
DWIDTH 8 0
BBX 7 4 0 0
BITMAP
7C
DE
D8
7E
ENDCHAR
STARTCHAR U+04D6
ENCODING 1238
SWIDTH 461 0
DWIDTH 6 0
BBX 5 8 0 0
BITMAP
50
20
00
F8
C0
F0
C0
F8
ENDCHAR
STARTCHAR U+04D7
ENCODING 1239
SWIDTH 461 0
DWIDTH 6 0
BBX 5 7 0 0
BITMAP
50
20
00
70
F8
C0
70
ENDCHAR
STARTCHAR U+04D8
ENCODING 1240
SWIDTH 461 0
DWIDTH 6 0
BBX 5 5 0 0
BITMAP
70
18
F8
D8
70
ENDCHAR
STARTCHAR U+04D9
ENCODING 1241
SWIDTH 461 0
DWIDTH 6 0
BBX 5 4 0 0
BITMAP
70
18
F8
70
ENDCHAR
STARTCHAR U+04DA
ENCODING 1242
SWIDTH 461 0
DWIDTH 6 0
BBX 5 7 0 0
BITMAP
50
00
70
18
F8
D8
70
ENDCHAR
STARTCHAR U+04DB
ENCODING 1243
SWIDTH 461 0
DWIDTH 6 0
BBX 5 6 0 0
BITMAP
50
00
70
18
F8
70
ENDCHAR
STARTCHAR U+04DC
ENCODING 1244
SWIDTH 692 0
DWIDTH 9 0
BBX 8 7 0 0
BITMAP
14
00
DB
7E
3C
7E
DB
ENDCHAR
STARTCHAR U+04DD
ENCODING 1245
SWIDTH 692 0
DWIDTH 9 0
BBX 8 6 0 0
BITMAP
14
00
DB
7E
7E
DB
ENDCHAR
STARTCHAR U+04DE
ENCODING 1246
SWIDTH 384 0
DWIDTH 5 0
BBX 4 7 0 0
BITMAP
50
00
E0
30
60
30
E0
ENDCHAR
STARTCHAR U+04DF
ENCODING 1247
SWIDTH 384 0
DWIDTH 5 0
BBX 4 6 0 0
BITMAP
A0
00
E0
60
30
E0
ENDCHAR
STARTCHAR U+04E0
ENCODING 1248
SWIDTH 384 0
DWIDTH 5 0
BBX 4 5 0 0
BITMAP
F0
30
60
30
E0
ENDCHAR
STARTCHAR U+04E1
ENCODING 1249
SWIDTH 384 0
DWIDTH 5 0
BBX 4 5 0 -1
BITMAP
F0
30
60
30
E0
ENDCHAR
STARTCHAR U+04E2
ENCODING 1250
SWIDTH 538 0
DWIDTH 7 0
BBX 6 7 0 0
BITMAP
78
00
CC
DC
EC
CC
CC
ENDCHAR
STARTCHAR U+04E3
ENCODING 1251
SWIDTH 538 0
DWIDTH 7 0
BBX 6 6 0 0
BITMAP
78
00
CC
DC
EC
CC
ENDCHAR
STARTCHAR U+04E4
ENCODING 1252
SWIDTH 538 0
DWIDTH 7 0
BBX 6 7 0 0
BITMAP
28
00
CC
DC
EC
CC
CC
ENDCHAR
STARTCHAR U+04E5
ENCODING 1253
SWIDTH 538 0
DWIDTH 7 0
BBX 6 6 0 0
BITMAP
28
00
CC
DC
EC
CC
ENDCHAR
STARTCHAR U+04E6
ENCODING 1254
SWIDTH 461 0
DWIDTH 6 0
BBX 5 7 0 0
BITMAP
50
00
70
D8
D8
D8
70
ENDCHAR
STARTCHAR U+04E7
ENCODING 1255
SWIDTH 461 0
DWIDTH 6 0
BBX 5 6 0 0
BITMAP
50
00
70
D8
D8
70
ENDCHAR
STARTCHAR U+04E8
ENCODING 1256
SWIDTH 461 0
DWIDTH 6 0
BBX 5 5 0 0
BITMAP
70
D8
F8
D8
70
ENDCHAR
STARTCHAR U+04E9
ENCODING 1257
SWIDTH 461 0
DWIDTH 6 0
BBX 5 4 0 0
BITMAP
70
F8
D8
70
ENDCHAR
STARTCHAR U+04EA
ENCODING 1258
SWIDTH 461 0
DWIDTH 6 0
BBX 5 7 0 0
BITMAP
50
00
70
D8
F8
D8
70
ENDCHAR
STARTCHAR U+04EB
ENCODING 1259
SWIDTH 461 0
DWIDTH 6 0
BBX 5 6 0 0
BITMAP
50
00
70
F8
D8
70
ENDCHAR
STARTCHAR U+04EC
ENCODING 1260
SWIDTH 461 0
DWIDTH 6 0
BBX 5 7 0 0
BITMAP
50
00
F0
18
78
18
F0
ENDCHAR
STARTCHAR U+04ED
ENCODING 1261
SWIDTH 384 0
DWIDTH 5 0
BBX 4 6 0 0
BITMAP
A0
00
E0
70
30
E0
ENDCHAR
STARTCHAR U+04EE
ENCODING 1262
SWIDTH 461 0
DWIDTH 6 0
BBX 5 7 0 0
BITMAP
70
00
D8
D8
78
30
E0
ENDCHAR
STARTCHAR U+04EF
ENCODING 1263
SWIDTH 461 0
DWIDTH 6 0
BBX 5 7 0 -1
BITMAP
70
00
D8
D8
D8
70
E0
ENDCHAR
STARTCHAR U+04F0
ENCODING 1264
SWIDTH 461 0
DWIDTH 6 0
BBX 5 7 0 0
BITMAP
50
00
D8
D8
78
30
E0
ENDCHAR
STARTCHAR U+04F1
ENCODING 1265
SWIDTH 461 0
DWIDTH 6 0
BBX 5 7 0 -1
BITMAP
50
00
D8
D8
D8
70
E0
ENDCHAR
STARTCHAR U+04F2
ENCODING 1266
SWIDTH 461 0
DWIDTH 6 0
BBX 5 8 0 0
BITMAP
28
50
00
D8
D8
78
30
E0
ENDCHAR
STARTCHAR U+04F3
ENCODING 1267
SWIDTH 461 0
DWIDTH 6 0
BBX 5 8 0 -1
BITMAP
28
50
00
D8
D8
D8
70
E0
ENDCHAR
STARTCHAR U+04F4
ENCODING 1268
SWIDTH 461 0
DWIDTH 6 0
BBX 5 7 0 0
BITMAP
50
00
D8
D8
78
18
18
ENDCHAR
STARTCHAR U+04F5
ENCODING 1269
SWIDTH 461 0
DWIDTH 6 0
BBX 5 6 0 0
BITMAP
50
00
D8
D8
78
18
ENDCHAR
STARTCHAR U+04F6
ENCODING 1270
SWIDTH 461 0
DWIDTH 6 0
BBX 5 6 0 -1
BITMAP
F8
C0
C0
C0
E0
20
ENDCHAR
STARTCHAR U+04F7
ENCODING 1271
SWIDTH 384 0
DWIDTH 5 0
BBX 4 5 0 -1
BITMAP
F0
C0
C0
E0
20
ENDCHAR
STARTCHAR U+04F8
ENCODING 1272
SWIDTH 692 0
DWIDTH 9 0
BBX 8 7 0 0
BITMAP
14
00
C3
C3
F3
DB
F3
ENDCHAR
STARTCHAR U+04F9
ENCODING 1273
SWIDTH 692 0
DWIDTH 9 0
BBX 8 6 0 0
BITMAP
14
00
C3
F3
DB
F3
ENDCHAR
STARTCHAR U+04FA
ENCODING 1274
SWIDTH 538 0
DWIDTH 7 0
BBX 6 6 0 -1
BITMAP
7C
60
F8
60
70
10
ENDCHAR
STARTCHAR U+04FB
ENCODING 1275
SWIDTH 461 0
DWIDTH 6 0
BBX 5 5 0 -1
BITMAP
78
60
F0
70
10
ENDCHAR
STARTCHAR U+04FC
ENCODING 1276
SWIDTH 538 0
DWIDTH 7 0
BBX 6 6 0 -1
BITMAP
D8
D8
70
D8
DC
04
ENDCHAR
STARTCHAR U+04FD
ENCODING 1277
SWIDTH 538 0
DWIDTH 7 0
BBX 6 5 0 -1
BITMAP
D8
70
70
DC
04
ENDCHAR
STARTCHAR U+04FE
ENCODING 1278
SWIDTH 615 0
DWIDTH 8 0
BBX 7 5 0 0
BITMAP
6C
FE
38
6C
6C
ENDCHAR
STARTCHAR U+04FF
ENCODING 1279
SWIDTH 615 0
DWIDTH 8 0
BBX 7 4 0 0
BITMAP
6C
FE
38
6C
ENDCHAR
STARTCHAR U+0510
ENCODING 1296
SWIDTH 384 0
DWIDTH 5 0
BBX 4 5 0 0
BITMAP
70
C0
60
C0
70
ENDCHAR
STARTCHAR U+0511
ENCODING 1297
SWIDTH 384 0
DWIDTH 5 0
BBX 4 4 0 0
BITMAP
70
60
C0
70
ENDCHAR
STARTCHAR U+0512
ENCODING 1298
SWIDTH 615 0
DWIDTH 8 0
BBX 7 6 0 -1
BITMAP
7C
6C
6C
6C
CE
02
ENDCHAR
STARTCHAR U+0513
ENCODING 1299
SWIDTH 615 0
DWIDTH 8 0
BBX 7 5 0 -1
BITMAP
7C
6C
6C
CE
02
ENDCHAR
STARTCHAR U+051A
ENCODING 1306
SWIDTH 461 0
DWIDTH 6 0
BBX 5 5 0 0
BITMAP
70
D8
D8
F0
78
ENDCHAR
STARTCHAR U+051B
ENCODING 1307
SWIDTH 461 0
DWIDTH 6 0
BBX 5 5 0 -1
BITMAP
78
D8
D8
78
18
ENDCHAR
STARTCHAR U+051C
ENCODING 1308
SWIDTH 615 0
DWIDTH 8 0
BBX 7 5 0 0
BITMAP
C6
D6
D6
7C
6C
ENDCHAR
STARTCHAR U+051D
ENCODING 1309
SWIDTH 615 0
DWIDTH 8 0
BBX 7 4 0 0
BITMAP
C6
D6
7C
6C
ENDCHAR
STARTCHAR U+0524
ENCODING 1316
SWIDTH 538 0
DWIDTH 7 0
BBX 6 6 0 -1
BITMAP
F8
D8
D8
D8
DC
04
ENDCHAR
STARTCHAR U+0525
ENCODING 1317
SWIDTH 538 0
DWIDTH 7 0
BBX 6 5 0 -1
BITMAP
F8
D8
D8
DC
04
ENDCHAR
STARTCHAR U+0526
ENCODING 1318
SWIDTH 538 0
DWIDTH 7 0
BBX 6 6 0 -1
BITMAP
C0
C0
F0
D8
DC
04
ENDCHAR
STARTCHAR U+0527
ENCODING 1319
SWIDTH 538 0
DWIDTH 7 0
BBX 6 6 0 -1
BITMAP
C0
F0
D8
D8
DC
04
ENDCHAR
STARTCHAR U+0528
ENCODING 1320
SWIDTH 461 0
DWIDTH 6 0
BBX 6 7 -1 -2
BITMAP
6C
6C
7C
6C
6C
60
C0
ENDCHAR
STARTCHAR U+0529
ENCODING 1321
SWIDTH 461 0
DWIDTH 6 0
BBX 6 6 -1 -2
BITMAP
6C
6C
7C
6C
60
C0
ENDCHAR
STARTCHAR U+052E
ENCODING 1326
SWIDTH 615 0
DWIDTH 8 0
BBX 7 6 0 -1
BITMAP
7C
6C
6C
6C
CE
02
ENDCHAR
STARTCHAR U+052F
ENCODING 1327
SWIDTH 615 0
DWIDTH 8 0
BBX 7 5 0 -1
BITMAP
7C
6C
6C
CE
02
ENDCHAR
STARTCHAR U+0E3F
ENCODING 3647
SWIDTH 461 0
DWIDTH 6 0
BBX 5 7 0 -1
BITMAP
20
F0
D8
F0
D8
F0
20
ENDCHAR
STARTCHAR U+1D43
ENCODING 7491
SWIDTH 307 0
DWIDTH 4 0
BBX 3 3 0 2
BITMAP
60
A0
60
ENDCHAR
STARTCHAR U+1D49
ENCODING 7497
SWIDTH 307 0
DWIDTH 4 0
BBX 3 3 0 2
BITMAP
40
E0
60
ENDCHAR
STARTCHAR U+1D4B
ENCODING 7499
SWIDTH 307 0
DWIDTH 4 0
BBX 3 3 0 2
BITMAP
60
C0
60
ENDCHAR
STARTCHAR U+1D52
ENCODING 7506
SWIDTH 307 0
DWIDTH 4 0
BBX 3 3 0 2
BITMAP
40
A0
40
ENDCHAR
STARTCHAR U+1D53
ENCODING 7507
SWIDTH 307 0
DWIDTH 4 0
BBX 3 3 0 2
BITMAP
C0
20
C0
ENDCHAR
STARTCHAR U+1D58
ENCODING 7512
SWIDTH 307 0
DWIDTH 4 0
BBX 3 3 0 2
BITMAP
A0
A0
60
ENDCHAR
STARTCHAR U+1D7D
ENCODING 7549
SWIDTH 615 0
DWIDTH 8 0
BBX 7 5 0 -1
BITMAP
78
FE
6C
78
60
ENDCHAR
STARTCHAR U+1DA4
ENCODING 7588
SWIDTH 230 0
DWIDTH 3 0
BBX 2 3 0 2
BITMAP
80
C0
80
ENDCHAR
STARTCHAR U+1DB6
ENCODING 7606
SWIDTH 384 0
DWIDTH 5 0
BBX 4 3 0 2
BITMAP
A0
B0
60
ENDCHAR
STARTCHAR U+1DBB
ENCODING 7611
SWIDTH 307 0
DWIDTH 4 0
BBX 3 3 0 2
BITMAP
E0
40
E0
ENDCHAR
STARTCHAR U+1DBF
ENCODING 7615
SWIDTH 307 0
DWIDTH 4 0
BBX 3 3 0 2
BITMAP
40
A0
40
ENDCHAR
STARTCHAR U+1DC4
ENCODING 7620
SWIDTH 384 0
DWIDTH 5 0
BBX 4 2 0 3
BITMAP
10
E0
ENDCHAR
STARTCHAR U+1DC5
ENCODING 7621
SWIDTH 384 0
DWIDTH 5 0
BBX 4 2 0 3
BITMAP
80
70
ENDCHAR
STARTCHAR U+1DC6
ENCODING 7622
SWIDTH 384 0
DWIDTH 5 0
BBX 4 2 0 3
BITMAP
E0
10
ENDCHAR
STARTCHAR U+1DC7
ENCODING 7623
SWIDTH 384 0
DWIDTH 5 0
BBX 4 2 0 3
BITMAP
70
80
ENDCHAR
STARTCHAR U+1DCA
ENCODING 7626
SWIDTH 230 0
DWIDTH 3 0
BBX 2 3 0 0
BITMAP
C0
80
80
ENDCHAR
STARTCHAR U+1E04
ENCODING 7684
SWIDTH 461 0
DWIDTH 6 0
BBX 5 7 0 -2
BITMAP
F0
D8
F0
D8
F0
00
20
ENDCHAR
STARTCHAR U+1E05
ENCODING 7685
SWIDTH 461 0
DWIDTH 6 0
BBX 5 7 0 -2
BITMAP
C0
F0
D8
D8
F0
00
20
ENDCHAR
STARTCHAR U+1E06
ENCODING 7686
SWIDTH 461 0
DWIDTH 6 0
BBX 5 7 0 -2
BITMAP
F0
D8
F0
D8
F0
00
70
ENDCHAR
STARTCHAR U+1E07
ENCODING 7687
SWIDTH 461 0
DWIDTH 6 0
BBX 5 7 0 -2
BITMAP
C0
F0
D8
D8
F0
00
70
ENDCHAR
STARTCHAR U+1E0A
ENCODING 7690
SWIDTH 461 0
DWIDTH 6 0
BBX 5 7 0 0
BITMAP
20
00
F0
D8
D8
D8
F0
ENDCHAR
STARTCHAR U+1E0B
ENCODING 7691
SWIDTH 461 0
DWIDTH 6 0
BBX 5 7 0 0
BITMAP
20
00
18
78
D8
D8
78
ENDCHAR
STARTCHAR U+1E0C
ENCODING 7692
SWIDTH 461 0
DWIDTH 6 0
BBX 5 7 0 -2
BITMAP
F0
D8
D8
D8
F0
00
20
ENDCHAR
STARTCHAR U+1E0D
ENCODING 7693
SWIDTH 461 0
DWIDTH 6 0
BBX 5 7 0 -2
BITMAP
18
78
D8
D8
78
00
20
ENDCHAR
STARTCHAR U+1E0E
ENCODING 7694
SWIDTH 461 0
DWIDTH 6 0
BBX 5 7 0 -2
BITMAP
F0
D8
D8
D8
F0
00
70
ENDCHAR
STARTCHAR U+1E0F
ENCODING 7695
SWIDTH 461 0
DWIDTH 6 0
BBX 5 7 0 -2
BITMAP
18
78
D8
D8
78
00
70
ENDCHAR
STARTCHAR U+1E10
ENCODING 7696
SWIDTH 461 0
DWIDTH 6 0
BBX 5 6 0 -1
BITMAP
F0
D8
D8
D8
F0
20
ENDCHAR
STARTCHAR U+1E11
ENCODING 7697
SWIDTH 461 0
DWIDTH 6 0
BBX 5 6 0 -1
BITMAP
18
78
D8
D8
78
20
ENDCHAR
STARTCHAR U+1E12
ENCODING 7698
SWIDTH 461 0
DWIDTH 6 0
BBX 5 8 0 -3
BITMAP
F0
D8
D8
D8
F0
00
20
50
ENDCHAR
STARTCHAR U+1E13
ENCODING 7699
SWIDTH 461 0
DWIDTH 6 0
BBX 5 8 0 -3
BITMAP
18
78
D8
D8
78
00
20
50
ENDCHAR
STARTCHAR U+1E14
ENCODING 7700
SWIDTH 461 0
DWIDTH 6 0
BBX 5 10 0 0
BITMAP
40
20
00
70
00
F8
C0
F0
C0
F8
ENDCHAR
STARTCHAR U+1E15
ENCODING 7701
SWIDTH 461 0
DWIDTH 6 0
BBX 5 9 0 0
BITMAP
40
20
00
70
00
70
F8
C0
70
ENDCHAR
STARTCHAR U+1E16
ENCODING 7702
SWIDTH 461 0
DWIDTH 6 0
BBX 5 10 0 0
BITMAP
10
20
00
70
00
F8
C0
F0
C0
F8
ENDCHAR
STARTCHAR U+1E17
ENCODING 7703
SWIDTH 461 0
DWIDTH 6 0
BBX 5 9 0 0
BITMAP
10
20
00
70
00
70
F8
C0
70
ENDCHAR
STARTCHAR U+1E1A
ENCODING 7706
SWIDTH 461 0
DWIDTH 6 0
BBX 5 8 0 -3
BITMAP
F8
C0
F0
C0
F8
00
50
A0
ENDCHAR
STARTCHAR U+1E1B
ENCODING 7707
SWIDTH 461 0
DWIDTH 6 0
BBX 5 7 0 -3
BITMAP
70
F8
C0
70
00
50
A0
ENDCHAR
STARTCHAR U+1E20
ENCODING 7712
SWIDTH 461 0
DWIDTH 6 0
BBX 5 7 0 0
BITMAP
70
00
78
C0
D8
D8
78
ENDCHAR
STARTCHAR U+1E21
ENCODING 7713
SWIDTH 461 0
DWIDTH 6 0
BBX 5 7 0 -1
BITMAP
70
00
78
D8
D8
78
F0
ENDCHAR
STARTCHAR U+1E22
ENCODING 7714
SWIDTH 461 0
DWIDTH 6 0
BBX 5 7 0 0
BITMAP
20
00
D8
D8
F8
D8
D8
ENDCHAR
STARTCHAR U+1E23
ENCODING 7715
SWIDTH 461 0
DWIDTH 6 0
BBX 5 7 0 0
BITMAP
20
00
C0
F0
D8
D8
D8
ENDCHAR
STARTCHAR U+1E24
ENCODING 7716
SWIDTH 461 0
DWIDTH 6 0
BBX 5 7 0 -2
BITMAP
D8
D8
F8
D8
D8
00
20
ENDCHAR
STARTCHAR U+1E25
ENCODING 7717
SWIDTH 461 0
DWIDTH 6 0
BBX 5 7 0 -2
BITMAP
C0
F0
D8
D8
D8
00
20
ENDCHAR
STARTCHAR U+1E2C
ENCODING 7724
SWIDTH 230 0
DWIDTH 3 0
BBX 4 8 -1 -3
BITMAP
60
60
60
60
60
00
50
A0
ENDCHAR
STARTCHAR U+1E2D
ENCODING 7725
SWIDTH 230 0
DWIDTH 3 0
BBX 4 9 -1 -3
BITMAP
60
00
60
60
60
60
00
50
A0
ENDCHAR
STARTCHAR U+1E2E
ENCODING 7726
SWIDTH 230 0
DWIDTH 3 0
BBX 3 10 0 0
BITMAP
20
40
00
A0
00
C0
C0
C0
C0
C0
ENDCHAR
STARTCHAR U+1E2F
ENCODING 7727
SWIDTH 230 0
DWIDTH 3 0
BBX 3 9 0 0
BITMAP
20
40
00
A0
00
C0
C0
C0
C0
ENDCHAR
STARTCHAR U+1E30
ENCODING 7728
SWIDTH 461 0
DWIDTH 6 0
BBX 5 8 0 0
BITMAP
10
20
00
D8
F0
E0
F0
D8
ENDCHAR
STARTCHAR U+1E31
ENCODING 7729
SWIDTH 461 0
DWIDTH 6 0
BBX 5 8 0 0
BITMAP
10
20
00
C0
D8
F0
D8
D8
ENDCHAR
STARTCHAR U+1E32
ENCODING 7730
SWIDTH 461 0
DWIDTH 6 0
BBX 5 7 0 -2
BITMAP
D8
F0
E0
F0
D8
00
20
ENDCHAR
STARTCHAR U+1E33
ENCODING 7731
SWIDTH 461 0
DWIDTH 6 0
BBX 5 7 0 -2
BITMAP
C0
D8
F0
D8
D8
00
20
ENDCHAR
STARTCHAR U+1E34
ENCODING 7732
SWIDTH 461 0
DWIDTH 6 0
BBX 5 7 0 -2
BITMAP
D8
F0
E0
F0
D8
00
70
ENDCHAR
STARTCHAR U+1E35
ENCODING 7733
SWIDTH 461 0
DWIDTH 6 0
BBX 5 7 0 -2
BITMAP
C0
D8
F0
D8
D8
00
70
ENDCHAR
STARTCHAR U+1E36
ENCODING 7734
SWIDTH 461 0
DWIDTH 6 0
BBX 5 7 0 -2
BITMAP
C0
C0
C0
C0
F8
00
20
ENDCHAR
STARTCHAR U+1E37
ENCODING 7735
SWIDTH 230 0
DWIDTH 3 0
BBX 2 7 0 -2
BITMAP
C0
C0
C0
C0
C0
00
40
ENDCHAR
STARTCHAR U+1E3C
ENCODING 7740
SWIDTH 461 0
DWIDTH 6 0
BBX 5 8 0 -3
BITMAP
C0
C0
C0
C0
F8
00
20
50
ENDCHAR
STARTCHAR U+1E3D
ENCODING 7741
SWIDTH 230 0
DWIDTH 3 0
BBX 3 8 0 -3
BITMAP
C0
C0
C0
C0
C0
00
40
A0
ENDCHAR
STARTCHAR U+1E3E
ENCODING 7742
SWIDTH 615 0
DWIDTH 8 0
BBX 7 8 0 0
BITMAP
08
10
00
C6
EE
D6
C6
C6
ENDCHAR
STARTCHAR U+1E3F
ENCODING 7743
SWIDTH 692 0
DWIDTH 9 0
BBX 8 7 0 0
BITMAP
08
10
00
FE
DB
DB
DB
ENDCHAR
STARTCHAR U+1E42
ENCODING 7746
SWIDTH 615 0
DWIDTH 8 0
BBX 7 7 0 -2
BITMAP
C6
EE
D6
C6
C6
00
10
ENDCHAR
STARTCHAR U+1E43
ENCODING 7747
SWIDTH 692 0
DWIDTH 9 0
BBX 8 6 0 -2
BITMAP
FE
DB
DB
DB
00
08
ENDCHAR
STARTCHAR U+1E44
ENCODING 7748
SWIDTH 538 0
DWIDTH 7 0
BBX 6 7 0 0
BITMAP
10
00
CC
EC
DC
CC
CC
ENDCHAR
STARTCHAR U+1E45
ENCODING 7749
SWIDTH 461 0
DWIDTH 6 0
BBX 5 6 0 0
BITMAP
20
00
F0
D8
D8
D8
ENDCHAR
STARTCHAR U+1E46
ENCODING 7750
SWIDTH 538 0
DWIDTH 7 0
BBX 6 7 0 -2
BITMAP
CC
EC
DC
CC
CC
00
10
ENDCHAR
STARTCHAR U+1E47
ENCODING 7751
SWIDTH 461 0
DWIDTH 6 0
BBX 5 6 0 -2
BITMAP
F0
D8
D8
D8
00
20
ENDCHAR
STARTCHAR U+1E48
ENCODING 7752
SWIDTH 538 0
DWIDTH 7 0
BBX 6 7 0 -2
BITMAP
CC
EC
DC
CC
CC
00
78
ENDCHAR
STARTCHAR U+1E49
ENCODING 7753
SWIDTH 461 0
DWIDTH 6 0
BBX 5 6 0 -2
BITMAP
F0
D8
D8
D8
00
70
ENDCHAR
STARTCHAR U+1E4A
ENCODING 7754
SWIDTH 538 0
DWIDTH 7 0
BBX 6 8 0 -3
BITMAP
CC
EC
DC
CC
CC
00
10
28
ENDCHAR
STARTCHAR U+1E4B
ENCODING 7755
SWIDTH 461 0
DWIDTH 6 0
BBX 5 7 0 -3
BITMAP
F0
D8
D8
D8
00
20
50
ENDCHAR
STARTCHAR U+1E4C
ENCODING 7756
SWIDTH 461 0
DWIDTH 6 0
BBX 5 11 0 0
BITMAP
10
20
00
28
50
00
70
D8
D8
D8
70
ENDCHAR
STARTCHAR U+1E4D
ENCODING 7757
SWIDTH 461 0
DWIDTH 6 0
BBX 5 10 0 0
BITMAP
10
20
00
28
50
00
70
D8
D8
70
ENDCHAR
STARTCHAR U+1E50
ENCODING 7760
SWIDTH 461 0
DWIDTH 6 0
BBX 5 10 0 0
BITMAP
40
20
00
70
00
70
D8
D8
D8
70
ENDCHAR
STARTCHAR U+1E51
ENCODING 7761
SWIDTH 461 0
DWIDTH 6 0
BBX 5 9 0 0
BITMAP
40
20
00
70
00
70
D8
D8
70
ENDCHAR
STARTCHAR U+1E52
ENCODING 7762
SWIDTH 461 0
DWIDTH 6 0
BBX 5 10 0 0
BITMAP
10
20
00
70
00
70
D8
D8
D8
70
ENDCHAR
STARTCHAR U+1E53
ENCODING 7763
SWIDTH 461 0
DWIDTH 6 0
BBX 5 9 0 0
BITMAP
10
20
00
70
00
70
D8
D8
70
ENDCHAR
STARTCHAR U+1E54
ENCODING 7764
SWIDTH 461 0
DWIDTH 6 0
BBX 5 8 0 0
BITMAP
10
20
00
F0
D8
F0
C0
C0
ENDCHAR
STARTCHAR U+1E55
ENCODING 7765
SWIDTH 461 0
DWIDTH 6 0
BBX 5 8 0 -1
BITMAP
10
20
00
F0
D8
D8
F0
C0
ENDCHAR
STARTCHAR U+1E56
ENCODING 7766
SWIDTH 461 0
DWIDTH 6 0
BBX 5 7 0 0
BITMAP
20
00
F0
D8
F0
C0
C0
ENDCHAR
STARTCHAR U+1E57
ENCODING 7767
SWIDTH 461 0
DWIDTH 6 0
BBX 5 7 0 -1
BITMAP
20
00
F0
D8
D8
F0
C0
ENDCHAR
STARTCHAR U+1E5A
ENCODING 7770
SWIDTH 461 0
DWIDTH 6 0
BBX 5 7 0 -2
BITMAP
F0
D8
F0
D8
D8
00
20
ENDCHAR
STARTCHAR U+1E5B
ENCODING 7771
SWIDTH 307 0
DWIDTH 4 0
BBX 3 6 0 -2
BITMAP
E0
C0
C0
C0
00
40
ENDCHAR
STARTCHAR U+1E60
ENCODING 7776
SWIDTH 461 0
DWIDTH 6 0
BBX 5 7 0 0
BITMAP
20
00
78
C0
70
18
F0
ENDCHAR
STARTCHAR U+1E61
ENCODING 7777
SWIDTH 384 0
DWIDTH 5 0
BBX 4 6 0 0
BITMAP
20
00
70
E0
30
E0
ENDCHAR
STARTCHAR U+1E62
ENCODING 7778
SWIDTH 461 0
DWIDTH 6 0
BBX 5 7 0 -2
BITMAP
78
C0
70
18
F0
00
20
ENDCHAR
STARTCHAR U+1E63
ENCODING 7779
SWIDTH 384 0
DWIDTH 5 0
BBX 4 6 0 -2
BITMAP
70
E0
30
E0
00
20
ENDCHAR
STARTCHAR U+1E6A
ENCODING 7786
SWIDTH 384 0
DWIDTH 5 0
BBX 4 7 0 0
BITMAP
20
00
F0
60
60
60
60
ENDCHAR
STARTCHAR U+1E6B
ENCODING 7787
SWIDTH 307 0
DWIDTH 4 0
BBX 3 7 0 0
BITMAP
40
00
C0
E0
C0
C0
60
ENDCHAR
STARTCHAR U+1E6C
ENCODING 7788
SWIDTH 384 0
DWIDTH 5 0
BBX 4 7 0 -2
BITMAP
F0
60
60
60
60
00
20
ENDCHAR
STARTCHAR U+1E6D
ENCODING 7789
SWIDTH 307 0
DWIDTH 4 0
BBX 3 7 0 -2
BITMAP
C0
E0
C0
C0
60
00
40
ENDCHAR
STARTCHAR U+1E6E
ENCODING 7790
SWIDTH 384 0
DWIDTH 5 0
BBX 4 7 0 -2
BITMAP
F0
60
60
60
60
00
70
ENDCHAR
STARTCHAR U+1E6F
ENCODING 7791
SWIDTH 307 0
DWIDTH 4 0
BBX 3 7 0 -2
BITMAP
C0
E0
C0
C0
60
00
E0
ENDCHAR
STARTCHAR U+1E70
ENCODING 7792
SWIDTH 384 0
DWIDTH 5 0
BBX 4 8 0 -3
BITMAP
F0
60
60
60
60
00
20
50
ENDCHAR
STARTCHAR U+1E71
ENCODING 7793
SWIDTH 307 0
DWIDTH 4 0
BBX 3 8 0 -3
BITMAP
C0
E0
C0
C0
60
00
40
A0
ENDCHAR
STARTCHAR U+1E72
ENCODING 7794
SWIDTH 461 0
DWIDTH 6 0
BBX 5 7 0 -2
BITMAP
D8
D8
D8
D8
70
00
50
ENDCHAR
STARTCHAR U+1E73
ENCODING 7795
SWIDTH 461 0
DWIDTH 6 0
BBX 5 6 0 -2
BITMAP
D8
D8
D8
78
00
50
ENDCHAR
STARTCHAR U+1E74
ENCODING 7796
SWIDTH 461 0
DWIDTH 6 0
BBX 5 8 0 -3
BITMAP
D8
D8
D8
D8
70
00
50
A0
ENDCHAR
STARTCHAR U+1E75
ENCODING 7797
SWIDTH 461 0
DWIDTH 6 0
BBX 5 7 0 -3
BITMAP
D8
D8
D8
78
00
50
A0
ENDCHAR
STARTCHAR U+1E78
ENCODING 7800
SWIDTH 461 0
DWIDTH 6 0
BBX 5 11 0 0
BITMAP
10
20
00
28
50
00
D8
D8
D8
D8
70
ENDCHAR
STARTCHAR U+1E79
ENCODING 7801
SWIDTH 461 0
DWIDTH 6 0
BBX 5 10 0 0
BITMAP
10
20
00
28
50
00
D8
D8
D8
78
ENDCHAR
STARTCHAR U+1E7C
ENCODING 7804
SWIDTH 461 0
DWIDTH 6 0
BBX 5 8 0 0
BITMAP
28
50
00
D8
D8
D8
70
70
ENDCHAR
STARTCHAR U+1E7D
ENCODING 7805
SWIDTH 461 0
DWIDTH 6 0
BBX 5 7 0 0
BITMAP
28
50
00
D8
D8
70
70
ENDCHAR
STARTCHAR U+1E7E
ENCODING 7806
SWIDTH 461 0
DWIDTH 6 0
BBX 5 7 0 -2
BITMAP
D8
D8
D8
70
70
00
20
ENDCHAR
STARTCHAR U+1E7F
ENCODING 7807
SWIDTH 461 0
DWIDTH 6 0
BBX 5 6 0 -2
BITMAP
D8
D8
70
70
00
20
ENDCHAR
STARTCHAR U+1E80
ENCODING 7808
SWIDTH 615 0
DWIDTH 8 0
BBX 7 8 0 0
BITMAP
20
10
00
C6
D6
D6
7C
6C
ENDCHAR
STARTCHAR U+1E81
ENCODING 7809
SWIDTH 615 0
DWIDTH 8 0
BBX 7 7 0 0
BITMAP
20
10
00
C6
D6
7C
6C
ENDCHAR
STARTCHAR U+1E82
ENCODING 7810
SWIDTH 615 0
DWIDTH 8 0
BBX 7 8 0 0
BITMAP
08
10
00
C6
D6
D6
7C
6C
ENDCHAR
STARTCHAR U+1E83
ENCODING 7811
SWIDTH 615 0
DWIDTH 8 0
BBX 7 7 0 0
BITMAP
08
10
00
C6
D6
7C
6C
ENDCHAR
STARTCHAR U+1E84
ENCODING 7812
SWIDTH 615 0
DWIDTH 8 0
BBX 7 7 0 0
BITMAP
28
00
C6
D6
D6
7C
6C
ENDCHAR
STARTCHAR U+1E85
ENCODING 7813
SWIDTH 615 0
DWIDTH 8 0
BBX 7 6 0 0
BITMAP
28
00
C6
D6
7C
6C
ENDCHAR
STARTCHAR U+1E8A
ENCODING 7818
SWIDTH 461 0
DWIDTH 6 0
BBX 5 7 0 0
BITMAP
20
00
D8
D8
70
D8
D8
ENDCHAR
STARTCHAR U+1E8B
ENCODING 7819
SWIDTH 461 0
DWIDTH 6 0
BBX 5 6 0 0
BITMAP
20
00
D8
70
70
D8
ENDCHAR
STARTCHAR U+1E8C
ENCODING 7820
SWIDTH 461 0
DWIDTH 6 0
BBX 5 7 0 0
BITMAP
50
00
D8
D8
70
D8
D8
ENDCHAR
STARTCHAR U+1E8D
ENCODING 7821
SWIDTH 461 0
DWIDTH 6 0
BBX 5 6 0 0
BITMAP
50
00
D8
70
70
D8
ENDCHAR
STARTCHAR U+1E90
ENCODING 7824
SWIDTH 461 0
DWIDTH 6 0
BBX 5 8 0 0
BITMAP
20
50
00
F8
30
60
C0
F8
ENDCHAR
STARTCHAR U+1E91
ENCODING 7825
SWIDTH 384 0
DWIDTH 5 0
BBX 4 7 0 0
BITMAP
20
50
00
F0
60
C0
F0
ENDCHAR
STARTCHAR U+1E92
ENCODING 7826
SWIDTH 461 0
DWIDTH 6 0
BBX 5 7 0 -2
BITMAP
F8
30
60
C0
F8
00
20
ENDCHAR
STARTCHAR U+1E93
ENCODING 7827
SWIDTH 384 0
DWIDTH 5 0
BBX 4 6 0 -2
BITMAP
F0
60
C0
F0
00
20
ENDCHAR
STARTCHAR U+1E94
ENCODING 7828
SWIDTH 461 0
DWIDTH 6 0
BBX 5 7 0 -2
BITMAP
F8
30
60
C0
F8
00
70
ENDCHAR
STARTCHAR U+1E95
ENCODING 7829
SWIDTH 384 0
DWIDTH 5 0
BBX 4 6 0 -2
BITMAP
F0
60
C0
F0
00
70
ENDCHAR
STARTCHAR U+1E96
ENCODING 7830
SWIDTH 461 0
DWIDTH 6 0
BBX 5 7 0 -2
BITMAP
C0
F0
D8
D8
D8
00
70
ENDCHAR
STARTCHAR U+1E9E
ENCODING 7838
SWIDTH 538 0
DWIDTH 7 0
BBX 6 5 0 0
BITMAP
7C
CC
D8
CC
D8
ENDCHAR
STARTCHAR U+1EA0
ENCODING 7840
SWIDTH 461 0
DWIDTH 6 0
BBX 5 7 0 -2
BITMAP
70
D8
F8
D8
D8
00
20
ENDCHAR
STARTCHAR U+1EA1
ENCODING 7841
SWIDTH 461 0
DWIDTH 6 0
BBX 5 6 0 -2
BITMAP
78
D8
D8
78
00
20
ENDCHAR
STARTCHAR U+1EA2
ENCODING 7842
SWIDTH 461 0
DWIDTH 6 0
BBX 5 8 0 0
BITMAP
60
20
00
70
D8
F8
D8
D8
ENDCHAR
STARTCHAR U+1EA3
ENCODING 7843
SWIDTH 461 0
DWIDTH 6 0
BBX 5 7 0 0
BITMAP
60
20
00
78
D8
D8
78
ENDCHAR
STARTCHAR U+1EA4
ENCODING 7844
SWIDTH 461 0
DWIDTH 6 0
BBX 5 11 0 0
BITMAP
10
20
00
20
50
00
70
D8
F8
D8
D8
ENDCHAR
STARTCHAR U+1EA5
ENCODING 7845
SWIDTH 461 0
DWIDTH 6 0
BBX 5 10 0 0
BITMAP
10
20
00
20
50
00
78
D8
D8
78
ENDCHAR
STARTCHAR U+1EA6
ENCODING 7846
SWIDTH 461 0
DWIDTH 6 0
BBX 5 11 0 0
BITMAP
40
20
00
20
50
00
70
D8
F8
D8
D8
ENDCHAR
STARTCHAR U+1EA7
ENCODING 7847
SWIDTH 461 0
DWIDTH 6 0
BBX 5 10 0 0
BITMAP
40
20
00
20
50
00
78
D8
D8
78
ENDCHAR
STARTCHAR U+1EA8
ENCODING 7848
SWIDTH 461 0
DWIDTH 6 0
BBX 5 11 0 0
BITMAP
60
20
00
20
50
00
70
D8
F8
D8
D8
ENDCHAR
STARTCHAR U+1EA9
ENCODING 7849
SWIDTH 461 0
DWIDTH 6 0
BBX 5 10 0 0
BITMAP
60
20
00
20
50
00
78
D8
D8
78
ENDCHAR
STARTCHAR U+1EAA
ENCODING 7850
SWIDTH 461 0
DWIDTH 6 0
BBX 5 11 0 0
BITMAP
28
50
00
20
50
00
70
D8
F8
D8
D8
ENDCHAR
STARTCHAR U+1EAB
ENCODING 7851
SWIDTH 461 0
DWIDTH 6 0
BBX 5 10 0 0
BITMAP
28
50
00
20
50
00
78
D8
D8
78
ENDCHAR
STARTCHAR U+1EAC
ENCODING 7852
SWIDTH 461 0
DWIDTH 6 0
BBX 5 10 0 -2
BITMAP
20
50
00
70
D8
F8
D8
D8
00
20
ENDCHAR
STARTCHAR U+1EAD
ENCODING 7853
SWIDTH 461 0
DWIDTH 6 0
BBX 5 9 0 -2
BITMAP
20
50
00
78
D8
D8
78
00
20
ENDCHAR
STARTCHAR U+1EAE
ENCODING 7854
SWIDTH 461 0
DWIDTH 6 0
BBX 5 11 0 0
BITMAP
10
20
00
50
20
00
70
D8
F8
D8
D8
ENDCHAR
STARTCHAR U+1EAF
ENCODING 7855
SWIDTH 461 0
DWIDTH 6 0
BBX 5 10 0 0
BITMAP
10
20
00
50
20
00
78
D8
D8
78
ENDCHAR
STARTCHAR U+1EB0
ENCODING 7856
SWIDTH 461 0
DWIDTH 6 0
BBX 5 11 0 0
BITMAP
40
20
00
50
20
00
70
D8
F8
D8
D8
ENDCHAR
STARTCHAR U+1EB1
ENCODING 7857
SWIDTH 461 0
DWIDTH 6 0
BBX 5 10 0 0
BITMAP
40
20
00
50
20
00
78
D8
D8
78
ENDCHAR
STARTCHAR U+1EB2
ENCODING 7858
SWIDTH 461 0
DWIDTH 6 0
BBX 5 11 0 0
BITMAP
60
20
00
50
20
00
70
D8
F8
D8
D8
ENDCHAR
STARTCHAR U+1EB3
ENCODING 7859
SWIDTH 461 0
DWIDTH 6 0
BBX 5 10 0 0
BITMAP
60
20
00
50
20
00
78
D8
D8
78
ENDCHAR
STARTCHAR U+1EB4
ENCODING 7860
SWIDTH 461 0
DWIDTH 6 0
BBX 5 11 0 0
BITMAP
28
50
00
50
20
00
70
D8
F8
D8
D8
ENDCHAR
STARTCHAR U+1EB5
ENCODING 7861
SWIDTH 461 0
DWIDTH 6 0
BBX 5 10 0 0
BITMAP
28
50
00
50
20
00
78
D8
D8
78
ENDCHAR
STARTCHAR U+1EB6
ENCODING 7862
SWIDTH 461 0
DWIDTH 6 0
BBX 5 10 0 -2
BITMAP
50
20
00
70
D8
F8
D8
D8
00
20
ENDCHAR
STARTCHAR U+1EB7
ENCODING 7863
SWIDTH 461 0
DWIDTH 6 0
BBX 5 9 0 -2
BITMAP
50
20
00
78
D8
D8
78
00
20
ENDCHAR
STARTCHAR U+1EB8
ENCODING 7864
SWIDTH 461 0
DWIDTH 6 0
BBX 5 7 0 -2
BITMAP
F8
C0
F0
C0
F8
00
20
ENDCHAR
STARTCHAR U+1EB9
ENCODING 7865
SWIDTH 461 0
DWIDTH 6 0
BBX 5 6 0 -2
BITMAP
70
F8
C0
70
00
20
ENDCHAR
STARTCHAR U+1EBA
ENCODING 7866
SWIDTH 461 0
DWIDTH 6 0
BBX 5 8 0 0
BITMAP
60
20
00
F8
C0
F0
C0
F8
ENDCHAR
STARTCHAR U+1EBB
ENCODING 7867
SWIDTH 461 0
DWIDTH 6 0
BBX 5 7 0 0
BITMAP
60
20
00
70
F8
C0
70
ENDCHAR
STARTCHAR U+1EBC
ENCODING 7868
SWIDTH 461 0
DWIDTH 6 0
BBX 5 8 0 0
BITMAP
28
50
00
F8
C0
F0
C0
F8
ENDCHAR
STARTCHAR U+1EBD
ENCODING 7869
SWIDTH 461 0
DWIDTH 6 0
BBX 5 7 0 0
BITMAP
28
50
00
70
F8
C0
70
ENDCHAR
STARTCHAR U+1EBE
ENCODING 7870
SWIDTH 461 0
DWIDTH 6 0
BBX 5 11 0 0
BITMAP
10
20
00
20
50
00
F8
C0
F0
C0
F8
ENDCHAR
STARTCHAR U+1EBF
ENCODING 7871
SWIDTH 461 0
DWIDTH 6 0
BBX 5 10 0 0
BITMAP
10
20
00
20
50
00
70
F8
C0
70
ENDCHAR
STARTCHAR U+1EC0
ENCODING 7872
SWIDTH 461 0
DWIDTH 6 0
BBX 5 11 0 0
BITMAP
40
20
00
20
50
00
F8
C0
F0
C0
F8
ENDCHAR
STARTCHAR U+1EC1
ENCODING 7873
SWIDTH 461 0
DWIDTH 6 0
BBX 5 10 0 0
BITMAP
40
20
00
20
50
00
70
F8
C0
70
ENDCHAR
STARTCHAR U+1EC2
ENCODING 7874
SWIDTH 461 0
DWIDTH 6 0
BBX 5 11 0 0
BITMAP
60
20
00
20
50
00
F8
C0
F0
C0
F8
ENDCHAR
STARTCHAR U+1EC3
ENCODING 7875
SWIDTH 461 0
DWIDTH 6 0
BBX 5 10 0 0
BITMAP
60
20
00
20
50
00
70
F8
C0
70
ENDCHAR
STARTCHAR U+1EC4
ENCODING 7876
SWIDTH 461 0
DWIDTH 6 0
BBX 5 11 0 0
BITMAP
28
50
00
20
50
00
F8
C0
F0
C0
F8
ENDCHAR
STARTCHAR U+1EC5
ENCODING 7877
SWIDTH 461 0
DWIDTH 6 0
BBX 5 10 0 0
BITMAP
28
50
00
20
50
00
70
F8
C0
70
ENDCHAR
STARTCHAR U+1EC6
ENCODING 7878
SWIDTH 461 0
DWIDTH 6 0
BBX 5 10 0 -2
BITMAP
20
50
00
F8
C0
F0
C0
F8
00
20
ENDCHAR
STARTCHAR U+1EC7
ENCODING 7879
SWIDTH 461 0
DWIDTH 6 0
BBX 5 9 0 -2
BITMAP
20
50
00
70
F8
C0
70
00
20
ENDCHAR
STARTCHAR U+1EC8
ENCODING 7880
SWIDTH 230 0
DWIDTH 3 0
BBX 2 8 0 0
BITMAP
C0
40
00
C0
C0
C0
C0
C0
ENDCHAR
STARTCHAR U+1EC9
ENCODING 7881
SWIDTH 230 0
DWIDTH 3 0
BBX 2 7 0 0
BITMAP
C0
40
00
C0
C0
C0
C0
ENDCHAR
STARTCHAR U+1ECA
ENCODING 7882
SWIDTH 230 0
DWIDTH 3 0
BBX 2 7 0 -2
BITMAP
C0
C0
C0
C0
C0
00
40
ENDCHAR
STARTCHAR U+1ECB
ENCODING 7883
SWIDTH 230 0
DWIDTH 3 0
BBX 2 8 0 -2
BITMAP
C0
00
C0
C0
C0
C0
00
40
ENDCHAR
STARTCHAR U+1ECC
ENCODING 7884
SWIDTH 461 0
DWIDTH 6 0
BBX 5 7 0 -2
BITMAP
70
D8
D8
D8
70
00
20
ENDCHAR
STARTCHAR U+1ECD
ENCODING 7885
SWIDTH 461 0
DWIDTH 6 0
BBX 5 6 0 -2
BITMAP
70
D8
D8
70
00
20
ENDCHAR
STARTCHAR U+1ECE
ENCODING 7886
SWIDTH 461 0
DWIDTH 6 0
BBX 5 8 0 0
BITMAP
60
20
00
70
D8
D8
D8
70
ENDCHAR
STARTCHAR U+1ECF
ENCODING 7887
SWIDTH 461 0
DWIDTH 6 0
BBX 5 7 0 0
BITMAP
60
20
00
70
D8
D8
70
ENDCHAR
STARTCHAR U+1ED0
ENCODING 7888
SWIDTH 461 0
DWIDTH 6 0
BBX 5 11 0 0
BITMAP
10
20
00
20
50
00
70
D8
D8
D8
70
ENDCHAR
STARTCHAR U+1ED1
ENCODING 7889
SWIDTH 461 0
DWIDTH 6 0
BBX 5 10 0 0
BITMAP
10
20
00
20
50
00
70
D8
D8
70
ENDCHAR
STARTCHAR U+1ED2
ENCODING 7890
SWIDTH 461 0
DWIDTH 6 0
BBX 5 11 0 0
BITMAP
40
20
00
20
50
00
70
D8
D8
D8
70
ENDCHAR
STARTCHAR U+1ED3
ENCODING 7891
SWIDTH 461 0
DWIDTH 6 0
BBX 5 10 0 0
BITMAP
40
20
00
20
50
00
70
D8
D8
70
ENDCHAR
STARTCHAR U+1ED4
ENCODING 7892
SWIDTH 461 0
DWIDTH 6 0
BBX 5 11 0 0
BITMAP
60
20
00
20
50
00
70
D8
D8
D8
70
ENDCHAR
STARTCHAR U+1ED5
ENCODING 7893
SWIDTH 461 0
DWIDTH 6 0
BBX 5 10 0 0
BITMAP
60
20
00
20
50
00
70
D8
D8
70
ENDCHAR
STARTCHAR U+1ED6
ENCODING 7894
SWIDTH 461 0
DWIDTH 6 0
BBX 5 11 0 0
BITMAP
28
50
00
20
50
00
70
D8
D8
D8
70
ENDCHAR
STARTCHAR U+1ED7
ENCODING 7895
SWIDTH 461 0
DWIDTH 6 0
BBX 5 10 0 0
BITMAP
28
50
00
20
50
00
70
D8
D8
70
ENDCHAR
STARTCHAR U+1ED8
ENCODING 7896
SWIDTH 461 0
DWIDTH 6 0
BBX 5 10 0 -2
BITMAP
20
50
00
70
D8
D8
D8
70
00
20
ENDCHAR
STARTCHAR U+1ED9
ENCODING 7897
SWIDTH 461 0
DWIDTH 6 0
BBX 5 9 0 -2
BITMAP
20
50
00
70
D8
D8
70
00
20
ENDCHAR
STARTCHAR U+1EDA
ENCODING 7898
SWIDTH 538 0
DWIDTH 7 0
BBX 6 8 0 0
BITMAP
10
20
00
74
DC
D8
D8
70
ENDCHAR
STARTCHAR U+1EDB
ENCODING 7899
SWIDTH 538 0
DWIDTH 7 0
BBX 6 7 0 0
BITMAP
10
20
00
74
DC
D8
70
ENDCHAR
STARTCHAR U+1EDC
ENCODING 7900
SWIDTH 538 0
DWIDTH 7 0
BBX 6 8 0 0
BITMAP
40
20
00
74
DC
D8
D8
70
ENDCHAR
STARTCHAR U+1EDD
ENCODING 7901
SWIDTH 538 0
DWIDTH 7 0
BBX 6 7 0 0
BITMAP
40
20
00
74
DC
D8
70
ENDCHAR
STARTCHAR U+1EDE
ENCODING 7902
SWIDTH 538 0
DWIDTH 7 0
BBX 6 8 0 0
BITMAP
60
20
00
74
DC
D8
D8
70
ENDCHAR
STARTCHAR U+1EDF
ENCODING 7903
SWIDTH 538 0
DWIDTH 7 0
BBX 6 7 0 0
BITMAP
60
20
00
74
DC
D8
70
ENDCHAR
STARTCHAR U+1EE0
ENCODING 7904
SWIDTH 538 0
DWIDTH 7 0
BBX 6 8 0 0
BITMAP
28
50
00
74
DC
D8
D8
70
ENDCHAR
STARTCHAR U+1EE1
ENCODING 7905
SWIDTH 538 0
DWIDTH 7 0
BBX 6 7 0 0
BITMAP
28
50
00
74
DC
D8
70
ENDCHAR
STARTCHAR U+1EE2
ENCODING 7906
SWIDTH 538 0
DWIDTH 7 0
BBX 6 7 0 -2
BITMAP
74
DC
D8
D8
70
00
20
ENDCHAR
STARTCHAR U+1EE3
ENCODING 7907
SWIDTH 538 0
DWIDTH 7 0
BBX 6 6 0 -2
BITMAP
74
DC
D8
70
00
20
ENDCHAR
STARTCHAR U+1EE4
ENCODING 7908
SWIDTH 461 0
DWIDTH 6 0
BBX 5 7 0 -2
BITMAP
D8
D8
D8
D8
70
00
20
ENDCHAR
STARTCHAR U+1EE5
ENCODING 7909
SWIDTH 461 0
DWIDTH 6 0
BBX 5 6 0 -2
BITMAP
D8
D8
D8
78
00
20
ENDCHAR
STARTCHAR U+1EE6
ENCODING 7910
SWIDTH 461 0
DWIDTH 6 0
BBX 5 8 0 0
BITMAP
60
20
00
D8
D8
D8
D8
70
ENDCHAR
STARTCHAR U+1EE7
ENCODING 7911
SWIDTH 461 0
DWIDTH 6 0
BBX 5 7 0 0
BITMAP
60
20
00
D8
D8
D8
78
ENDCHAR
STARTCHAR U+1EE8
ENCODING 7912
SWIDTH 538 0
DWIDTH 7 0
BBX 6 8 0 0
BITMAP
10
20
04
DC
D8
D8
D8
70
ENDCHAR
STARTCHAR U+1EE9
ENCODING 7913
SWIDTH 538 0
DWIDTH 7 0
BBX 6 7 0 0
BITMAP
10
20
04
DC
D8
D8
78
ENDCHAR
STARTCHAR U+1EEA
ENCODING 7914
SWIDTH 538 0
DWIDTH 7 0
BBX 6 8 0 0
BITMAP
40
20
04
DC
D8
D8
D8
70
ENDCHAR
STARTCHAR U+1EEB
ENCODING 7915
SWIDTH 538 0
DWIDTH 7 0
BBX 6 7 0 0
BITMAP
40
20
04
DC
D8
D8
78
ENDCHAR
STARTCHAR U+1EEC
ENCODING 7916
SWIDTH 538 0
DWIDTH 7 0
BBX 6 8 0 0
BITMAP
60
20
04
DC
D8
D8
D8
70
ENDCHAR
STARTCHAR U+1EED
ENCODING 7917
SWIDTH 538 0
DWIDTH 7 0
BBX 6 7 0 0
BITMAP
60
20
04
DC
D8
D8
78
ENDCHAR
STARTCHAR U+1EEE
ENCODING 7918
SWIDTH 538 0
DWIDTH 7 0
BBX 6 8 0 0
BITMAP
28
50
04
DC
D8
D8
D8
70
ENDCHAR
STARTCHAR U+1EEF
ENCODING 7919
SWIDTH 538 0
DWIDTH 7 0
BBX 6 7 0 0
BITMAP
28
50
04
DC
D8
D8
78
ENDCHAR
STARTCHAR U+1EF0
ENCODING 7920
SWIDTH 538 0
DWIDTH 7 0
BBX 6 8 0 -2
BITMAP
04
DC
D8
D8
D8
70
00
20
ENDCHAR
STARTCHAR U+1EF1
ENCODING 7921
SWIDTH 538 0
DWIDTH 7 0
BBX 6 7 0 -2
BITMAP
04
DC
D8
D8
78
00
20
ENDCHAR
STARTCHAR U+1EF2
ENCODING 7922
SWIDTH 538 0
DWIDTH 7 0
BBX 6 8 0 0
BITMAP
20
10
00
CC
78
30
30
30
ENDCHAR
STARTCHAR U+1EF3
ENCODING 7923
SWIDTH 461 0
DWIDTH 6 0
BBX 5 8 0 -1
BITMAP
40
20
00
D8
D8
D8
70
E0
ENDCHAR
STARTCHAR U+1EF4
ENCODING 7924
SWIDTH 538 0
DWIDTH 7 0
BBX 6 7 0 -2
BITMAP
CC
78
30
30
30
00
10
ENDCHAR
STARTCHAR U+1EF5
ENCODING 7925
SWIDTH 461 0
DWIDTH 6 0
BBX 5 7 0 -3
BITMAP
D8
D8
D8
70
E0
00
20
ENDCHAR
STARTCHAR U+1EF6
ENCODING 7926
SWIDTH 538 0
DWIDTH 7 0
BBX 6 8 0 0
BITMAP
30
10
00
CC
78
30
30
30
ENDCHAR
STARTCHAR U+1EF7
ENCODING 7927
SWIDTH 461 0
DWIDTH 6 0
BBX 5 8 0 -1
BITMAP
60
20
00
D8
D8
D8
70
E0
ENDCHAR
STARTCHAR U+1EF8
ENCODING 7928
SWIDTH 538 0
DWIDTH 7 0
BBX 6 8 0 0
BITMAP
28
50
00
CC
78
30
30
30
ENDCHAR
STARTCHAR U+1EF9
ENCODING 7929
SWIDTH 461 0
DWIDTH 6 0
BBX 5 8 0 -1
BITMAP
28
50
00
D8
D8
D8
70
E0
ENDCHAR
STARTCHAR U+1F00
ENCODING 7936
SWIDTH 461 0
DWIDTH 6 0
BBX 5 7 0 0
BITMAP
60
20
00
78
D8
D8
78
ENDCHAR
STARTCHAR U+1F01
ENCODING 7937
SWIDTH 461 0
DWIDTH 6 0
BBX 5 7 0 0
BITMAP
30
20
00
78
D8
D8
78
ENDCHAR
STARTCHAR U+1F02
ENCODING 7938
SWIDTH 461 0
DWIDTH 6 0
BBX 5 7 0 0
BITMAP
D0
48
00
78
D8
D8
78
ENDCHAR
STARTCHAR U+1F03
ENCODING 7939
SWIDTH 461 0
DWIDTH 6 0
BBX 5 7 0 0
BITMAP
D0
88
00
78
D8
D8
78
ENDCHAR
STARTCHAR U+1F04
ENCODING 7940
SWIDTH 461 0
DWIDTH 6 0
BBX 5 7 0 0
BITMAP
C8
50
00
78
D8
D8
78
ENDCHAR
STARTCHAR U+1F05
ENCODING 7941
SWIDTH 461 0
DWIDTH 6 0
BBX 5 7 0 0
BITMAP
C8
90
00
78
D8
D8
78
ENDCHAR
STARTCHAR U+1F06
ENCODING 7942
SWIDTH 461 0
DWIDTH 6 0
BBX 5 10 0 0
BITMAP
50
A0
00
60
20
00
78
D8
D8
78
ENDCHAR
STARTCHAR U+1F07
ENCODING 7943
SWIDTH 461 0
DWIDTH 6 0
BBX 5 10 0 0
BITMAP
28
50
00
30
20
00
78
D8
D8
78
ENDCHAR
STARTCHAR U+1F08
ENCODING 7944
SWIDTH 692 0
DWIDTH 9 0
BBX 8 5 0 0
BITMAP
CE
5B
1F
1B
1B
ENDCHAR
STARTCHAR U+1F09
ENCODING 7945
SWIDTH 692 0
DWIDTH 9 0
BBX 8 5 0 0
BITMAP
CE
9B
1F
1B
1B
ENDCHAR
STARTCHAR U+1F0A
ENCODING 7946
SWIDTH 923 0
DWIDTH 12 0
BBX 11 5 0 0
BITMAP
D1C0
4B60
03E0
0360
0360
ENDCHAR
STARTCHAR U+1F0B
ENCODING 7947
SWIDTH 923 0
DWIDTH 12 0
BBX 11 5 0 0
BITMAP
D1C0
8B60
03E0
0360
0360
ENDCHAR
STARTCHAR U+1F0C
ENCODING 7948
SWIDTH 923 0
DWIDTH 12 0
BBX 11 5 0 0
BITMAP
C9C0
5360
03E0
0360
0360
ENDCHAR
STARTCHAR U+1F0D
ENCODING 7949
SWIDTH 923 0
DWIDTH 12 0
BBX 11 5 0 0
BITMAP
C9C0
9360
03E0
0360
0360
ENDCHAR
STARTCHAR U+1F0E
ENCODING 7950
SWIDTH 692 0
DWIDTH 9 0
BBX 9 8 -1 0
BITMAP
5000
A000
0000
6700
2D80
0F80
0D80
0D80
ENDCHAR
STARTCHAR U+1F0F
ENCODING 7951
SWIDTH 692 0
DWIDTH 9 0
BBX 9 8 -1 0
BITMAP
5000
A000
0000
6700
4D80
0F80
0D80
0D80
ENDCHAR
STARTCHAR U+1F10
ENCODING 7952
SWIDTH 384 0
DWIDTH 5 0
BBX 4 7 0 0
BITMAP
60
20
00
70
60
C0
70
ENDCHAR
STARTCHAR U+1F11
ENCODING 7953
SWIDTH 384 0
DWIDTH 5 0
BBX 4 7 0 0
BITMAP
30
20
00
70
60
C0
70
ENDCHAR
STARTCHAR U+1F12
ENCODING 7954
SWIDTH 384 0
DWIDTH 5 0
BBX 5 7 0 0
BITMAP
D0
48
00
70
60
C0
70
ENDCHAR
STARTCHAR U+1F13
ENCODING 7955
SWIDTH 384 0
DWIDTH 5 0
BBX 5 7 0 0
BITMAP
D0
88
00
70
60
C0
70
ENDCHAR
STARTCHAR U+1F14
ENCODING 7956
SWIDTH 384 0
DWIDTH 5 0
BBX 5 7 0 0
BITMAP
C8
50
00
70
60
C0
70
ENDCHAR
STARTCHAR U+1F15
ENCODING 7957
SWIDTH 384 0
DWIDTH 5 0
BBX 5 7 0 0
BITMAP
C8
90
00
70
60
C0
70
ENDCHAR
STARTCHAR U+1F18
ENCODING 7960
SWIDTH 692 0
DWIDTH 9 0
BBX 8 5 0 0
BITMAP
DF
58
1E
18
1F
ENDCHAR
STARTCHAR U+1F19
ENCODING 7961
SWIDTH 692 0
DWIDTH 9 0
BBX 8 5 0 0
BITMAP
DF
98
1E
18
1F
ENDCHAR
STARTCHAR U+1F1A
ENCODING 7962
SWIDTH 923 0
DWIDTH 12 0
BBX 11 5 0 0
BITMAP
D3E0
4B00
03C0
0300
03E0
ENDCHAR
STARTCHAR U+1F1B
ENCODING 7963
SWIDTH 923 0
DWIDTH 12 0
BBX 11 5 0 0
BITMAP
D3E0
8B00
03C0
0300
03E0
ENDCHAR
STARTCHAR U+1F1C
ENCODING 7964
SWIDTH 923 0
DWIDTH 12 0
BBX 11 5 0 0
BITMAP
CBE0
5300
03C0
0300
03E0
ENDCHAR
STARTCHAR U+1F1D
ENCODING 7965
SWIDTH 923 0
DWIDTH 12 0
BBX 11 5 0 0
BITMAP
CBE0
9300
03C0
0300
03E0
ENDCHAR
STARTCHAR U+1F20
ENCODING 7968
SWIDTH 461 0
DWIDTH 6 0
BBX 5 8 0 -1
BITMAP
60
20
00
F0
D8
D8
D8
18
ENDCHAR
STARTCHAR U+1F21
ENCODING 7969
SWIDTH 461 0
DWIDTH 6 0
BBX 5 8 0 -1
BITMAP
30
20
00
F0
D8
D8
D8
18
ENDCHAR
STARTCHAR U+1F22
ENCODING 7970
SWIDTH 461 0
DWIDTH 6 0
BBX 5 8 0 -1
BITMAP
D0
48
00
F0
D8
D8
D8
18
ENDCHAR
STARTCHAR U+1F23
ENCODING 7971
SWIDTH 461 0
DWIDTH 6 0
BBX 5 8 0 -1
BITMAP
D0
88
00
F0
D8
D8
D8
18
ENDCHAR
STARTCHAR U+1F24
ENCODING 7972
SWIDTH 461 0
DWIDTH 6 0
BBX 5 8 0 -1
BITMAP
C8
50
00
F0
D8
D8
D8
18
ENDCHAR
STARTCHAR U+1F25
ENCODING 7973
SWIDTH 461 0
DWIDTH 6 0
BBX 5 8 0 -1
BITMAP
C8
90
00
F0
D8
D8
D8
18
ENDCHAR
STARTCHAR U+1F26
ENCODING 7974
SWIDTH 461 0
DWIDTH 6 0
BBX 5 11 0 -1
BITMAP
50
A0
00
60
20
00
F0
D8
D8
D8
18
ENDCHAR
STARTCHAR U+1F27
ENCODING 7975
SWIDTH 461 0
DWIDTH 6 0
BBX 5 11 0 -1
BITMAP
28
50
00
30
20
00
F0
D8
D8
D8
18
ENDCHAR
STARTCHAR U+1F28
ENCODING 7976
SWIDTH 692 0
DWIDTH 9 0
BBX 8 5 0 0
BITMAP
DB
5B
1F
1B
1B
ENDCHAR
STARTCHAR U+1F29
ENCODING 7977
SWIDTH 692 0
DWIDTH 9 0
BBX 8 5 0 0
BITMAP
DB
9B
1F
1B
1B
ENDCHAR
STARTCHAR U+1F2A
ENCODING 7978
SWIDTH 923 0
DWIDTH 12 0
BBX 11 5 0 0
BITMAP
D360
4B60
03E0
0360
0360
ENDCHAR
STARTCHAR U+1F2B
ENCODING 7979
SWIDTH 923 0
DWIDTH 12 0
BBX 11 5 0 0
BITMAP
D360
8B60
03E0
0360
0360
ENDCHAR
STARTCHAR U+1F2C
ENCODING 7980
SWIDTH 923 0
DWIDTH 12 0
BBX 11 5 0 0
BITMAP
CB60
5360
03E0
0360
0360
ENDCHAR
STARTCHAR U+1F2D
ENCODING 7981
SWIDTH 923 0
DWIDTH 12 0
BBX 11 5 0 0
BITMAP
CB60
9360
03E0
0360
0360
ENDCHAR
STARTCHAR U+1F2E
ENCODING 7982
SWIDTH 692 0
DWIDTH 9 0
BBX 9 8 -1 0
BITMAP
5000
A000
0000
6D80
2D80
0F80
0D80
0D80
ENDCHAR
STARTCHAR U+1F2F
ENCODING 7983
SWIDTH 692 0
DWIDTH 9 0
BBX 9 8 -1 0
BITMAP
5000
A000
0000
6D80
4D80
0F80
0D80
0D80
ENDCHAR
STARTCHAR U+1F30
ENCODING 7984
SWIDTH 307 0
DWIDTH 4 0
BBX 3 7 0 0
BITMAP
C0
40
00
C0
C0
C0
60
ENDCHAR
STARTCHAR U+1F31
ENCODING 7985
SWIDTH 307 0
DWIDTH 4 0
BBX 3 7 0 0
BITMAP
60
40
00
C0
C0
C0
60
ENDCHAR
STARTCHAR U+1F32
ENCODING 7986
SWIDTH 307 0
DWIDTH 4 0
BBX 5 7 -1 0
BITMAP
D0
48
00
60
60
60
30
ENDCHAR
STARTCHAR U+1F33
ENCODING 7987
SWIDTH 307 0
DWIDTH 4 0
BBX 5 7 -1 0
BITMAP
D0
88
00
60
60
60
30
ENDCHAR
STARTCHAR U+1F34
ENCODING 7988
SWIDTH 307 0
DWIDTH 4 0
BBX 5 7 -1 0
BITMAP
C8
50
00
60
60
60
30
ENDCHAR
STARTCHAR U+1F35
ENCODING 7989
SWIDTH 307 0
DWIDTH 4 0
BBX 5 7 -1 0
BITMAP
C8
90
00
60
60
60
30
ENDCHAR
STARTCHAR U+1F36
ENCODING 7990
SWIDTH 307 0
DWIDTH 4 0
BBX 4 10 -1 0
BITMAP
50
A0
00
60
20
00
60
60
60
30
ENDCHAR
STARTCHAR U+1F37
ENCODING 7991
SWIDTH 230 0
DWIDTH 3 0
BBX 4 10 -1 0
BITMAP
50
A0
00
60
40
00
60
60
60
30
ENDCHAR
STARTCHAR U+1F38
ENCODING 7992
SWIDTH 461 0
DWIDTH 6 0
BBX 5 5 0 0
BITMAP
D8
58
18
18
18
ENDCHAR
STARTCHAR U+1F39
ENCODING 7993
SWIDTH 461 0
DWIDTH 6 0
BBX 5 5 0 0
BITMAP
D8
98
18
18
18
ENDCHAR
STARTCHAR U+1F3A
ENCODING 7994
SWIDTH 692 0
DWIDTH 9 0
BBX 8 5 0 0
BITMAP
D3
4B
03
03
03
ENDCHAR
STARTCHAR U+1F3B
ENCODING 7995
SWIDTH 692 0
DWIDTH 9 0
BBX 8 5 0 0
BITMAP
D3
8B
03
03
03
ENDCHAR
STARTCHAR U+1F3C
ENCODING 7996
SWIDTH 692 0
DWIDTH 9 0
BBX 8 5 0 0
BITMAP
CB
53
03
03
03
ENDCHAR
STARTCHAR U+1F3D
ENCODING 7997
SWIDTH 692 0
DWIDTH 9 0
BBX 8 5 0 0
BITMAP
CB
93
03
03
03
ENDCHAR
STARTCHAR U+1F3E
ENCODING 7998
SWIDTH 461 0
DWIDTH 6 0
BBX 6 8 -1 0
BITMAP
50
A0
00
6C
2C
0C
0C
0C
ENDCHAR
STARTCHAR U+1F3F
ENCODING 7999
SWIDTH 461 0
DWIDTH 6 0
BBX 6 8 -1 0
BITMAP
50
A0
00
6C
4C
0C
0C
0C
ENDCHAR
STARTCHAR U+1F40
ENCODING 8000
SWIDTH 461 0
DWIDTH 6 0
BBX 5 7 0 0
BITMAP
60
20
00
70
D8
D8
70
ENDCHAR
STARTCHAR U+1F41
ENCODING 8001
SWIDTH 461 0
DWIDTH 6 0
BBX 5 7 0 0
BITMAP
30
20
00
70
D8
D8
70
ENDCHAR
STARTCHAR U+1F42
ENCODING 8002
SWIDTH 461 0
DWIDTH 6 0
BBX 5 7 0 0
BITMAP
D0
48
00
70
D8
D8
70
ENDCHAR
STARTCHAR U+1F43
ENCODING 8003
SWIDTH 461 0
DWIDTH 6 0
BBX 5 7 0 0
BITMAP
D0
88
00
70
D8
D8
70
ENDCHAR
STARTCHAR U+1F44
ENCODING 8004
SWIDTH 461 0
DWIDTH 6 0
BBX 5 7 0 0
BITMAP
C8
50
00
70
D8
D8
70
ENDCHAR
STARTCHAR U+1F45
ENCODING 8005
SWIDTH 461 0
DWIDTH 6 0
BBX 5 7 0 0
BITMAP
C8
90
00
70
D8
D8
70
ENDCHAR
STARTCHAR U+1F48
ENCODING 8008
SWIDTH 692 0
DWIDTH 9 0
BBX 8 5 0 0
BITMAP
CE
5B
1B
1B
0E
ENDCHAR
STARTCHAR U+1F49
ENCODING 8009
SWIDTH 692 0
DWIDTH 9 0
BBX 8 5 0 0
BITMAP
CE
9B
1B
1B
0E
ENDCHAR
STARTCHAR U+1F4A
ENCODING 8010
SWIDTH 923 0
DWIDTH 12 0
BBX 11 5 0 0
BITMAP
D1C0
4B60
0360
0360
01C0
ENDCHAR
STARTCHAR U+1F4B
ENCODING 8011
SWIDTH 923 0
DWIDTH 12 0
BBX 11 5 0 0
BITMAP
D1C0
8B60
0360
0360
01C0
ENDCHAR
STARTCHAR U+1F4C
ENCODING 8012
SWIDTH 923 0
DWIDTH 12 0
BBX 11 5 0 0
BITMAP
C9C0
5360
0360
0360
01C0
ENDCHAR
STARTCHAR U+1F4D
ENCODING 8013
SWIDTH 923 0
DWIDTH 12 0
BBX 11 5 0 0
BITMAP
C9C0
9360
0360
0360
01C0
ENDCHAR
STARTCHAR U+1F50
ENCODING 8016
SWIDTH 461 0
DWIDTH 6 0
BBX 5 7 0 0
BITMAP
60
20
00
D8
D8
D8
70
ENDCHAR
STARTCHAR U+1F51
ENCODING 8017
SWIDTH 461 0
DWIDTH 6 0
BBX 5 7 0 0
BITMAP
30
20
00
D8
D8
D8
70
ENDCHAR
STARTCHAR U+1F52
ENCODING 8018
SWIDTH 461 0
DWIDTH 6 0
BBX 5 7 0 0
BITMAP
D0
48
00
D8
D8
D8
70
ENDCHAR
STARTCHAR U+1F53
ENCODING 8019
SWIDTH 461 0
DWIDTH 6 0
BBX 5 7 0 0
BITMAP
D0
88
00
D8
D8
D8
70
ENDCHAR
STARTCHAR U+1F54
ENCODING 8020
SWIDTH 461 0
DWIDTH 6 0
BBX 5 7 0 0
BITMAP
C8
50
00
D8
D8
D8
70
ENDCHAR
STARTCHAR U+1F55
ENCODING 8021
SWIDTH 461 0
DWIDTH 6 0
BBX 5 7 0 0
BITMAP
C8
90
00
D8
D8
D8
70
ENDCHAR
STARTCHAR U+1F56
ENCODING 8022
SWIDTH 461 0
DWIDTH 6 0
BBX 5 10 0 0
BITMAP
50
A0
00
60
20
00
D8
D8
D8
70
ENDCHAR
STARTCHAR U+1F57
ENCODING 8023
SWIDTH 461 0
DWIDTH 6 0
BBX 5 10 0 0
BITMAP
28
50
00
30
20
00
D8
D8
D8
70
ENDCHAR
STARTCHAR U+1F59
ENCODING 8025
SWIDTH 769 0
DWIDTH 10 0
BBX 9 5 0 0
BITMAP
D980
8F00
0600
0600
0600
ENDCHAR
STARTCHAR U+1F5B
ENCODING 8027
SWIDTH 1000 0
DWIDTH 13 0
BBX 12 5 0 0
BITMAP
D330
89E0
00C0
00C0
00C0
ENDCHAR
STARTCHAR U+1F5D
ENCODING 8029
SWIDTH 1000 0
DWIDTH 13 0
BBX 12 5 0 0
BITMAP
CB30
91E0
00C0
00C0
00C0
ENDCHAR
STARTCHAR U+1F5F
ENCODING 8031
SWIDTH 769 0
DWIDTH 10 0
BBX 10 8 -1 0
BITMAP
5000
A000
0000
6CC0
4780
0300
0300
0300
ENDCHAR
STARTCHAR U+1F60
ENCODING 8032
SWIDTH 615 0
DWIDTH 8 0
BBX 7 7 0 0
BITMAP
30
10
00
44
D6
D6
6C
ENDCHAR
STARTCHAR U+1F61
ENCODING 8033
SWIDTH 615 0
DWIDTH 8 0
BBX 7 7 0 0
BITMAP
18
10
00
44
D6
D6
6C
ENDCHAR
STARTCHAR U+1F62
ENCODING 8034
SWIDTH 615 0
DWIDTH 8 0
BBX 7 7 0 0
BITMAP
68
24
00
44
D6
D6
6C
ENDCHAR
STARTCHAR U+1F63
ENCODING 8035
SWIDTH 615 0
DWIDTH 8 0
BBX 7 7 0 0
BITMAP
68
44
00
44
D6
D6
6C
ENDCHAR
STARTCHAR U+1F64
ENCODING 8036
SWIDTH 615 0
DWIDTH 8 0
BBX 7 7 0 0
BITMAP
64
28
00
44
D6
D6
6C
ENDCHAR
STARTCHAR U+1F65
ENCODING 8037
SWIDTH 615 0
DWIDTH 8 0
BBX 7 7 0 0
BITMAP
64
48
00
44
D6
D6
6C
ENDCHAR
STARTCHAR U+1F66
ENCODING 8038
SWIDTH 615 0
DWIDTH 8 0
BBX 7 10 0 0
BITMAP
28
50
00
30
10
00
44
D6
D6
6C
ENDCHAR
STARTCHAR U+1F67
ENCODING 8039
SWIDTH 615 0
DWIDTH 8 0
BBX 7 10 0 0
BITMAP
14
28
00
18
10
00
44
D6
D6
6C
ENDCHAR
STARTCHAR U+1F68
ENCODING 8040
SWIDTH 692 0
DWIDTH 9 0
BBX 8 5 0 0
BITMAP
CE
5B
1B
0A
1B
ENDCHAR
STARTCHAR U+1F69
ENCODING 8041
SWIDTH 692 0
DWIDTH 9 0
BBX 8 5 0 0
BITMAP
CE
9B
1B
0A
1B
ENDCHAR
STARTCHAR U+1F6A
ENCODING 8042
SWIDTH 923 0
DWIDTH 12 0
BBX 11 5 0 0
BITMAP
D1C0
4B60
0360
0140
0360
ENDCHAR
STARTCHAR U+1F6B
ENCODING 8043
SWIDTH 923 0
DWIDTH 12 0
BBX 11 5 0 0
BITMAP
D1C0
8B60
0360
0140
0360
ENDCHAR
STARTCHAR U+1F6C
ENCODING 8044
SWIDTH 923 0
DWIDTH 12 0
BBX 11 5 0 0
BITMAP
C9C0
5360
0360
0140
0360
ENDCHAR
STARTCHAR U+1F6D
ENCODING 8045
SWIDTH 923 0
DWIDTH 12 0
BBX 11 5 0 0
BITMAP
C9C0
9360
0360
0140
0360
ENDCHAR
STARTCHAR U+1F6E
ENCODING 8046
SWIDTH 692 0
DWIDTH 9 0
BBX 9 8 -1 0
BITMAP
5000
A000
0000
6700
2D80
0D80
0500
0D80
ENDCHAR
STARTCHAR U+1F6F
ENCODING 8047
SWIDTH 692 0
DWIDTH 9 0
BBX 9 8 -1 0
BITMAP
5000
A000
0000
6700
4D80
0D80
0500
0D80
ENDCHAR
STARTCHAR U+1F70
ENCODING 8048
SWIDTH 461 0
DWIDTH 6 0
BBX 5 7 0 0
BITMAP
40
20
00
78
D8
D8
78
ENDCHAR
STARTCHAR U+1F71
ENCODING 8049
SWIDTH 461 0
DWIDTH 6 0
BBX 5 7 0 0
BITMAP
10
20
00
78
D8
D8
78
ENDCHAR
STARTCHAR U+1F72
ENCODING 8050
SWIDTH 384 0
DWIDTH 5 0
BBX 4 7 0 0
BITMAP
40
20
00
70
60
C0
70
ENDCHAR
STARTCHAR U+1F73
ENCODING 8051
SWIDTH 384 0
DWIDTH 5 0
BBX 4 7 0 0
BITMAP
20
40
00
70
60
C0
70
ENDCHAR
STARTCHAR U+1F74
ENCODING 8052
SWIDTH 461 0
DWIDTH 6 0
BBX 5 8 0 -1
BITMAP
40
20
00
F0
D8
D8
D8
18
ENDCHAR
STARTCHAR U+1F75
ENCODING 8053
SWIDTH 461 0
DWIDTH 6 0
BBX 5 8 0 -1
BITMAP
10
20
00
F0
D8
D8
D8
18
ENDCHAR
STARTCHAR U+1F76
ENCODING 8054
SWIDTH 307 0
DWIDTH 4 0
BBX 3 7 0 0
BITMAP
80
40
00
C0
C0
C0
60
ENDCHAR
STARTCHAR U+1F77
ENCODING 8055
SWIDTH 307 0
DWIDTH 4 0
BBX 3 7 0 0
BITMAP
40
80
00
C0
C0
C0
60
ENDCHAR
STARTCHAR U+1F78
ENCODING 8056
SWIDTH 461 0
DWIDTH 6 0
BBX 5 7 0 0
BITMAP
40
20
00
70
D8
D8
70
ENDCHAR
STARTCHAR U+1F79
ENCODING 8057
SWIDTH 461 0
DWIDTH 6 0
BBX 5 7 0 0
BITMAP
10
20
00
70
D8
D8
70
ENDCHAR
STARTCHAR U+1F7A
ENCODING 8058
SWIDTH 461 0
DWIDTH 6 0
BBX 5 7 0 0
BITMAP
40
20
00
D8
D8
D8
70
ENDCHAR
STARTCHAR U+1F7B
ENCODING 8059
SWIDTH 461 0
DWIDTH 6 0
BBX 5 7 0 0
BITMAP
10
20
00
D8
D8
D8
70
ENDCHAR
STARTCHAR U+1F7C
ENCODING 8060
SWIDTH 615 0
DWIDTH 8 0
BBX 7 7 0 0
BITMAP
20
10
00
44
D6
D6
6C
ENDCHAR
STARTCHAR U+1F7D
ENCODING 8061
SWIDTH 615 0
DWIDTH 8 0
BBX 7 7 0 0
BITMAP
08
10
00
44
D6
D6
6C
ENDCHAR
STARTCHAR U+1F80
ENCODING 8064
SWIDTH 461 0
DWIDTH 6 0
BBX 5 10 0 -3
BITMAP
60
20
00
78
D8
D8
78
00
20
20
ENDCHAR
STARTCHAR U+1F81
ENCODING 8065
SWIDTH 461 0
DWIDTH 6 0
BBX 5 10 0 -3
BITMAP
30
20
00
78
D8
D8
78
00
20
20
ENDCHAR
STARTCHAR U+1F82
ENCODING 8066
SWIDTH 461 0
DWIDTH 6 0
BBX 5 10 0 -3
BITMAP
D0
48
00
78
D8
D8
78
00
20
20
ENDCHAR
STARTCHAR U+1F83
ENCODING 8067
SWIDTH 461 0
DWIDTH 6 0
BBX 5 10 0 -3
BITMAP
D0
88
00
78
D8
D8
78
00
20
20
ENDCHAR
STARTCHAR U+1F84
ENCODING 8068
SWIDTH 461 0
DWIDTH 6 0
BBX 5 10 0 -3
BITMAP
C8
50
00
78
D8
D8
78
00
20
20
ENDCHAR
STARTCHAR U+1F85
ENCODING 8069
SWIDTH 461 0
DWIDTH 6 0
BBX 5 10 0 -3
BITMAP
C8
90
00
78
D8
D8
78
00
20
20
ENDCHAR
STARTCHAR U+1F86
ENCODING 8070
SWIDTH 461 0
DWIDTH 6 0
BBX 5 13 0 -3
BITMAP
50
A0
00
60
20
00
78
D8
D8
78
00
20
20
ENDCHAR
STARTCHAR U+1F87
ENCODING 8071
SWIDTH 461 0
DWIDTH 6 0
BBX 5 13 0 -3
BITMAP
28
50
00
30
20
00
78
D8
D8
78
00
20
20
ENDCHAR
STARTCHAR U+1F88
ENCODING 8072
SWIDTH 692 0
DWIDTH 9 0
BBX 8 8 0 -3
BITMAP
CE
5B
1F
1B
1B
00
04
04
ENDCHAR
STARTCHAR U+1F89
ENCODING 8073
SWIDTH 692 0
DWIDTH 9 0
BBX 8 8 0 -3
BITMAP
CE
9B
1F
1B
1B
00
04
04
ENDCHAR
STARTCHAR U+1F8A
ENCODING 8074
SWIDTH 923 0
DWIDTH 12 0
BBX 11 8 0 -3
BITMAP
D1C0
4B60
03E0
0360
0360
0000
0080
0080
ENDCHAR
STARTCHAR U+1F8B
ENCODING 8075
SWIDTH 923 0
DWIDTH 12 0
BBX 11 8 0 -3
BITMAP
D1C0
8B60
03E0
0360
0360
0000
0080
0080
ENDCHAR
STARTCHAR U+1F8C
ENCODING 8076
SWIDTH 923 0
DWIDTH 12 0
BBX 11 8 0 -3
BITMAP
C9C0
5360
03E0
0360
0360
0000
0080
0080
ENDCHAR
STARTCHAR U+1F8D
ENCODING 8077
SWIDTH 923 0
DWIDTH 12 0
BBX 11 8 0 -3
BITMAP
C9C0
9360
03E0
0360
0360
0000
0080
0080
ENDCHAR
STARTCHAR U+1F8E
ENCODING 8078
SWIDTH 692 0
DWIDTH 9 0
BBX 9 11 -1 -3
BITMAP
5000
A000
0000
6700
2D80
0F80
0D80
0D80
0000
0200
0200
ENDCHAR
STARTCHAR U+1F8F
ENCODING 8079
SWIDTH 692 0
DWIDTH 9 0
BBX 9 11 -1 -3
BITMAP
5000
A000
0000
6700
4D80
0F80
0D80
0D80
0000
0200
0200
ENDCHAR
STARTCHAR U+1F90
ENCODING 8080
SWIDTH 461 0
DWIDTH 6 0
BBX 5 11 0 -4
BITMAP
60
20
00
F0
D8
D8
D8
18
00
20
20
ENDCHAR
STARTCHAR U+1F91
ENCODING 8081
SWIDTH 461 0
DWIDTH 6 0
BBX 5 11 0 -4
BITMAP
30
20
00
F0
D8
D8
D8
18
00
20
20
ENDCHAR
STARTCHAR U+1F92
ENCODING 8082
SWIDTH 461 0
DWIDTH 6 0
BBX 5 11 0 -4
BITMAP
D0
48
00
F0
D8
D8
D8
18
00
20
20
ENDCHAR
STARTCHAR U+1F93
ENCODING 8083
SWIDTH 461 0
DWIDTH 6 0
BBX 5 11 0 -4
BITMAP
D0
88
00
F0
D8
D8
D8
18
00
20
20
ENDCHAR
STARTCHAR U+1F94
ENCODING 8084
SWIDTH 461 0
DWIDTH 6 0
BBX 5 11 0 -4
BITMAP
C8
50
00
F0
D8
D8
D8
18
00
20
20
ENDCHAR
STARTCHAR U+1F95
ENCODING 8085
SWIDTH 461 0
DWIDTH 6 0
BBX 5 11 0 -4
BITMAP
C8
90
00
F0
D8
D8
D8
18
00
20
20
ENDCHAR
STARTCHAR U+1F96
ENCODING 8086
SWIDTH 461 0
DWIDTH 6 0
BBX 5 14 0 -4
BITMAP
50
A0
00
60
20
00
F0
D8
D8
D8
18
00
20
20
ENDCHAR
STARTCHAR U+1F97
ENCODING 8087
SWIDTH 461 0
DWIDTH 6 0
BBX 5 14 0 -4
BITMAP
28
50
00
30
20
00
F0
D8
D8
D8
18
00
20
20
ENDCHAR
STARTCHAR U+1F98
ENCODING 8088
SWIDTH 692 0
DWIDTH 9 0
BBX 8 8 0 -3
BITMAP
DB
5B
1F
1B
1B
00
04
04
ENDCHAR
STARTCHAR U+1F99
ENCODING 8089
SWIDTH 692 0
DWIDTH 9 0
BBX 8 8 0 -3
BITMAP
DB
9B
1F
1B
1B
00
04
04
ENDCHAR
STARTCHAR U+1F9A
ENCODING 8090
SWIDTH 923 0
DWIDTH 12 0
BBX 11 8 0 -3
BITMAP
D360
4B60
03E0
0360
0360
0000
0080
0080
ENDCHAR
STARTCHAR U+1F9B
ENCODING 8091
SWIDTH 923 0
DWIDTH 12 0
BBX 11 8 0 -3
BITMAP
D360
8B60
03E0
0360
0360
0000
0080
0080
ENDCHAR
STARTCHAR U+1F9C
ENCODING 8092
SWIDTH 923 0
DWIDTH 12 0
BBX 11 8 0 -3
BITMAP
CB60
5360
03E0
0360
0360
0000
0080
0080
ENDCHAR
STARTCHAR U+1F9D
ENCODING 8093
SWIDTH 923 0
DWIDTH 12 0
BBX 11 8 0 -3
BITMAP
CB60
9360
03E0
0360
0360
0000
0080
0080
ENDCHAR
STARTCHAR U+1F9E
ENCODING 8094
SWIDTH 692 0
DWIDTH 9 0
BBX 9 11 -1 -3
BITMAP
5000
A000
0000
6D80
2D80
0F80
0D80
0D80
0000
0200
0200
ENDCHAR
STARTCHAR U+1F9F
ENCODING 8095
SWIDTH 692 0
DWIDTH 9 0
BBX 9 11 -1 -3
BITMAP
5000
A000
0000
6D80
4D80
0F80
0D80
0D80
0000
0200
0200
ENDCHAR
STARTCHAR U+1FA0
ENCODING 8096
SWIDTH 615 0
DWIDTH 8 0
BBX 7 10 0 -3
BITMAP
30
10
00
44
D6
D6
6C
00
10
10
ENDCHAR
STARTCHAR U+1FA1
ENCODING 8097
SWIDTH 615 0
DWIDTH 8 0
BBX 7 10 0 -3
BITMAP
18
10
00
44
D6
D6
6C
00
10
10
ENDCHAR
STARTCHAR U+1FA2
ENCODING 8098
SWIDTH 615 0
DWIDTH 8 0
BBX 7 10 0 -3
BITMAP
68
24
00
44
D6
D6
6C
00
10
10
ENDCHAR
STARTCHAR U+1FA3
ENCODING 8099
SWIDTH 615 0
DWIDTH 8 0
BBX 7 10 0 -3
BITMAP
68
44
00
44
D6
D6
6C
00
10
10
ENDCHAR
STARTCHAR U+1FA4
ENCODING 8100
SWIDTH 615 0
DWIDTH 8 0
BBX 7 10 0 -3
BITMAP
64
28
00
44
D6
D6
6C
00
10
10
ENDCHAR
STARTCHAR U+1FA5
ENCODING 8101
SWIDTH 615 0
DWIDTH 8 0
BBX 7 10 0 -3
BITMAP
64
48
00
44
D6
D6
6C
00
10
10
ENDCHAR
STARTCHAR U+1FA6
ENCODING 8102
SWIDTH 615 0
DWIDTH 8 0
BBX 7 13 0 -3
BITMAP
28
50
00
30
10
00
44
D6
D6
6C
00
10
10
ENDCHAR
STARTCHAR U+1FA7
ENCODING 8103
SWIDTH 615 0
DWIDTH 8 0
BBX 7 13 0 -3
BITMAP
14
28
00
18
10
00
44
D6
D6
6C
00
10
10
ENDCHAR
STARTCHAR U+1FA8
ENCODING 8104
SWIDTH 692 0
DWIDTH 9 0
BBX 8 8 0 -3
BITMAP
CE
5B
1B
0A
1B
00
04
04
ENDCHAR
STARTCHAR U+1FA9
ENCODING 8105
SWIDTH 692 0
DWIDTH 9 0
BBX 8 8 0 -3
BITMAP
CE
9B
1B
0A
1B
00
04
04
ENDCHAR
STARTCHAR U+1FAA
ENCODING 8106
SWIDTH 923 0
DWIDTH 12 0
BBX 11 8 0 -3
BITMAP
D1C0
4B60
0360
0140
0360
0000
0080
0080
ENDCHAR
STARTCHAR U+1FAB
ENCODING 8107
SWIDTH 923 0
DWIDTH 12 0
BBX 11 8 0 -3
BITMAP
D1C0
8B60
0360
0140
0360
0000
0080
0080
ENDCHAR
STARTCHAR U+1FAC
ENCODING 8108
SWIDTH 923 0
DWIDTH 12 0
BBX 11 8 0 -3
BITMAP
C9C0
5360
0360
0140
0360
0000
0080
0080
ENDCHAR
STARTCHAR U+1FAD
ENCODING 8109
SWIDTH 923 0
DWIDTH 12 0
BBX 11 8 0 -3
BITMAP
C9C0
9360
0360
0140
0360
0000
0080
0080
ENDCHAR
STARTCHAR U+1FAE
ENCODING 8110
SWIDTH 692 0
DWIDTH 9 0
BBX 9 11 -1 -3
BITMAP
5000
A000
0000
6700
2D80
0D80
0500
0D80
0000
0200
0200
ENDCHAR
STARTCHAR U+1FAF
ENCODING 8111
SWIDTH 692 0
DWIDTH 9 0
BBX 9 11 -1 -3
BITMAP
5000
A000
0000
6700
4D80
0D80
0500
0D80
0000
0200
0200
ENDCHAR
STARTCHAR U+1FB0
ENCODING 8112
SWIDTH 461 0
DWIDTH 6 0
BBX 5 7 0 0
BITMAP
50
20
00
78
D8
D8
78
ENDCHAR
STARTCHAR U+1FB1
ENCODING 8113
SWIDTH 461 0
DWIDTH 6 0
BBX 5 6 0 0
BITMAP
70
00
78
D8
D8
78
ENDCHAR
STARTCHAR U+1FB2
ENCODING 8114
SWIDTH 461 0
DWIDTH 6 0
BBX 5 10 0 -3
BITMAP
40
20
00
78
D8
D8
78
00
20
20
ENDCHAR
STARTCHAR U+1FB3
ENCODING 8115
SWIDTH 461 0
DWIDTH 6 0
BBX 5 7 0 -3
BITMAP
78
D8
D8
78
00
20
20
ENDCHAR
STARTCHAR U+1FB4
ENCODING 8116
SWIDTH 461 0
DWIDTH 6 0
BBX 5 10 0 -3
BITMAP
10
20
00
78
D8
D8
78
00
20
20
ENDCHAR
STARTCHAR U+1FB6
ENCODING 8118
SWIDTH 461 0
DWIDTH 6 0
BBX 5 7 0 0
BITMAP
28
50
00
78
D8
D8
78
ENDCHAR
STARTCHAR U+1FB7
ENCODING 8119
SWIDTH 461 0
DWIDTH 6 0
BBX 5 10 0 -3
BITMAP
28
50
00
78
D8
D8
78
00
20
20
ENDCHAR
STARTCHAR U+1FB8
ENCODING 8120
SWIDTH 461 0
DWIDTH 6 0
BBX 5 8 0 0
BITMAP
50
20
00
70
D8
F8
D8
D8
ENDCHAR
STARTCHAR U+1FB9
ENCODING 8121
SWIDTH 461 0
DWIDTH 6 0
BBX 5 7 0 0
BITMAP
70
00
70
D8
F8
D8
D8
ENDCHAR
STARTCHAR U+1FBA
ENCODING 8122
SWIDTH 692 0
DWIDTH 9 0
BBX 8 5 0 0
BITMAP
8E
5B
1F
1B
1B
ENDCHAR
STARTCHAR U+1FBB
ENCODING 8123
SWIDTH 692 0
DWIDTH 9 0
BBX 8 5 0 0
BITMAP
4E
9B
1F
1B
1B
ENDCHAR
STARTCHAR U+1FBC
ENCODING 8124
SWIDTH 461 0
DWIDTH 6 0
BBX 5 8 0 -3
BITMAP
70
D8
F8
D8
D8
00
20
20
ENDCHAR
STARTCHAR U+1FBD
ENCODING 8125
SWIDTH 230 0
DWIDTH 3 0
BBX 2 2 0 3
BITMAP
C0
40
ENDCHAR
STARTCHAR U+1FBE
ENCODING 8126
SWIDTH 153 0
DWIDTH 2 0
BBX 1 2 0 0
BITMAP
80
80
ENDCHAR
STARTCHAR U+1FBF
ENCODING 8127
SWIDTH 230 0
DWIDTH 3 0
BBX 2 2 0 3
BITMAP
C0
40
ENDCHAR
STARTCHAR U+1FC0
ENCODING 8128
SWIDTH 384 0
DWIDTH 5 0
BBX 4 2 0 3
BITMAP
50
A0
ENDCHAR
STARTCHAR U+1FC1
ENCODING 8129
SWIDTH 384 0
DWIDTH 5 0
BBX 4 4 0 1
BITMAP
50
A0
00
A0
ENDCHAR
STARTCHAR U+1FC2
ENCODING 8130
SWIDTH 461 0
DWIDTH 6 0
BBX 5 11 0 -4
BITMAP
40
20
00
F0
D8
D8
D8
18
00
20
20
ENDCHAR
STARTCHAR U+1FC3
ENCODING 8131
SWIDTH 461 0
DWIDTH 6 0
BBX 5 8 0 -4
BITMAP
F0
D8
D8
D8
18
00
20
20
ENDCHAR
STARTCHAR U+1FC4
ENCODING 8132
SWIDTH 461 0
DWIDTH 6 0
BBX 5 11 0 -4
BITMAP
10
20
00
F0
D8
D8
D8
18
00
20
20
ENDCHAR
STARTCHAR U+1FC6
ENCODING 8134
SWIDTH 461 0
DWIDTH 6 0
BBX 5 8 0 -1
BITMAP
28
50
00
F0
D8
D8
D8
18
ENDCHAR
STARTCHAR U+1FC7
ENCODING 8135
SWIDTH 461 0
DWIDTH 6 0
BBX 5 11 0 -4
BITMAP
28
50
00
F0
D8
D8
D8
18
00
20
20
ENDCHAR
STARTCHAR U+1FC8
ENCODING 8136
SWIDTH 692 0
DWIDTH 9 0
BBX 8 5 0 0
BITMAP
9F
58
1E
18
1F
ENDCHAR
STARTCHAR U+1FC9
ENCODING 8137
SWIDTH 692 0
DWIDTH 9 0
BBX 8 5 0 0
BITMAP
5F
98
1E
18
1F
ENDCHAR
STARTCHAR U+1FCA
ENCODING 8138
SWIDTH 692 0
DWIDTH 9 0
BBX 8 5 0 0
BITMAP
9B
5B
1F
1B
1B
ENDCHAR
STARTCHAR U+1FCB
ENCODING 8139
SWIDTH 692 0
DWIDTH 9 0
BBX 8 5 0 0
BITMAP
5B
9B
1F
1B
1B
ENDCHAR
STARTCHAR U+1FCC
ENCODING 8140
SWIDTH 461 0
DWIDTH 6 0
BBX 5 8 0 -3
BITMAP
D8
D8
F8
D8
D8
00
20
20
ENDCHAR
STARTCHAR U+1FCD
ENCODING 8141
SWIDTH 461 0
DWIDTH 6 0
BBX 5 2 0 3
BITMAP
D0
48
ENDCHAR
STARTCHAR U+1FCE
ENCODING 8142
SWIDTH 461 0
DWIDTH 6 0
BBX 5 2 0 3
BITMAP
C8
50
ENDCHAR
STARTCHAR U+1FCF
ENCODING 8143
SWIDTH 384 0
DWIDTH 5 0
BBX 4 5 0 0
BITMAP
50
A0
00
60
20
ENDCHAR
STARTCHAR U+1FD0
ENCODING 8144
SWIDTH 307 0
DWIDTH 4 0
BBX 3 7 0 0
BITMAP
A0
40
00
C0
C0
C0
60
ENDCHAR
STARTCHAR U+1FD1
ENCODING 8145
SWIDTH 307 0
DWIDTH 4 0
BBX 3 6 0 0
BITMAP
E0
00
C0
C0
C0
60
ENDCHAR
STARTCHAR U+1FD2
ENCODING 8146
SWIDTH 307 0
DWIDTH 4 0
BBX 3 9 0 0
BITMAP
80
40
00
A0
00
C0
C0
C0
60
ENDCHAR
STARTCHAR U+1FD3
ENCODING 8147
SWIDTH 307 0
DWIDTH 4 0
BBX 3 9 0 0
BITMAP
20
40
00
A0
00
C0
C0
C0
60
ENDCHAR
STARTCHAR U+1FD6
ENCODING 8150
SWIDTH 307 0
DWIDTH 4 0
BBX 4 7 -1 0
BITMAP
50
A0
00
60
60
60
30
ENDCHAR
STARTCHAR U+1FD7
ENCODING 8151
SWIDTH 307 0
DWIDTH 4 0
BBX 4 9 0 0
BITMAP
50
A0
00
A0
00
C0
C0
C0
60
ENDCHAR
STARTCHAR U+1FD8
ENCODING 8152
SWIDTH 230 0
DWIDTH 3 0
BBX 3 8 0 0
BITMAP
A0
40
00
C0
C0
C0
C0
C0
ENDCHAR
STARTCHAR U+1FD9
ENCODING 8153
SWIDTH 230 0
DWIDTH 3 0
BBX 3 7 0 0
BITMAP
E0
00
C0
C0
C0
C0
C0
ENDCHAR
STARTCHAR U+1FDA
ENCODING 8154
SWIDTH 461 0
DWIDTH 6 0
BBX 5 5 0 0
BITMAP
98
58
18
18
18
ENDCHAR
STARTCHAR U+1FDB
ENCODING 8155
SWIDTH 461 0
DWIDTH 6 0
BBX 5 5 0 0
BITMAP
58
98
18
18
18
ENDCHAR
STARTCHAR U+1FDD
ENCODING 8157
SWIDTH 461 0
DWIDTH 6 0
BBX 5 2 0 3
BITMAP
D0
88
ENDCHAR
STARTCHAR U+1FDE
ENCODING 8158
SWIDTH 461 0
DWIDTH 6 0
BBX 5 2 0 3
BITMAP
C8
90
ENDCHAR
STARTCHAR U+1FDF
ENCODING 8159
SWIDTH 384 0
DWIDTH 5 0
BBX 4 5 0 0
BITMAP
50
A0
00
60
40
ENDCHAR
STARTCHAR U+1FE0
ENCODING 8160
SWIDTH 461 0
DWIDTH 6 0
BBX 5 7 0 0
BITMAP
50
20
00
D8
D8
D8
70
ENDCHAR
STARTCHAR U+1FE1
ENCODING 8161
SWIDTH 461 0
DWIDTH 6 0
BBX 5 6 0 0
BITMAP
70
00
D8
D8
D8
70
ENDCHAR
STARTCHAR U+1FE2
ENCODING 8162
SWIDTH 461 0
DWIDTH 6 0
BBX 5 9 0 0
BITMAP
40
20
00
50
00
D8
D8
D8
70
ENDCHAR
STARTCHAR U+1FE3
ENCODING 8163
SWIDTH 461 0
DWIDTH 6 0
BBX 5 9 0 0
BITMAP
10
20
00
50
00
D8
D8
D8
70
ENDCHAR
STARTCHAR U+1FE4
ENCODING 8164
SWIDTH 461 0
DWIDTH 6 0
BBX 5 8 0 -1
BITMAP
60
20
00
70
D8
D8
F0
C0
ENDCHAR
STARTCHAR U+1FE5
ENCODING 8165
SWIDTH 461 0
DWIDTH 6 0
BBX 5 8 0 -1
BITMAP
30
20
00
70
D8
D8
F0
C0
ENDCHAR
STARTCHAR U+1FE6
ENCODING 8166
SWIDTH 461 0
DWIDTH 6 0
BBX 5 7 0 0
BITMAP
28
50
00
D8
D8
D8
70
ENDCHAR
STARTCHAR U+1FE7
ENCODING 8167
SWIDTH 461 0
DWIDTH 6 0
BBX 5 9 0 0
BITMAP
28
50
00
50
00
D8
D8
D8
70
ENDCHAR
STARTCHAR U+1FE8
ENCODING 8168
SWIDTH 538 0
DWIDTH 7 0
BBX 6 8 0 0
BITMAP
28
10
00
CC
78
30
30
30
ENDCHAR
STARTCHAR U+1FE9
ENCODING 8169
SWIDTH 538 0
DWIDTH 7 0
BBX 6 7 0 0
BITMAP
38
00
CC
78
30
30
30
ENDCHAR
STARTCHAR U+1FEA
ENCODING 8170
SWIDTH 769 0
DWIDTH 10 0
BBX 9 5 0 0
BITMAP
9980
4F00
0600
0600
0600
ENDCHAR
STARTCHAR U+1FEB
ENCODING 8171
SWIDTH 769 0
DWIDTH 10 0
BBX 9 5 0 0
BITMAP
5980
8F00
0600
0600
0600
ENDCHAR
STARTCHAR U+1FEC
ENCODING 8172
SWIDTH 615 0
DWIDTH 8 0
BBX 7 5 0 0
BITMAP
BC
B6
3C
30
30
ENDCHAR
STARTCHAR U+1FED
ENCODING 8173
SWIDTH 307 0
DWIDTH 4 0
BBX 3 4 0 1
BITMAP
80
40
00
A0
ENDCHAR
STARTCHAR U+1FEE
ENCODING 8174
SWIDTH 307 0
DWIDTH 4 0
BBX 3 4 0 1
BITMAP
20
40
00
A0
ENDCHAR
STARTCHAR U+1FEF
ENCODING 8175
SWIDTH 230 0
DWIDTH 3 0
BBX 2 2 0 3
BITMAP
80
40
ENDCHAR
STARTCHAR U+1FF2
ENCODING 8178
SWIDTH 615 0
DWIDTH 8 0
BBX 7 10 0 -3
BITMAP
20
10
00
44
D6
D6
6C
00
10
10
ENDCHAR
STARTCHAR U+1FF3
ENCODING 8179
SWIDTH 615 0
DWIDTH 8 0
BBX 7 7 0 -3
BITMAP
44
D6
D6
6C
00
10
10
ENDCHAR
STARTCHAR U+1FF4
ENCODING 8180
SWIDTH 615 0
DWIDTH 8 0
BBX 7 10 0 -3
BITMAP
08
10
00
44
D6
D6
6C
00
10
10
ENDCHAR
STARTCHAR U+1FF6
ENCODING 8182
SWIDTH 615 0
DWIDTH 8 0
BBX 7 7 0 0
BITMAP
14
28
00
44
D6
D6
6C
ENDCHAR
STARTCHAR U+1FF7
ENCODING 8183
SWIDTH 615 0
DWIDTH 8 0
BBX 7 10 0 -3
BITMAP
14
28
00
44
D6
D6
6C
00
10
10
ENDCHAR
STARTCHAR U+1FF8
ENCODING 8184
SWIDTH 692 0
DWIDTH 9 0
BBX 8 5 0 0
BITMAP
8E
5B
1B
1B
0E
ENDCHAR
STARTCHAR U+1FF9
ENCODING 8185
SWIDTH 692 0
DWIDTH 9 0
BBX 8 5 0 0
BITMAP
4E
9B
1B
1B
0E
ENDCHAR
STARTCHAR U+1FFA
ENCODING 8186
SWIDTH 692 0
DWIDTH 9 0
BBX 8 5 0 0
BITMAP
8E
5B
1B
0A
1B
ENDCHAR
STARTCHAR U+1FFB
ENCODING 8187
SWIDTH 692 0
DWIDTH 9 0
BBX 8 5 0 0
BITMAP
4E
9B
1B
0A
1B
ENDCHAR
STARTCHAR U+1FFC
ENCODING 8188
SWIDTH 461 0
DWIDTH 6 0
BBX 5 8 0 -3
BITMAP
70
D8
D8
50
D8
00
20
20
ENDCHAR
STARTCHAR U+1FFD
ENCODING 8189
SWIDTH 230 0
DWIDTH 3 0
BBX 2 2 0 3
BITMAP
40
80
ENDCHAR
STARTCHAR U+1FFE
ENCODING 8190
SWIDTH 230 0
DWIDTH 3 0
BBX 2 2 0 3
BITMAP
C0
80
ENDCHAR
STARTCHAR U+2013
ENCODING 8211
SWIDTH 538 0
DWIDTH 7 0
BBX 6 1 0 2
BITMAP
FC
ENDCHAR
STARTCHAR U+2014
ENCODING 8212
SWIDTH 615 0
DWIDTH 8 0
BBX 7 1 0 2
BITMAP
FE
ENDCHAR
STARTCHAR U+2016
ENCODING 8214
SWIDTH 307 0
DWIDTH 4 0
BBX 3 5 0 0
BITMAP
A0
A0
A0
A0
A0
ENDCHAR
STARTCHAR U+2018
ENCODING 8216
SWIDTH 153 0
DWIDTH 2 0
BBX 1 2 0 3
BITMAP
80
80
ENDCHAR
STARTCHAR U+2019
ENCODING 8217
SWIDTH 153 0
DWIDTH 2 0
BBX 1 2 0 3
BITMAP
80
80
ENDCHAR
STARTCHAR U+201A
ENCODING 8218
SWIDTH 153 0
DWIDTH 2 0
BBX 1 2 0 -1
BITMAP
80
80
ENDCHAR
STARTCHAR U+201C
ENCODING 8220
SWIDTH 307 0
DWIDTH 4 0
BBX 3 2 0 3
BITMAP
A0
A0
ENDCHAR
STARTCHAR U+201D
ENCODING 8221
SWIDTH 307 0
DWIDTH 4 0
BBX 3 2 0 3
BITMAP
A0
A0
ENDCHAR
STARTCHAR U+201E
ENCODING 8222
SWIDTH 307 0
DWIDTH 4 0
BBX 3 2 0 -1
BITMAP
A0
A0
ENDCHAR
STARTCHAR U+2020
ENCODING 8224
SWIDTH 307 0
DWIDTH 4 0
BBX 3 5 0 0
BITMAP
40
E0
40
40
40
ENDCHAR
STARTCHAR U+2021
ENCODING 8225
SWIDTH 307 0
DWIDTH 4 0
BBX 3 5 0 0
BITMAP
40
E0
40
E0
40
ENDCHAR
STARTCHAR U+2022
ENCODING 8226
SWIDTH 230 0
DWIDTH 3 0
BBX 2 2 0 2
BITMAP
C0
C0
ENDCHAR
STARTCHAR U+2026
ENCODING 8230
SWIDTH 692 0
DWIDTH 9 0
BBX 8 1 0 0
BITMAP
DB
ENDCHAR
STARTCHAR U+2030
ENCODING 8240
SWIDTH 538 0
DWIDTH 7 0
BBX 6 4 0 1
BITMAP
90
20
40
94
ENDCHAR
STARTCHAR U+2032
ENCODING 8242
SWIDTH 153 0
DWIDTH 2 0
BBX 1 2 0 3
BITMAP
80
80
ENDCHAR
STARTCHAR U+2033
ENCODING 8243
SWIDTH 307 0
DWIDTH 4 0
BBX 3 2 0 3
BITMAP
A0
A0
ENDCHAR
STARTCHAR U+2035
ENCODING 8245
SWIDTH 153 0
DWIDTH 2 0
BBX 1 2 0 3
BITMAP
80
80
ENDCHAR
STARTCHAR U+2036
ENCODING 8246
SWIDTH 307 0
DWIDTH 4 0
BBX 3 2 0 3
BITMAP
A0
A0
ENDCHAR
STARTCHAR U+2039
ENCODING 8249
SWIDTH 307 0
DWIDTH 4 0
BBX 3 3 0 1
BITMAP
60
C0
60
ENDCHAR
STARTCHAR U+203A
ENCODING 8250
SWIDTH 307 0
DWIDTH 4 0
BBX 3 3 0 1
BITMAP
C0
60
C0
ENDCHAR
STARTCHAR U+203B
ENCODING 8251
SWIDTH 461 0
DWIDTH 6 0
BBX 5 5 0 0
BITMAP
A8
50
A8
50
A8
ENDCHAR
STARTCHAR U+203F
ENCODING 8255
SWIDTH 538 0
DWIDTH 7 0
BBX 6 2 0 -1
BITMAP
84
78
ENDCHAR
STARTCHAR U+2042
ENCODING 8258
SWIDTH 538 0
DWIDTH 7 0
BBX 6 5 0 0
BITMAP
30
30
00
CC
CC
ENDCHAR
STARTCHAR U+2044
ENCODING 8260
SWIDTH 230 0
DWIDTH 3 0
BBX 2 5 0 0
BITMAP
40
40
80
80
80
ENDCHAR
STARTCHAR U+2056
ENCODING 8278
SWIDTH 307 0
DWIDTH 4 0
BBX 3 3 0 1
BITMAP
20
80
20
ENDCHAR
STARTCHAR U+2058
ENCODING 8280
SWIDTH 307 0
DWIDTH 4 0
BBX 3 3 0 1
BITMAP
40
A0
40
ENDCHAR
STARTCHAR U+2059
ENCODING 8281
SWIDTH 307 0
DWIDTH 4 0
BBX 3 3 0 1
BITMAP
A0
40
A0
ENDCHAR
STARTCHAR U+205A
ENCODING 8282
SWIDTH 153 0
DWIDTH 2 0
BBX 1 5 0 0
BITMAP
80
00
00
00
80
ENDCHAR
STARTCHAR U+205B
ENCODING 8283
SWIDTH 461 0
DWIDTH 6 0
BBX 5 5 0 0
BITMAP
20
00
88
00
20
ENDCHAR
STARTCHAR U+205C
ENCODING 8284
SWIDTH 461 0
DWIDTH 6 0
BBX 5 5 0 0
BITMAP
A8
20
F8
20
A8
ENDCHAR
STARTCHAR U+205D
ENCODING 8285
SWIDTH 153 0
DWIDTH 2 0
BBX 1 5 0 0
BITMAP
80
00
80
00
80
ENDCHAR
STARTCHAR U+205E
ENCODING 8286
SWIDTH 153 0
DWIDTH 2 0
BBX 1 7 0 -1
BITMAP
80
00
80
00
80
00
80
ENDCHAR
STARTCHAR U+2071
ENCODING 8305
SWIDTH 153 0
DWIDTH 2 0
BBX 1 3 0 2
BITMAP
80
80
80
ENDCHAR
STARTCHAR U+2074
ENCODING 8308
SWIDTH 307 0
DWIDTH 4 0
BBX 3 4 0 1
BITMAP
20
60
E0
20
ENDCHAR
STARTCHAR U+2075
ENCODING 8309
SWIDTH 307 0
DWIDTH 4 0
BBX 3 4 0 1
BITMAP
E0
C0
20
C0
ENDCHAR
STARTCHAR U+2076
ENCODING 8310
SWIDTH 307 0
DWIDTH 4 0
BBX 3 4 0 1
BITMAP
60
C0
A0
40
ENDCHAR
STARTCHAR U+2077
ENCODING 8311
SWIDTH 307 0
DWIDTH 4 0
BBX 3 4 0 1
BITMAP
E0
20
40
40
ENDCHAR
STARTCHAR U+2078
ENCODING 8312
SWIDTH 307 0
DWIDTH 4 0
BBX 3 4 0 1
BITMAP
40
E0
A0
40
ENDCHAR
STARTCHAR U+2079
ENCODING 8313
SWIDTH 307 0
DWIDTH 4 0
BBX 3 4 0 1
BITMAP
40
A0
60
C0
ENDCHAR
STARTCHAR U+207A
ENCODING 8314
SWIDTH 307 0
DWIDTH 4 0
BBX 3 3 0 2
BITMAP
40
E0
40
ENDCHAR
STARTCHAR U+207B
ENCODING 8315
SWIDTH 307 0
DWIDTH 4 0
BBX 3 1 0 3
BITMAP
E0
ENDCHAR
STARTCHAR U+207C
ENCODING 8316
SWIDTH 307 0
DWIDTH 4 0
BBX 3 3 0 2
BITMAP
E0
00
E0
ENDCHAR
STARTCHAR U+207F
ENCODING 8319
SWIDTH 307 0
DWIDTH 4 0
BBX 3 3 0 2
BITMAP
C0
A0
A0
ENDCHAR
STARTCHAR U+2081
ENCODING 8321
SWIDTH 230 0
DWIDTH 3 0
BBX 2 4 0 -1
BITMAP
40
C0
40
40
ENDCHAR
STARTCHAR U+2082
ENCODING 8322
SWIDTH 307 0
DWIDTH 4 0
BBX 3 4 0 -1
BITMAP
C0
20
40
E0
ENDCHAR
STARTCHAR U+2083
ENCODING 8323
SWIDTH 307 0
DWIDTH 4 0
BBX 3 4 0 -1
BITMAP
E0
40
20
C0
ENDCHAR
STARTCHAR U+2084
ENCODING 8324
SWIDTH 307 0
DWIDTH 4 0
BBX 3 4 0 -1
BITMAP
20
60
E0
20
ENDCHAR
STARTCHAR U+2085
ENCODING 8325
SWIDTH 307 0
DWIDTH 4 0
BBX 3 4 0 -1
BITMAP
E0
C0
20
C0
ENDCHAR
STARTCHAR U+2086
ENCODING 8326
SWIDTH 307 0
DWIDTH 4 0
BBX 3 4 0 -1
BITMAP
60
C0
A0
40
ENDCHAR
STARTCHAR U+2087
ENCODING 8327
SWIDTH 307 0
DWIDTH 4 0
BBX 3 4 0 -1
BITMAP
E0
20
40
40
ENDCHAR
STARTCHAR U+2088
ENCODING 8328
SWIDTH 307 0
DWIDTH 4 0
BBX 3 4 0 -1
BITMAP
40
E0
A0
40
ENDCHAR
STARTCHAR U+2089
ENCODING 8329
SWIDTH 307 0
DWIDTH 4 0
BBX 3 4 0 -1
BITMAP
40
A0
60
C0
ENDCHAR
STARTCHAR U+208A
ENCODING 8330
SWIDTH 307 0
DWIDTH 4 0
BBX 3 3 0 -1
BITMAP
40
E0
40
ENDCHAR
STARTCHAR U+208B
ENCODING 8331
SWIDTH 307 0
DWIDTH 4 0
BBX 3 1 0 0
BITMAP
E0
ENDCHAR
STARTCHAR U+208C
ENCODING 8332
SWIDTH 307 0
DWIDTH 4 0
BBX 3 3 0 -1
BITMAP
E0
00
E0
ENDCHAR
STARTCHAR U+20A1
ENCODING 8353
SWIDTH 461 0
DWIDTH 6 0
BBX 5 7 0 -1
BITMAP
10
70
D8
C0
D8
70
40
ENDCHAR
STARTCHAR U+20A6
ENCODING 8358
SWIDTH 692 0
DWIDTH 9 0
BBX 8 5 0 0
BITMAP
66
76
FF
66
66
ENDCHAR
STARTCHAR U+20A8
ENCODING 8360
SWIDTH 846 0
DWIDTH 11 0
BBX 10 5 0 0
BITMAP
F000
D9C0
F380
D8C0
DB80
ENDCHAR
STARTCHAR U+20A9
ENCODING 8361
SWIDTH 769 0
DWIDTH 10 0
BBX 9 5 0 0
BITMAP
6300
6B00
FF80
3E00
3600
ENDCHAR
STARTCHAR U+20AA
ENCODING 8362
SWIDTH 615 0
DWIDTH 8 0
BBX 7 5 0 0
BITMAP
F2
8A
AA
A2
BC
ENDCHAR
STARTCHAR U+20AB
ENCODING 8363
SWIDTH 538 0
DWIDTH 7 0
BBX 6 7 0 -2
BITMAP
18
7C
D8
D8
78
00
70
ENDCHAR
STARTCHAR U+20AC
ENCODING 8364
SWIDTH 538 0
DWIDTH 7 0
BBX 6 5 0 0
BITMAP
38
6C
F0
6C
38
ENDCHAR
STARTCHAR U+20AD
ENCODING 8365
SWIDTH 538 0
DWIDTH 7 0
BBX 6 5 0 0
BITMAP
6C
78
FC
78
6C
ENDCHAR
STARTCHAR U+20AE
ENCODING 8366
SWIDTH 384 0
DWIDTH 5 0
BBX 4 5 0 0
BITMAP
F0
60
F0
60
60
ENDCHAR
STARTCHAR U+20B1
ENCODING 8369
SWIDTH 538 0
DWIDTH 7 0
BBX 6 5 0 0
BITMAP
78
EC
78
60
60
ENDCHAR
STARTCHAR U+20B2
ENCODING 8370
SWIDTH 461 0
DWIDTH 6 0
BBX 5 7 0 -1
BITMAP
20
78
C0
D8
D8
78
20
ENDCHAR
STARTCHAR U+20B4
ENCODING 8372
SWIDTH 461 0
DWIDTH 6 0
BBX 5 5 0 0
BITMAP
F0
18
F8
C0
78
ENDCHAR
STARTCHAR U+20B5
ENCODING 8373
SWIDTH 461 0
DWIDTH 6 0
BBX 5 7 0 -1
BITMAP
20
70
D8
C0
D8
70
20
ENDCHAR
STARTCHAR U+20B8
ENCODING 8376
SWIDTH 384 0
DWIDTH 5 0
BBX 4 5 0 0
BITMAP
F0
00
F0
60
60
ENDCHAR
STARTCHAR U+20B9
ENCODING 8377
SWIDTH 384 0
DWIDTH 5 0
BBX 4 5 0 0
BITMAP
E0
30
E0
30
30
ENDCHAR
STARTCHAR U+20BA
ENCODING 8378
SWIDTH 538 0
DWIDTH 7 0
BBX 6 5 0 0
BITMAP
60
70
E0
6C
78
ENDCHAR
STARTCHAR U+20BC
ENCODING 8380
SWIDTH 615 0
DWIDTH 8 0
BBX 7 5 0 0
BITMAP
10
7C
D6
D6
C6
ENDCHAR
STARTCHAR U+20BD
ENCODING 8381
SWIDTH 538 0
DWIDTH 7 0
BBX 6 5 0 0
BITMAP
78
6C
78
F8
60
ENDCHAR
STARTCHAR U+20BE
ENCODING 8382
SWIDTH 461 0
DWIDTH 6 0
BBX 5 5 0 0
BITMAP
70
F8
C0
60
F8
ENDCHAR
STARTCHAR U+20BF
ENCODING 8383
SWIDTH 461 0
DWIDTH 6 0
BBX 5 7 0 -1
BITMAP
20
F0
D8
F0
D8
F0
20
ENDCHAR
STARTCHAR U+2113
ENCODING 8467
SWIDTH 307 0
DWIDTH 4 0
BBX 3 5 0 0
BITMAP
C0
C0
C0
C0
60
ENDCHAR
STARTCHAR U+2116
ENCODING 8470
SWIDTH 846 0
DWIDTH 11 0
BBX 10 5 0 0
BITMAP
CC80
ED40
DC80
CC00
CC00
ENDCHAR
STARTCHAR U+2122
ENCODING 8482
SWIDTH 538 0
DWIDTH 7 0
BBX 6 3 0 2
BITMAP
FC
5C
54
ENDCHAR
STARTCHAR U+2126
ENCODING 8486
SWIDTH 461 0
DWIDTH 6 0
BBX 5 5 0 0
BITMAP
70
D8
D8
50
D8
ENDCHAR
STARTCHAR U+212E
ENCODING 8494
SWIDTH 461 0
DWIDTH 6 0
BBX 5 4 0 0
BITMAP
70
F8
C0
70
ENDCHAR
STARTCHAR U+2135
ENCODING 8501
SWIDTH 461 0
DWIDTH 6 0
BBX 5 5 0 0
BITMAP
D8
78
F0
D8
D8
ENDCHAR
STARTCHAR U+2136
ENCODING 8502
SWIDTH 461 0
DWIDTH 6 0
BBX 5 5 0 0
BITMAP
E0
30
30
30
F8
ENDCHAR
STARTCHAR U+2144
ENCODING 8516
SWIDTH 461 0
DWIDTH 6 0
BBX 5 5 0 0
BITMAP
70
70
70
D8
D8
ENDCHAR
STARTCHAR U+2153
ENCODING 8531
SWIDTH 769 0
DWIDTH 10 0
BBX 9 5 0 0
BITMAP
4800
CB80
5100
5080
0300
ENDCHAR
STARTCHAR U+2154
ENCODING 8532
SWIDTH 846 0
DWIDTH 11 0
BBX 10 5 0 0
BITMAP
C400
25C0
4880
E840
0180
ENDCHAR
STARTCHAR U+2190
ENCODING 8592
SWIDTH 461 0
DWIDTH 6 0
BBX 5 5 0 0
BITMAP
20
60
F8
60
20
ENDCHAR
STARTCHAR U+2191
ENCODING 8593
SWIDTH 461 0
DWIDTH 6 0
BBX 5 5 0 0
BITMAP
20
70
F8
20
20
ENDCHAR
STARTCHAR U+2192
ENCODING 8594
SWIDTH 461 0
DWIDTH 6 0
BBX 5 5 0 0
BITMAP
20
30
F8
30
20
ENDCHAR
STARTCHAR U+2193
ENCODING 8595
SWIDTH 461 0
DWIDTH 6 0
BBX 5 5 0 0
BITMAP
20
20
F8
70
20
ENDCHAR
STARTCHAR U+2194
ENCODING 8596
SWIDTH 615 0
DWIDTH 8 0
BBX 7 5 0 0
BITMAP
28
6C
FE
6C
28
ENDCHAR
STARTCHAR U+2195
ENCODING 8597
SWIDTH 461 0
DWIDTH 6 0
BBX 5 7 0 -1
BITMAP
20
70
F8
20
F8
70
20
ENDCHAR
STARTCHAR U+2196
ENCODING 8598
SWIDTH 461 0
DWIDTH 6 0
BBX 5 5 0 0
BITMAP
E0
C0
A0
10
08
ENDCHAR
STARTCHAR U+2197
ENCODING 8599
SWIDTH 461 0
DWIDTH 6 0
BBX 5 5 0 0
BITMAP
38
18
28
40
80
ENDCHAR
STARTCHAR U+2198
ENCODING 8600
SWIDTH 461 0
DWIDTH 6 0
BBX 5 5 0 0
BITMAP
80
40
28
18
38
ENDCHAR
STARTCHAR U+2199
ENCODING 8601
SWIDTH 461 0
DWIDTH 6 0
BBX 5 5 0 0
BITMAP
08
10
A0
C0
E0
ENDCHAR
STARTCHAR U+2202
ENCODING 8706
SWIDTH 461 0
DWIDTH 6 0
BBX 5 5 0 0
BITMAP
70
18
78
D8
70
ENDCHAR
STARTCHAR U+2205
ENCODING 8709
SWIDTH 461 0
DWIDTH 6 0
BBX 5 5 0 0
BITMAP
70
D8
F8
D8
70
ENDCHAR
STARTCHAR U+2206
ENCODING 8710
SWIDTH 538 0
DWIDTH 7 0
BBX 6 5 0 0
BITMAP
30
30
78
48
FC
ENDCHAR
STARTCHAR U+220F
ENCODING 8719
SWIDTH 461 0
DWIDTH 6 0
BBX 5 6 0 -1
BITMAP
F8
D8
D8
D8
D8
D8
ENDCHAR
STARTCHAR U+2211
ENCODING 8721
SWIDTH 461 0
DWIDTH 6 0
BBX 5 6 0 -1
BITMAP
F8
60
30
60
C0
F8
ENDCHAR
STARTCHAR U+2212
ENCODING 8722
SWIDTH 384 0
DWIDTH 5 0
BBX 4 1 0 2
BITMAP
F0
ENDCHAR
STARTCHAR U+221A
ENCODING 8730
SWIDTH 461 0
DWIDTH 6 0
BBX 5 6 0 0
BITMAP
78
60
60
60
E0
60
ENDCHAR
STARTCHAR U+221E
ENCODING 8734
SWIDTH 461 0
DWIDTH 6 0
BBX 5 3 0 1
BITMAP
50
A8
50
ENDCHAR
STARTCHAR U+222B
ENCODING 8747
SWIDTH 384 0
DWIDTH 5 0
BBX 4 7 0 -1
BITMAP
30
60
60
60
60
60
C0
ENDCHAR
STARTCHAR U+2248
ENCODING 8776
SWIDTH 384 0
DWIDTH 5 0
BBX 4 5 0 0
BITMAP
50
A0
00
50
A0
ENDCHAR
STARTCHAR U+2260
ENCODING 8800
SWIDTH 384 0
DWIDTH 5 0
BBX 4 5 0 0
BITMAP
10
F0
60
F0
80
ENDCHAR
STARTCHAR U+2264
ENCODING 8804
SWIDTH 384 0
DWIDTH 5 0
BBX 4 7 0 -1
BITMAP
30
60
C0
60
30
00
F0
ENDCHAR
STARTCHAR U+2265
ENCODING 8805
SWIDTH 384 0
DWIDTH 5 0
BBX 4 7 0 -1
BITMAP
C0
60
30
60
C0
00
F0
ENDCHAR
STARTCHAR U+23D1
ENCODING 9169
SWIDTH 307 0
DWIDTH 4 0
BBX 3 2 0 1
BITMAP
A0
40
ENDCHAR
STARTCHAR U+23D2
ENCODING 9170
SWIDTH 307 0
DWIDTH 4 0
BBX 3 4 0 0
BITMAP
E0
00
A0
40
ENDCHAR
STARTCHAR U+23D3
ENCODING 9171
SWIDTH 307 0
DWIDTH 4 0
BBX 3 4 0 0
BITMAP
A0
40
00
E0
ENDCHAR
STARTCHAR U+23D4
ENCODING 9172
SWIDTH 461 0
DWIDTH 6 0
BBX 5 4 0 0
BITMAP
F8
00
A8
50
ENDCHAR
STARTCHAR U+23D5
ENCODING 9173
SWIDTH 461 0
DWIDTH 6 0
BBX 5 4 0 0
BITMAP
A8
50
00
F8
ENDCHAR
STARTCHAR U+23D6
ENCODING 9174
SWIDTH 461 0
DWIDTH 6 0
BBX 5 2 0 1
BITMAP
A8
50
ENDCHAR
STARTCHAR U+23D7
ENCODING 9175
SWIDTH 461 0
DWIDTH 6 0
BBX 5 3 0 1
BITMAP
08
08
F8
ENDCHAR
STARTCHAR U+23D8
ENCODING 9176
SWIDTH 461 0
DWIDTH 6 0
BBX 5 3 0 1
BITMAP
08
88
F8
ENDCHAR
STARTCHAR U+23D9
ENCODING 9177
SWIDTH 461 0
DWIDTH 6 0
BBX 5 3 0 1
BITMAP
08
A8
F8
ENDCHAR
STARTCHAR U+24B6
ENCODING 9398
SWIDTH 615 0
DWIDTH 8 0
BBX 7 7 0 -1
BITMAP
38
44
92
BA
AA
44
38
ENDCHAR
STARTCHAR U+24B9
ENCODING 9401
SWIDTH 615 0
DWIDTH 8 0
BBX 7 7 0 -1
BITMAP
38
44
B2
AA
B2
44
38
ENDCHAR
STARTCHAR U+24D0
ENCODING 9424
SWIDTH 615 0
DWIDTH 8 0
BBX 7 7 0 -1
BITMAP
38
44
9A
AA
9A
44
38
ENDCHAR
STARTCHAR U+25A0
ENCODING 9632
SWIDTH 384 0
DWIDTH 5 0
BBX 4 4 0 0
BITMAP
F0
F0
F0
F0
ENDCHAR
STARTCHAR U+25A1
ENCODING 9633
SWIDTH 384 0
DWIDTH 5 0
BBX 4 4 0 0
BITMAP
F0
90
90
F0
ENDCHAR
STARTCHAR U+25AA
ENCODING 9642
SWIDTH 307 0
DWIDTH 4 0
BBX 3 3 0 1
BITMAP
E0
E0
E0
ENDCHAR
STARTCHAR U+25AB
ENCODING 9643
SWIDTH 307 0
DWIDTH 4 0
BBX 3 3 0 1
BITMAP
E0
A0
E0
ENDCHAR
STARTCHAR U+25B2
ENCODING 9650
SWIDTH 461 0
DWIDTH 6 0
BBX 5 3 0 1
BITMAP
20
70
F8
ENDCHAR
STARTCHAR U+25B3
ENCODING 9651
SWIDTH 461 0
DWIDTH 6 0
BBX 5 3 0 1
BITMAP
20
50
F8
ENDCHAR
STARTCHAR U+25B4
ENCODING 9652
SWIDTH 307 0
DWIDTH 4 0
BBX 3 2 0 2
BITMAP
40
E0
ENDCHAR
STARTCHAR U+25B5
ENCODING 9653
SWIDTH 307 0
DWIDTH 4 0
BBX 3 2 0 2
BITMAP
40
A0
ENDCHAR
STARTCHAR U+25B6
ENCODING 9654
SWIDTH 307 0
DWIDTH 4 0
BBX 3 5 0 0
BITMAP
80
C0
E0
C0
80
ENDCHAR
STARTCHAR U+25B7
ENCODING 9655
SWIDTH 307 0
DWIDTH 4 0
BBX 3 5 0 0
BITMAP
80
C0
A0
C0
80
ENDCHAR
STARTCHAR U+25B8
ENCODING 9656
SWIDTH 230 0
DWIDTH 3 0
BBX 2 3 0 1
BITMAP
80
C0
80
ENDCHAR
STARTCHAR U+25B9
ENCODING 9657
SWIDTH 230 0
DWIDTH 3 0
BBX 2 3 0 1
BITMAP
80
40
80
ENDCHAR
STARTCHAR U+25BC
ENCODING 9660
SWIDTH 461 0
DWIDTH 6 0
BBX 5 3 0 1
BITMAP
F8
70
20
ENDCHAR
STARTCHAR U+25BD
ENCODING 9661
SWIDTH 461 0
DWIDTH 6 0
BBX 5 3 0 1
BITMAP
F8
50
20
ENDCHAR
STARTCHAR U+25BE
ENCODING 9662
SWIDTH 307 0
DWIDTH 4 0
BBX 3 2 0 2
BITMAP
E0
40
ENDCHAR
STARTCHAR U+25BF
ENCODING 9663
SWIDTH 307 0
DWIDTH 4 0
BBX 3 2 0 2
BITMAP
A0
40
ENDCHAR
STARTCHAR U+25C0
ENCODING 9664
SWIDTH 307 0
DWIDTH 4 0
BBX 3 5 0 0
BITMAP
20
60
E0
60
20
ENDCHAR
STARTCHAR U+25C1
ENCODING 9665
SWIDTH 307 0
DWIDTH 4 0
BBX 3 5 0 0
BITMAP
20
60
A0
60
20
ENDCHAR
STARTCHAR U+25C2
ENCODING 9666
SWIDTH 230 0
DWIDTH 3 0
BBX 2 3 0 1
BITMAP
40
C0
40
ENDCHAR
STARTCHAR U+25C3
ENCODING 9667
SWIDTH 230 0
DWIDTH 3 0
BBX 2 3 0 1
BITMAP
40
80
40
ENDCHAR
STARTCHAR U+25C6
ENCODING 9670
SWIDTH 461 0
DWIDTH 6 0
BBX 5 5 0 0
BITMAP
20
70
F8
70
20
ENDCHAR
STARTCHAR U+25C7
ENCODING 9671
SWIDTH 461 0
DWIDTH 6 0
BBX 5 5 0 0
BITMAP
20
50
88
50
20
ENDCHAR
STARTCHAR U+25CA
ENCODING 9674
SWIDTH 307 0
DWIDTH 4 0
BBX 3 5 0 0
BITMAP
40
40
A0
40
40
ENDCHAR
STARTCHAR U+25CB
ENCODING 9675
SWIDTH 384 0
DWIDTH 5 0
BBX 4 4 0 0
BITMAP
60
90
90
60
ENDCHAR
STARTCHAR U+25CF
ENCODING 9679
SWIDTH 384 0
DWIDTH 5 0
BBX 4 4 0 0
BITMAP
60
F0
F0
60
ENDCHAR
STARTCHAR U+25E6
ENCODING 9702
SWIDTH 230 0
DWIDTH 3 0
BBX 2 2 0 2
BITMAP
C0
C0
ENDCHAR
STARTCHAR U+27E8
ENCODING 10216
SWIDTH 230 0
DWIDTH 3 0
BBX 2 5 0 0
BITMAP
40
40
80
40
40
ENDCHAR
STARTCHAR U+27E9
ENCODING 10217
SWIDTH 230 0
DWIDTH 3 0
BBX 2 5 0 0
BITMAP
80
80
40
80
80
ENDCHAR
STARTCHAR U+2AFD
ENCODING 11005
SWIDTH 384 0
DWIDTH 5 0
BBX 4 5 0 0
BITMAP
50
50
A0
A0
A0
ENDCHAR
STARTCHAR U+2C62
ENCODING 11362
SWIDTH 538 0
DWIDTH 7 0
BBX 6 5 0 0
BITMAP
60
60
F0
60
7C
ENDCHAR
STARTCHAR U+2C63
ENCODING 11363
SWIDTH 538 0
DWIDTH 7 0
BBX 6 5 0 0
BITMAP
78
EC
78
60
60
ENDCHAR
STARTCHAR U+2C64
ENCODING 11364
SWIDTH 461 0
DWIDTH 6 0
BBX 5 7 0 -2
BITMAP
F0
D8
F0
D8
D8
C0
60
ENDCHAR
STARTCHAR U+2C65
ENCODING 11365
SWIDTH 461 0
DWIDTH 6 0
BBX 5 6 0 -1
BITMAP
10
78
D8
D8
78
80
ENDCHAR
STARTCHAR U+2C66
ENCODING 11366
SWIDTH 384 0
DWIDTH 5 0
BBX 4 6 0 0
BITMAP
10
60
70
60
60
B0
ENDCHAR
STARTCHAR U+2C6D
ENCODING 11373
SWIDTH 461 0
DWIDTH 6 0
BBX 5 5 0 0
BITMAP
78
D8
D8
D8
78
ENDCHAR
STARTCHAR U+2C6F
ENCODING 11375
SWIDTH 461 0
DWIDTH 6 0
BBX 5 5 0 0
BITMAP
D8
D8
F8
D8
70
ENDCHAR
STARTCHAR U+2C72
ENCODING 11378
SWIDTH 692 0
DWIDTH 9 0
BBX 8 5 0 0
BITMAP
C7
D6
D6
7C
6C
ENDCHAR
STARTCHAR U+2C73
ENCODING 11379
SWIDTH 692 0
DWIDTH 9 0
BBX 8 4 0 0
BITMAP
C7
D6
7C
6C
ENDCHAR
STARTCHAR U+2E00
ENCODING 11776
SWIDTH 230 0
DWIDTH 3 0
BBX 2 3 0 2
BITMAP
C0
80
80
ENDCHAR
STARTCHAR U+2E01
ENCODING 11777
SWIDTH 384 0
DWIDTH 5 0
BBX 4 3 0 2
BITMAP
C0
90
80
ENDCHAR
STARTCHAR U+2E02
ENCODING 11778
SWIDTH 230 0
DWIDTH 3 0
BBX 2 3 0 2
BITMAP
40
80
80
ENDCHAR
STARTCHAR U+2E03
ENCODING 11779
SWIDTH 230 0
DWIDTH 3 0
BBX 2 3 0 2
BITMAP
80
40
40
ENDCHAR
STARTCHAR U+2E04
ENCODING 11780
SWIDTH 384 0
DWIDTH 5 0
BBX 4 3 0 2
BITMAP
40
90
80
ENDCHAR
STARTCHAR U+2E05
ENCODING 11781
SWIDTH 384 0
DWIDTH 5 0
BBX 4 3 0 2
BITMAP
20
90
10
ENDCHAR
STARTCHAR U+2E06
ENCODING 11782
SWIDTH 307 0
DWIDTH 4 0
BBX 3 3 0 2
BITMAP
E0
40
40
ENDCHAR
STARTCHAR U+2E07
ENCODING 11783
SWIDTH 461 0
DWIDTH 6 0
BBX 5 3 0 2
BITMAP
E0
48
40
ENDCHAR
STARTCHAR U+2E08
ENCODING 11784
SWIDTH 461 0
DWIDTH 6 0
BBX 5 3 0 2
BITMAP
60
48
C0
ENDCHAR
STARTCHAR U+2E09
ENCODING 11785
SWIDTH 307 0
DWIDTH 4 0
BBX 3 3 0 2
BITMAP
60
40
C0
ENDCHAR
STARTCHAR U+2E0A
ENCODING 11786
SWIDTH 307 0
DWIDTH 4 0
BBX 3 3 0 2
BITMAP
C0
40
60
ENDCHAR
STARTCHAR U+2E0B
ENCODING 11787
SWIDTH 307 0
DWIDTH 4 0
BBX 3 3 0 2
BITMAP
E0
A0
A0
ENDCHAR
STARTCHAR U+2E0C
ENCODING 11788
SWIDTH 307 0
DWIDTH 4 0
BBX 3 3 0 2
BITMAP
80
40
20
ENDCHAR
STARTCHAR U+2E0D
ENCODING 11789
SWIDTH 307 0
DWIDTH 4 0
BBX 3 3 0 2
BITMAP
20
40
80
ENDCHAR
STARTCHAR U+2E0E
ENCODING 11790
SWIDTH 461 0
DWIDTH 6 0
BBX 5 5 0 0
BITMAP
20
50
F8
50
20
ENDCHAR
STARTCHAR U+2E0F
ENCODING 11791
SWIDTH 0 0
DWIDTH 0 0
BBX 6 1 0 -2
BITMAP
FC
ENDCHAR
STARTCHAR U+2E10
ENCODING 11792
SWIDTH 0 0
DWIDTH 0 0
BBX 6 1 0 -2
BITMAP
FC
ENDCHAR
STARTCHAR U+2E11
ENCODING 11793
SWIDTH 0 0
DWIDTH 0 0
BBX 6 1 0 -2
BITMAP
FC
ENDCHAR
STARTCHAR U+2E12
ENCODING 11794
SWIDTH 230 0
DWIDTH 3 0
BBX 2 3 0 0
BITMAP
80
40
80
ENDCHAR
STARTCHAR U+2E13
ENCODING 11795
SWIDTH 307 0
DWIDTH 4 0
BBX 3 5 0 0
BITMAP
20
A0
40
A0
80
ENDCHAR
STARTCHAR U+2E14
ENCODING 11796
SWIDTH 307 0
DWIDTH 4 0
BBX 3 4 0 0
BITMAP
20
20
C0
60
ENDCHAR
STARTCHAR U+2E15
ENCODING 11797
SWIDTH 307 0
DWIDTH 4 0
BBX 3 4 0 0
BITMAP
C0
60
80
80
ENDCHAR
STARTCHAR U+2E16
ENCODING 11798
SWIDTH 307 0
DWIDTH 4 0
BBX 3 5 0 0
BITMAP
A0
40
20
40
A0
ENDCHAR
STARTCHAR U+2E17
ENCODING 11799
SWIDTH 230 0
DWIDTH 3 0
BBX 2 5 0 0
BITMAP
40
80
00
40
80
ENDCHAR
STARTCHAR U+3008
ENCODING 12296
SWIDTH 230 0
DWIDTH 3 0
BBX 2 5 0 0
BITMAP
40
40
80
40
40
ENDCHAR
STARTCHAR U+3009
ENCODING 12297
SWIDTH 230 0
DWIDTH 3 0
BBX 2 5 0 0
BITMAP
80
80
40
80
80
ENDCHAR
STARTCHAR U+300A
ENCODING 12298
SWIDTH 384 0
DWIDTH 5 0
BBX 4 5 0 0
BITMAP
50
50
A0
50
50
ENDCHAR
STARTCHAR U+300B
ENCODING 12299
SWIDTH 384 0
DWIDTH 5 0
BBX 4 5 0 0
BITMAP
A0
A0
50
A0
A0
ENDCHAR
STARTCHAR U+300C
ENCODING 12300
SWIDTH 230 0
DWIDTH 3 0
BBX 2 5 0 0
BITMAP
C0
80
80
80
80
ENDCHAR
STARTCHAR U+300D
ENCODING 12301
SWIDTH 230 0
DWIDTH 3 0
BBX 2 5 0 0
BITMAP
40
40
40
40
C0
ENDCHAR
STARTCHAR U+301A
ENCODING 12314
SWIDTH 384 0
DWIDTH 5 0
BBX 4 5 0 0
BITMAP
F0
A0
A0
A0
F0
ENDCHAR
STARTCHAR U+301B
ENCODING 12315
SWIDTH 384 0
DWIDTH 5 0
BBX 4 5 0 0
BITMAP
F0
50
50
50
F0
ENDCHAR
STARTCHAR U+A789
ENCODING 42889
SWIDTH 153 0
DWIDTH 2 0
BBX 1 3 0 1
BITMAP
80
00
80
ENDCHAR
STARTCHAR U+A78A
ENCODING 42890
SWIDTH 230 0
DWIDTH 3 0
BBX 2 3 0 1
BITMAP
C0
00
C0
ENDCHAR
STARTCHAR U+A78B
ENCODING 42891
SWIDTH 153 0
DWIDTH 2 0
BBX 1 3 0 2
BITMAP
80
80
80
ENDCHAR
STARTCHAR U+A78C
ENCODING 42892
SWIDTH 153 0
DWIDTH 2 0
BBX 1 2 0 3
BITMAP
80
80
ENDCHAR
STARTCHAR U+A78D
ENCODING 42893
SWIDTH 461 0
DWIDTH 6 0
BBX 5 5 0 0
BITMAP
D8
D8
F8
18
18
ENDCHAR
STARTCHAR U+A7AA
ENCODING 42922
SWIDTH 538 0
DWIDTH 7 0
BBX 6 5 0 0
BITMAP
EC
6C
7C
6C
6C
ENDCHAR
STARTCHAR U+A7AD
ENCODING 42925
SWIDTH 538 0
DWIDTH 7 0
BBX 6 5 0 0
BITMAP
60
E0
F0
60
7C
ENDCHAR
STARTCHAR U+A7AE
ENCODING 42926
SWIDTH 384 0
DWIDTH 5 0
BBX 4 5 0 0
BITMAP
F0
60
60
60
F0
ENDCHAR
STARTCHAR U+A7B2
ENCODING 42930
SWIDTH 384 0
DWIDTH 5 0
BBX 4 5 0 0
BITMAP
30
30
30
F0
60
ENDCHAR
STARTCHAR U+A7B4
ENCODING 42932
SWIDTH 461 0
DWIDTH 6 0
BBX 5 6 0 -1
BITMAP
F0
D8
F0
D8
F0
C0
ENDCHAR
STARTCHAR U+A7B5
ENCODING 42933
SWIDTH 461 0
DWIDTH 6 0
BBX 5 6 0 -1
BITMAP
70
D8
F0
D8
F0
C0
ENDCHAR
STARTCHAR U+A7B6
ENCODING 42934
SWIDTH 615 0
DWIDTH 8 0
BBX 7 5 0 0
BITMAP
6C
C6
D6
D6
6C
ENDCHAR
STARTCHAR U+A7B7
ENCODING 42935
SWIDTH 615 0
DWIDTH 8 0
BBX 7 4 0 0
BITMAP
44
D6
D6
6C
ENDCHAR
STARTCHAR U+A7C7
ENCODING 42951
SWIDTH 461 0
DWIDTH 6 0
BBX 5 5 0 0
BITMAP
F0
D8
F8
D8
F0
ENDCHAR
STARTCHAR U+A7C8
ENCODING 42952
SWIDTH 461 0
DWIDTH 6 0
BBX 5 5 0 0
BITMAP
18
78
F8
D8
78
ENDCHAR
STARTCHAR U+AB53
ENCODING 43859
SWIDTH 461 0
DWIDTH 6 0
BBX 5 5 0 -1
BITMAP
D8
D8
70
D8
D8
ENDCHAR
STARTCHAR U+1D459
ENCODING 119897
SWIDTH 153 0
DWIDTH 2 0
BBX 1 5 0 0
BITMAP
80
80
80
80
80
ENDCHAR
STARTCHAR U+1D510
ENCODING 120080
SWIDTH 538 0
DWIDTH 7 0
BBX 6 5 0 0
BITMAP
A8
54
54
54
94
ENDCHAR
STARTCHAR U+1D513
ENCODING 120083
SWIDTH 461 0
DWIDTH 6 0
BBX 5 6 0 -1
BITMAP
B0
48
58
48
F0
40
ENDCHAR
STARTCHAR U+1D516
ENCODING 120086
SWIDTH 461 0
DWIDTH 6 0
BBX 5 5 0 0
BITMAP
78
80
F0
88
70
ENDCHAR
STARTCHAR U+1D52D
ENCODING 120109
SWIDTH 307 0
DWIDTH 4 0
BBX 3 4 0 -1
BITMAP
C0
A0
C0
80
ENDCHAR
ENDFONT
